%TF.GenerationSoftware,KiCad,Pcbnew,9.0.1*%
%TF.CreationDate,2026-06-11T15:55:01+02:00*%
%TF.ProjectId,SkofTopPlate,536b6f66-546f-4705-906c-6174652e6b69,v1.0.0*%
%TF.SameCoordinates,Original*%
%TF.FileFunction,Profile,NP*%
%FSLAX46Y46*%
G04 Gerber Fmt 4.6, Leading zero omitted, Abs format (unit mm)*
G04 Created by KiCad (PCBNEW 9.0.1) date 2026-06-11 15:55:01*
%MOMM*%
%LPD*%
G01*
G04 APERTURE LIST*
%TA.AperFunction,Profile*%
%ADD10C,0.150000*%
%TD*%
G04 APERTURE END LIST*
D10*
X138385000Y-134108579D02*
X138385000Y-120000000D01*
X138385000Y-50000000D02*
X138385000Y-33000000D01*
X138385000Y-115500000D02*
X138385000Y-54500000D01*
X140385000Y-31000000D02*
X163000000Y-31000000D01*
X233000000Y-31000000D02*
X254950000Y-31000000D01*
X167500000Y-31000000D02*
X228500000Y-31000000D01*
X256950000Y-33000000D02*
X256950000Y-64880000D01*
X258950000Y-66880000D02*
X280250000Y-66880000D01*
X282250000Y-68880000D02*
X282250000Y-125000000D01*
X282250000Y-160000000D02*
X282250000Y-167000000D01*
X282250000Y-129500000D02*
X282250000Y-155500000D01*
X280250000Y-169000000D02*
X265258981Y-169000000D01*
X264749561Y-168934035D02*
X224442856Y-158317373D01*
X156751621Y-140487711D02*
X139875581Y-136042614D01*
X220091276Y-157171181D02*
X161103201Y-141633904D01*
X138385000Y-33000000D02*
G75*
G02*
X140385000Y-31000000I2000000J0D01*
G01*
X254950000Y-31000000D02*
G75*
G02*
X256950000Y-33000000I0J-2000000D01*
G01*
X258950000Y-66880000D02*
G75*
G02*
X256950000Y-64880000I0J2000000D01*
G01*
X280250000Y-66880000D02*
G75*
G02*
X282250000Y-68880000I0J-2000000D01*
G01*
X282250000Y-167000000D02*
G75*
G02*
X280250000Y-169000000I-2000000J0D01*
G01*
X265258981Y-169000000D02*
G75*
G02*
X264749563Y-168934031I19J2000000D01*
G01*
X139875581Y-136042614D02*
G75*
G02*
X138385021Y-134108579I509419J1934014D01*
G01*
X163000000Y-31000000D02*
X163000000Y-25500000D01*
X164000000Y-24500000D02*
X232000000Y-24500000D01*
X233000000Y-25500000D02*
X233000000Y-31000000D01*
X228500000Y-31000000D02*
X228500000Y-30000000D01*
X227500000Y-29000000D02*
X168500000Y-29000000D01*
X167500000Y-30000000D02*
X167500000Y-31000000D01*
X163000000Y-25500000D02*
G75*
G02*
X164000000Y-24500000I1000000J0D01*
G01*
X232000000Y-24500000D02*
G75*
G02*
X233000000Y-25500000I0J-1000000D01*
G01*
X227500000Y-29000000D02*
G75*
G02*
X228500000Y-30000000I0J-1000000D01*
G01*
X167500000Y-30000000D02*
G75*
G02*
X168500000Y-29000000I1000000J0D01*
G01*
X138385000Y-120000000D02*
X132890000Y-120000000D01*
X131890000Y-119000000D02*
X131890000Y-51000000D01*
X132890000Y-50000000D02*
X138385000Y-50000000D01*
X138385000Y-54500000D02*
X137390000Y-54500000D01*
X136390000Y-55500000D02*
X136390000Y-114500000D01*
X137390000Y-115500000D02*
X138385000Y-115500000D01*
X132890000Y-120000000D02*
G75*
G02*
X131890000Y-119000000I0J1000000D01*
G01*
X131890000Y-51000000D02*
G75*
G02*
X132890000Y-50000000I1000000J0D01*
G01*
X136390000Y-55500000D02*
G75*
G02*
X137390000Y-54500000I1000000J0D01*
G01*
X137390000Y-115500000D02*
G75*
G02*
X136390000Y-114500000I0J1000000D01*
G01*
X224442856Y-158317373D02*
X223046216Y-163622181D01*
X221824568Y-164334625D02*
X156065445Y-147021693D01*
X155353001Y-145800045D02*
X156751621Y-140487711D01*
X161103201Y-141633904D02*
X160850416Y-142594047D01*
X161562860Y-143815695D02*
X218618571Y-158837210D01*
X219840218Y-158124766D02*
X220091276Y-157171181D01*
X223046216Y-163622181D02*
G75*
G02*
X221824574Y-164334604I-967016J254581D01*
G01*
X156065445Y-147021693D02*
G75*
G02*
X155352913Y-145800022I254555J967093D01*
G01*
X161562860Y-143815695D02*
G75*
G02*
X160850384Y-142594039I254640J967095D01*
G01*
X219840218Y-158124766D02*
G75*
G02*
X218618573Y-158837202I-967018J254566D01*
G01*
X282250000Y-125000000D02*
X287750000Y-125000000D01*
X288750000Y-126000000D02*
X288750000Y-159000000D01*
X287750000Y-160000000D02*
X282250000Y-160000000D01*
X282250000Y-155500000D02*
X283250000Y-155500000D01*
X284250000Y-154500000D02*
X284250000Y-130500000D01*
X283250000Y-129500000D02*
X282250000Y-129500000D01*
X287750000Y-125000000D02*
G75*
G02*
X288750000Y-126000000I0J-1000000D01*
G01*
X288750000Y-159000000D02*
G75*
G02*
X287750000Y-160000000I-1000000J0D01*
G01*
X284250000Y-154500000D02*
G75*
G02*
X283250000Y-155500000I-1000000J0D01*
G01*
X283250000Y-129500000D02*
G75*
G02*
X284250000Y-130500000I0J-1000000D01*
G01*
X143000000Y-118000000D02*
X157000000Y-118000000D01*
X157000000Y-118000000D02*
X157000000Y-104000000D01*
X157000000Y-104000000D02*
X143000000Y-104000000D01*
X143000000Y-104000000D02*
X143000000Y-118000000D01*
X143000000Y-99000000D02*
X157000000Y-99000000D01*
X157000000Y-99000000D02*
X157000000Y-85000000D01*
X157000000Y-85000000D02*
X143000000Y-85000000D01*
X143000000Y-85000000D02*
X143000000Y-99000000D01*
X143000000Y-80000000D02*
X157000000Y-80000000D01*
X157000000Y-80000000D02*
X157000000Y-66000000D01*
X157000000Y-66000000D02*
X143000000Y-66000000D01*
X143000000Y-66000000D02*
X143000000Y-80000000D01*
X143000000Y-61000000D02*
X157000000Y-61000000D01*
X157000000Y-61000000D02*
X157000000Y-47000000D01*
X157000000Y-47000000D02*
X143000000Y-47000000D01*
X143000000Y-47000000D02*
X143000000Y-61000000D01*
X162000000Y-137000000D02*
X176000000Y-137000000D01*
X176000000Y-137000000D02*
X176000000Y-123000000D01*
X176000000Y-123000000D02*
X162000000Y-123000000D01*
X162000000Y-123000000D02*
X162000000Y-137000000D01*
X162000000Y-118000000D02*
X176000000Y-118000000D01*
X176000000Y-118000000D02*
X176000000Y-104000000D01*
X176000000Y-104000000D02*
X162000000Y-104000000D01*
X162000000Y-104000000D02*
X162000000Y-118000000D01*
X162000000Y-99000000D02*
X176000000Y-99000000D01*
X176000000Y-99000000D02*
X176000000Y-85000000D01*
X176000000Y-85000000D02*
X162000000Y-85000000D01*
X162000000Y-85000000D02*
X162000000Y-99000000D01*
X162000000Y-80000000D02*
X176000000Y-80000000D01*
X176000000Y-80000000D02*
X176000000Y-66000000D01*
X176000000Y-66000000D02*
X162000000Y-66000000D01*
X162000000Y-66000000D02*
X162000000Y-80000000D01*
X162000000Y-61000000D02*
X176000000Y-61000000D01*
X176000000Y-61000000D02*
X176000000Y-47000000D01*
X176000000Y-47000000D02*
X162000000Y-47000000D01*
X162000000Y-47000000D02*
X162000000Y-61000000D01*
X181000000Y-129500000D02*
X195000000Y-129500000D01*
X195000000Y-129500000D02*
X195000000Y-115500000D01*
X195000000Y-115500000D02*
X181000000Y-115500000D01*
X181000000Y-115500000D02*
X181000000Y-129500000D01*
X181000000Y-110500000D02*
X195000000Y-110500000D01*
X195000000Y-110500000D02*
X195000000Y-96500000D01*
X195000000Y-96500000D02*
X181000000Y-96500000D01*
X181000000Y-96500000D02*
X181000000Y-110500000D01*
X181000000Y-91500000D02*
X195000000Y-91500000D01*
X195000000Y-91500000D02*
X195000000Y-77500000D01*
X195000000Y-77500000D02*
X181000000Y-77500000D01*
X181000000Y-77500000D02*
X181000000Y-91500000D01*
X181000000Y-72500000D02*
X195000000Y-72500000D01*
X195000000Y-72500000D02*
X195000000Y-58500000D01*
X195000000Y-58500000D02*
X181000000Y-58500000D01*
X181000000Y-58500000D02*
X181000000Y-72500000D01*
X181000000Y-53500000D02*
X195000000Y-53500000D01*
X195000000Y-53500000D02*
X195000000Y-39500000D01*
X195000000Y-39500000D02*
X181000000Y-39500000D01*
X181000000Y-39500000D02*
X181000000Y-53500000D01*
X200000000Y-126500000D02*
X214000000Y-126500000D01*
X214000000Y-126500000D02*
X214000000Y-112500000D01*
X214000000Y-112500000D02*
X200000000Y-112500000D01*
X200000000Y-112500000D02*
X200000000Y-126500000D01*
X200000000Y-107500000D02*
X214000000Y-107500000D01*
X214000000Y-107500000D02*
X214000000Y-93500000D01*
X214000000Y-93500000D02*
X200000000Y-93500000D01*
X200000000Y-93500000D02*
X200000000Y-107500000D01*
X200000000Y-88500000D02*
X214000000Y-88500000D01*
X214000000Y-88500000D02*
X214000000Y-74500000D01*
X214000000Y-74500000D02*
X200000000Y-74500000D01*
X200000000Y-74500000D02*
X200000000Y-88500000D01*
X200000000Y-69500000D02*
X214000000Y-69500000D01*
X214000000Y-69500000D02*
X214000000Y-55500000D01*
X214000000Y-55500000D02*
X200000000Y-55500000D01*
X200000000Y-55500000D02*
X200000000Y-69500000D01*
X200000000Y-50500000D02*
X214000000Y-50500000D01*
X214000000Y-50500000D02*
X214000000Y-36500000D01*
X214000000Y-36500000D02*
X200000000Y-36500000D01*
X200000000Y-36500000D02*
X200000000Y-50500000D01*
X219000000Y-110500000D02*
X233000000Y-110500000D01*
X233000000Y-110500000D02*
X233000000Y-96500000D01*
X233000000Y-96500000D02*
X219000000Y-96500000D01*
X219000000Y-96500000D02*
X219000000Y-110500000D01*
X219000000Y-91500000D02*
X233000000Y-91500000D01*
X233000000Y-91500000D02*
X233000000Y-77500000D01*
X233000000Y-77500000D02*
X219000000Y-77500000D01*
X219000000Y-77500000D02*
X219000000Y-91500000D01*
X219000000Y-72500000D02*
X233000000Y-72500000D01*
X233000000Y-72500000D02*
X233000000Y-58500000D01*
X233000000Y-58500000D02*
X219000000Y-58500000D01*
X219000000Y-58500000D02*
X219000000Y-72500000D01*
X219000000Y-53500000D02*
X233000000Y-53500000D01*
X233000000Y-53500000D02*
X233000000Y-39500000D01*
X233000000Y-39500000D02*
X219000000Y-39500000D01*
X219000000Y-39500000D02*
X219000000Y-53500000D01*
X238000000Y-112500000D02*
X252000000Y-112500000D01*
X252000000Y-112500000D02*
X252000000Y-98500000D01*
X252000000Y-98500000D02*
X238000000Y-98500000D01*
X238000000Y-98500000D02*
X238000000Y-112500000D01*
X238000000Y-93500000D02*
X252000000Y-93500000D01*
X252000000Y-93500000D02*
X252000000Y-79500000D01*
X252000000Y-79500000D02*
X238000000Y-79500000D01*
X238000000Y-79500000D02*
X238000000Y-93500000D01*
X238000000Y-74500000D02*
X252000000Y-74500000D01*
X252000000Y-74500000D02*
X252000000Y-60500000D01*
X252000000Y-60500000D02*
X238000000Y-60500000D01*
X238000000Y-60500000D02*
X238000000Y-74500000D01*
X238000000Y-55500000D02*
X252000000Y-55500000D01*
X252000000Y-55500000D02*
X252000000Y-41500000D01*
X252000000Y-41500000D02*
X238000000Y-41500000D01*
X238000000Y-41500000D02*
X238000000Y-55500000D01*
X219305347Y-145171244D02*
X233271244Y-144194653D01*
X233271244Y-144194653D02*
X232294653Y-130228756D01*
X232294653Y-130228756D02*
X218328756Y-131205347D01*
X218328756Y-131205347D02*
X219305347Y-145171244D01*
X238757793Y-145855602D02*
X251827919Y-150872754D01*
X251827919Y-150872754D02*
X256845070Y-137802628D01*
X256845070Y-137802628D02*
X243774944Y-132785476D01*
X243774944Y-132785476D02*
X238757793Y-145855602D01*
X255663606Y-155568145D02*
X266844503Y-163993555D01*
X266844503Y-163993555D02*
X275269913Y-152812658D01*
X275269913Y-152812658D02*
X264089016Y-144387248D01*
X264089016Y-144387248D02*
X255663606Y-155568145D01*
X279100000Y-111000000D02*
X279100000Y-72000000D01*
X277100000Y-70000000D02*
X259100000Y-70000000D01*
X257100000Y-72000000D02*
X257100000Y-111000000D01*
X259100000Y-113000000D02*
X277100000Y-113000000D01*
X277100000Y-70000000D02*
G75*
G02*
X279100000Y-72000000I0J-2000000D01*
G01*
X257100000Y-72000000D02*
G75*
G02*
X259100000Y-70000000I2000000J0D01*
G01*
X259100000Y-113000000D02*
G75*
G02*
X257100000Y-111000000I0J2000000D01*
G01*
X279100000Y-111000000D02*
G75*
G02*
X277100000Y-113000000I-2000000J0D01*
G01*
M02*
