%TF.GenerationSoftware,KiCad,Pcbnew,9.0.1*%
%TF.CreationDate,2026-06-11T15:54:09+02:00*%
%TF.ProjectId,SkofBottomPlate,536b6f66-426f-4747-946f-6d506c617465,v1.0.0*%
%TF.SameCoordinates,Original*%
%TF.FileFunction,Legend,Top*%
%TF.FilePolarity,Positive*%
%FSLAX46Y46*%
G04 Gerber Fmt 4.6, Leading zero omitted, Abs format (unit mm)*
G04 Created by KiCad (PCBNEW 9.0.1) date 2026-06-11 15:54:09*
%MOMM*%
%LPD*%
G01*
G04 APERTURE LIST*
%ADD10C,0.150000*%
%ADD11C,0.100000*%
%ADD12C,0.120000*%
G04 APERTURE END LIST*
D10*
X254454819Y-33452380D02*
X254454819Y-33261904D01*
X254454819Y-33261904D02*
X254502438Y-33166666D01*
X254502438Y-33166666D02*
X254597676Y-33071428D01*
X254597676Y-33071428D02*
X254788152Y-33023809D01*
X254788152Y-33023809D02*
X255121485Y-33023809D01*
X255121485Y-33023809D02*
X255311961Y-33071428D01*
X255311961Y-33071428D02*
X255407200Y-33166666D01*
X255407200Y-33166666D02*
X255454819Y-33261904D01*
X255454819Y-33261904D02*
X255454819Y-33452380D01*
X255454819Y-33452380D02*
X255407200Y-33547618D01*
X255407200Y-33547618D02*
X255311961Y-33642856D01*
X255311961Y-33642856D02*
X255121485Y-33690475D01*
X255121485Y-33690475D02*
X254788152Y-33690475D01*
X254788152Y-33690475D02*
X254597676Y-33642856D01*
X254597676Y-33642856D02*
X254502438Y-33547618D01*
X254502438Y-33547618D02*
X254454819Y-33452380D01*
X254931009Y-32261904D02*
X254931009Y-32595237D01*
X255454819Y-32595237D02*
X254454819Y-32595237D01*
X254454819Y-32595237D02*
X254454819Y-32119047D01*
X254931009Y-31404761D02*
X254931009Y-31738094D01*
X255454819Y-31738094D02*
X254454819Y-31738094D01*
X254454819Y-31738094D02*
X254454819Y-31261904D01*
X244454819Y-33119047D02*
X244454819Y-32928571D01*
X244454819Y-32928571D02*
X244502438Y-32833333D01*
X244502438Y-32833333D02*
X244597676Y-32738095D01*
X244597676Y-32738095D02*
X244788152Y-32690476D01*
X244788152Y-32690476D02*
X245121485Y-32690476D01*
X245121485Y-32690476D02*
X245311961Y-32738095D01*
X245311961Y-32738095D02*
X245407200Y-32833333D01*
X245407200Y-32833333D02*
X245454819Y-32928571D01*
X245454819Y-32928571D02*
X245454819Y-33119047D01*
X245454819Y-33119047D02*
X245407200Y-33214285D01*
X245407200Y-33214285D02*
X245311961Y-33309523D01*
X245311961Y-33309523D02*
X245121485Y-33357142D01*
X245121485Y-33357142D02*
X244788152Y-33357142D01*
X244788152Y-33357142D02*
X244597676Y-33309523D01*
X244597676Y-33309523D02*
X244502438Y-33214285D01*
X244502438Y-33214285D02*
X244454819Y-33119047D01*
X245454819Y-32261904D02*
X244454819Y-32261904D01*
X244454819Y-32261904D02*
X245454819Y-31690476D01*
X245454819Y-31690476D02*
X244454819Y-31690476D01*
X266335714Y-60654819D02*
X266335714Y-59654819D01*
X266335714Y-59654819D02*
X266716666Y-59654819D01*
X266716666Y-59654819D02*
X266811904Y-59702438D01*
X266811904Y-59702438D02*
X266859523Y-59750057D01*
X266859523Y-59750057D02*
X266907142Y-59845295D01*
X266907142Y-59845295D02*
X266907142Y-59988152D01*
X266907142Y-59988152D02*
X266859523Y-60083390D01*
X266859523Y-60083390D02*
X266811904Y-60131009D01*
X266811904Y-60131009D02*
X266716666Y-60178628D01*
X266716666Y-60178628D02*
X266335714Y-60178628D01*
X267859523Y-60654819D02*
X267288095Y-60654819D01*
X267573809Y-60654819D02*
X267573809Y-59654819D01*
X267573809Y-59654819D02*
X267478571Y-59797676D01*
X267478571Y-59797676D02*
X267383333Y-59892914D01*
X267383333Y-59892914D02*
X267288095Y-59940533D01*
X268716666Y-59654819D02*
X268526190Y-59654819D01*
X268526190Y-59654819D02*
X268430952Y-59702438D01*
X268430952Y-59702438D02*
X268383333Y-59750057D01*
X268383333Y-59750057D02*
X268288095Y-59892914D01*
X268288095Y-59892914D02*
X268240476Y-60083390D01*
X268240476Y-60083390D02*
X268240476Y-60464342D01*
X268240476Y-60464342D02*
X268288095Y-60559580D01*
X268288095Y-60559580D02*
X268335714Y-60607200D01*
X268335714Y-60607200D02*
X268430952Y-60654819D01*
X268430952Y-60654819D02*
X268621428Y-60654819D01*
X268621428Y-60654819D02*
X268716666Y-60607200D01*
X268716666Y-60607200D02*
X268764285Y-60559580D01*
X268764285Y-60559580D02*
X268811904Y-60464342D01*
X268811904Y-60464342D02*
X268811904Y-60226247D01*
X268811904Y-60226247D02*
X268764285Y-60131009D01*
X268764285Y-60131009D02*
X268716666Y-60083390D01*
X268716666Y-60083390D02*
X268621428Y-60035771D01*
X268621428Y-60035771D02*
X268430952Y-60035771D01*
X268430952Y-60035771D02*
X268335714Y-60083390D01*
X268335714Y-60083390D02*
X268288095Y-60131009D01*
X268288095Y-60131009D02*
X268240476Y-60226247D01*
X270301905Y-53034819D02*
X270301905Y-52034819D01*
X270301905Y-52034819D02*
X270682857Y-52034819D01*
X270682857Y-52034819D02*
X270778095Y-52082438D01*
X270778095Y-52082438D02*
X270825714Y-52130057D01*
X270825714Y-52130057D02*
X270873333Y-52225295D01*
X270873333Y-52225295D02*
X270873333Y-52368152D01*
X270873333Y-52368152D02*
X270825714Y-52463390D01*
X270825714Y-52463390D02*
X270778095Y-52511009D01*
X270778095Y-52511009D02*
X270682857Y-52558628D01*
X270682857Y-52558628D02*
X270301905Y-52558628D01*
X271778095Y-52034819D02*
X271301905Y-52034819D01*
X271301905Y-52034819D02*
X271254286Y-52511009D01*
X271254286Y-52511009D02*
X271301905Y-52463390D01*
X271301905Y-52463390D02*
X271397143Y-52415771D01*
X271397143Y-52415771D02*
X271635238Y-52415771D01*
X271635238Y-52415771D02*
X271730476Y-52463390D01*
X271730476Y-52463390D02*
X271778095Y-52511009D01*
X271778095Y-52511009D02*
X271825714Y-52606247D01*
X271825714Y-52606247D02*
X271825714Y-52844342D01*
X271825714Y-52844342D02*
X271778095Y-52939580D01*
X271778095Y-52939580D02*
X271730476Y-52987200D01*
X271730476Y-52987200D02*
X271635238Y-53034819D01*
X271635238Y-53034819D02*
X271397143Y-53034819D01*
X271397143Y-53034819D02*
X271301905Y-52987200D01*
X271301905Y-52987200D02*
X271254286Y-52939580D01*
X270301905Y-63194819D02*
X270301905Y-62194819D01*
X270301905Y-62194819D02*
X270682857Y-62194819D01*
X270682857Y-62194819D02*
X270778095Y-62242438D01*
X270778095Y-62242438D02*
X270825714Y-62290057D01*
X270825714Y-62290057D02*
X270873333Y-62385295D01*
X270873333Y-62385295D02*
X270873333Y-62528152D01*
X270873333Y-62528152D02*
X270825714Y-62623390D01*
X270825714Y-62623390D02*
X270778095Y-62671009D01*
X270778095Y-62671009D02*
X270682857Y-62718628D01*
X270682857Y-62718628D02*
X270301905Y-62718628D01*
X271349524Y-63194819D02*
X271540000Y-63194819D01*
X271540000Y-63194819D02*
X271635238Y-63147200D01*
X271635238Y-63147200D02*
X271682857Y-63099580D01*
X271682857Y-63099580D02*
X271778095Y-62956723D01*
X271778095Y-62956723D02*
X271825714Y-62766247D01*
X271825714Y-62766247D02*
X271825714Y-62385295D01*
X271825714Y-62385295D02*
X271778095Y-62290057D01*
X271778095Y-62290057D02*
X271730476Y-62242438D01*
X271730476Y-62242438D02*
X271635238Y-62194819D01*
X271635238Y-62194819D02*
X271444762Y-62194819D01*
X271444762Y-62194819D02*
X271349524Y-62242438D01*
X271349524Y-62242438D02*
X271301905Y-62290057D01*
X271301905Y-62290057D02*
X271254286Y-62385295D01*
X271254286Y-62385295D02*
X271254286Y-62623390D01*
X271254286Y-62623390D02*
X271301905Y-62718628D01*
X271301905Y-62718628D02*
X271349524Y-62766247D01*
X271349524Y-62766247D02*
X271444762Y-62813866D01*
X271444762Y-62813866D02*
X271635238Y-62813866D01*
X271635238Y-62813866D02*
X271730476Y-62766247D01*
X271730476Y-62766247D02*
X271778095Y-62718628D01*
X271778095Y-62718628D02*
X271825714Y-62623390D01*
X270301905Y-45414819D02*
X270301905Y-44414819D01*
X270301905Y-44414819D02*
X270682857Y-44414819D01*
X270682857Y-44414819D02*
X270778095Y-44462438D01*
X270778095Y-44462438D02*
X270825714Y-44510057D01*
X270825714Y-44510057D02*
X270873333Y-44605295D01*
X270873333Y-44605295D02*
X270873333Y-44748152D01*
X270873333Y-44748152D02*
X270825714Y-44843390D01*
X270825714Y-44843390D02*
X270778095Y-44891009D01*
X270778095Y-44891009D02*
X270682857Y-44938628D01*
X270682857Y-44938628D02*
X270301905Y-44938628D01*
X271254286Y-44510057D02*
X271301905Y-44462438D01*
X271301905Y-44462438D02*
X271397143Y-44414819D01*
X271397143Y-44414819D02*
X271635238Y-44414819D01*
X271635238Y-44414819D02*
X271730476Y-44462438D01*
X271730476Y-44462438D02*
X271778095Y-44510057D01*
X271778095Y-44510057D02*
X271825714Y-44605295D01*
X271825714Y-44605295D02*
X271825714Y-44700533D01*
X271825714Y-44700533D02*
X271778095Y-44843390D01*
X271778095Y-44843390D02*
X271206667Y-45414819D01*
X271206667Y-45414819D02*
X271825714Y-45414819D01*
X270301905Y-55574819D02*
X270301905Y-54574819D01*
X270301905Y-54574819D02*
X270682857Y-54574819D01*
X270682857Y-54574819D02*
X270778095Y-54622438D01*
X270778095Y-54622438D02*
X270825714Y-54670057D01*
X270825714Y-54670057D02*
X270873333Y-54765295D01*
X270873333Y-54765295D02*
X270873333Y-54908152D01*
X270873333Y-54908152D02*
X270825714Y-55003390D01*
X270825714Y-55003390D02*
X270778095Y-55051009D01*
X270778095Y-55051009D02*
X270682857Y-55098628D01*
X270682857Y-55098628D02*
X270301905Y-55098628D01*
X271730476Y-54574819D02*
X271540000Y-54574819D01*
X271540000Y-54574819D02*
X271444762Y-54622438D01*
X271444762Y-54622438D02*
X271397143Y-54670057D01*
X271397143Y-54670057D02*
X271301905Y-54812914D01*
X271301905Y-54812914D02*
X271254286Y-55003390D01*
X271254286Y-55003390D02*
X271254286Y-55384342D01*
X271254286Y-55384342D02*
X271301905Y-55479580D01*
X271301905Y-55479580D02*
X271349524Y-55527200D01*
X271349524Y-55527200D02*
X271444762Y-55574819D01*
X271444762Y-55574819D02*
X271635238Y-55574819D01*
X271635238Y-55574819D02*
X271730476Y-55527200D01*
X271730476Y-55527200D02*
X271778095Y-55479580D01*
X271778095Y-55479580D02*
X271825714Y-55384342D01*
X271825714Y-55384342D02*
X271825714Y-55146247D01*
X271825714Y-55146247D02*
X271778095Y-55051009D01*
X271778095Y-55051009D02*
X271730476Y-55003390D01*
X271730476Y-55003390D02*
X271635238Y-54955771D01*
X271635238Y-54955771D02*
X271444762Y-54955771D01*
X271444762Y-54955771D02*
X271349524Y-55003390D01*
X271349524Y-55003390D02*
X271301905Y-55051009D01*
X271301905Y-55051009D02*
X271254286Y-55146247D01*
X269688095Y-41922438D02*
X269592857Y-41874819D01*
X269592857Y-41874819D02*
X269450000Y-41874819D01*
X269450000Y-41874819D02*
X269307143Y-41922438D01*
X269307143Y-41922438D02*
X269211905Y-42017676D01*
X269211905Y-42017676D02*
X269164286Y-42112914D01*
X269164286Y-42112914D02*
X269116667Y-42303390D01*
X269116667Y-42303390D02*
X269116667Y-42446247D01*
X269116667Y-42446247D02*
X269164286Y-42636723D01*
X269164286Y-42636723D02*
X269211905Y-42731961D01*
X269211905Y-42731961D02*
X269307143Y-42827200D01*
X269307143Y-42827200D02*
X269450000Y-42874819D01*
X269450000Y-42874819D02*
X269545238Y-42874819D01*
X269545238Y-42874819D02*
X269688095Y-42827200D01*
X269688095Y-42827200D02*
X269735714Y-42779580D01*
X269735714Y-42779580D02*
X269735714Y-42446247D01*
X269735714Y-42446247D02*
X269545238Y-42446247D01*
X270164286Y-42874819D02*
X270164286Y-41874819D01*
X270164286Y-41874819D02*
X270735714Y-42874819D01*
X270735714Y-42874819D02*
X270735714Y-41874819D01*
X271211905Y-42874819D02*
X271211905Y-41874819D01*
X271211905Y-41874819D02*
X271450000Y-41874819D01*
X271450000Y-41874819D02*
X271592857Y-41922438D01*
X271592857Y-41922438D02*
X271688095Y-42017676D01*
X271688095Y-42017676D02*
X271735714Y-42112914D01*
X271735714Y-42112914D02*
X271783333Y-42303390D01*
X271783333Y-42303390D02*
X271783333Y-42446247D01*
X271783333Y-42446247D02*
X271735714Y-42636723D01*
X271735714Y-42636723D02*
X271688095Y-42731961D01*
X271688095Y-42731961D02*
X271592857Y-42827200D01*
X271592857Y-42827200D02*
X271450000Y-42874819D01*
X271450000Y-42874819D02*
X271211905Y-42874819D01*
X270301905Y-47954819D02*
X270301905Y-46954819D01*
X270301905Y-46954819D02*
X270682857Y-46954819D01*
X270682857Y-46954819D02*
X270778095Y-47002438D01*
X270778095Y-47002438D02*
X270825714Y-47050057D01*
X270825714Y-47050057D02*
X270873333Y-47145295D01*
X270873333Y-47145295D02*
X270873333Y-47288152D01*
X270873333Y-47288152D02*
X270825714Y-47383390D01*
X270825714Y-47383390D02*
X270778095Y-47431009D01*
X270778095Y-47431009D02*
X270682857Y-47478628D01*
X270682857Y-47478628D02*
X270301905Y-47478628D01*
X271206667Y-46954819D02*
X271825714Y-46954819D01*
X271825714Y-46954819D02*
X271492381Y-47335771D01*
X271492381Y-47335771D02*
X271635238Y-47335771D01*
X271635238Y-47335771D02*
X271730476Y-47383390D01*
X271730476Y-47383390D02*
X271778095Y-47431009D01*
X271778095Y-47431009D02*
X271825714Y-47526247D01*
X271825714Y-47526247D02*
X271825714Y-47764342D01*
X271825714Y-47764342D02*
X271778095Y-47859580D01*
X271778095Y-47859580D02*
X271730476Y-47907200D01*
X271730476Y-47907200D02*
X271635238Y-47954819D01*
X271635238Y-47954819D02*
X271349524Y-47954819D01*
X271349524Y-47954819D02*
X271254286Y-47907200D01*
X271254286Y-47907200D02*
X271206667Y-47859580D01*
X266335714Y-47954819D02*
X266335714Y-46954819D01*
X266335714Y-46954819D02*
X266716666Y-46954819D01*
X266716666Y-46954819D02*
X266811904Y-47002438D01*
X266811904Y-47002438D02*
X266859523Y-47050057D01*
X266859523Y-47050057D02*
X266907142Y-47145295D01*
X266907142Y-47145295D02*
X266907142Y-47288152D01*
X266907142Y-47288152D02*
X266859523Y-47383390D01*
X266859523Y-47383390D02*
X266811904Y-47431009D01*
X266811904Y-47431009D02*
X266716666Y-47478628D01*
X266716666Y-47478628D02*
X266335714Y-47478628D01*
X267288095Y-47050057D02*
X267335714Y-47002438D01*
X267335714Y-47002438D02*
X267430952Y-46954819D01*
X267430952Y-46954819D02*
X267669047Y-46954819D01*
X267669047Y-46954819D02*
X267764285Y-47002438D01*
X267764285Y-47002438D02*
X267811904Y-47050057D01*
X267811904Y-47050057D02*
X267859523Y-47145295D01*
X267859523Y-47145295D02*
X267859523Y-47240533D01*
X267859523Y-47240533D02*
X267811904Y-47383390D01*
X267811904Y-47383390D02*
X267240476Y-47954819D01*
X267240476Y-47954819D02*
X267859523Y-47954819D01*
X268478571Y-46954819D02*
X268573809Y-46954819D01*
X268573809Y-46954819D02*
X268669047Y-47002438D01*
X268669047Y-47002438D02*
X268716666Y-47050057D01*
X268716666Y-47050057D02*
X268764285Y-47145295D01*
X268764285Y-47145295D02*
X268811904Y-47335771D01*
X268811904Y-47335771D02*
X268811904Y-47573866D01*
X268811904Y-47573866D02*
X268764285Y-47764342D01*
X268764285Y-47764342D02*
X268716666Y-47859580D01*
X268716666Y-47859580D02*
X268669047Y-47907200D01*
X268669047Y-47907200D02*
X268573809Y-47954819D01*
X268573809Y-47954819D02*
X268478571Y-47954819D01*
X268478571Y-47954819D02*
X268383333Y-47907200D01*
X268383333Y-47907200D02*
X268335714Y-47859580D01*
X268335714Y-47859580D02*
X268288095Y-47764342D01*
X268288095Y-47764342D02*
X268240476Y-47573866D01*
X268240476Y-47573866D02*
X268240476Y-47335771D01*
X268240476Y-47335771D02*
X268288095Y-47145295D01*
X268288095Y-47145295D02*
X268335714Y-47050057D01*
X268335714Y-47050057D02*
X268383333Y-47002438D01*
X268383333Y-47002438D02*
X268478571Y-46954819D01*
X266216667Y-41874819D02*
X266550000Y-42874819D01*
X266550000Y-42874819D02*
X266883333Y-41874819D01*
X267788095Y-42779580D02*
X267740476Y-42827200D01*
X267740476Y-42827200D02*
X267597619Y-42874819D01*
X267597619Y-42874819D02*
X267502381Y-42874819D01*
X267502381Y-42874819D02*
X267359524Y-42827200D01*
X267359524Y-42827200D02*
X267264286Y-42731961D01*
X267264286Y-42731961D02*
X267216667Y-42636723D01*
X267216667Y-42636723D02*
X267169048Y-42446247D01*
X267169048Y-42446247D02*
X267169048Y-42303390D01*
X267169048Y-42303390D02*
X267216667Y-42112914D01*
X267216667Y-42112914D02*
X267264286Y-42017676D01*
X267264286Y-42017676D02*
X267359524Y-41922438D01*
X267359524Y-41922438D02*
X267502381Y-41874819D01*
X267502381Y-41874819D02*
X267597619Y-41874819D01*
X267597619Y-41874819D02*
X267740476Y-41922438D01*
X267740476Y-41922438D02*
X267788095Y-41970057D01*
X268788095Y-42779580D02*
X268740476Y-42827200D01*
X268740476Y-42827200D02*
X268597619Y-42874819D01*
X268597619Y-42874819D02*
X268502381Y-42874819D01*
X268502381Y-42874819D02*
X268359524Y-42827200D01*
X268359524Y-42827200D02*
X268264286Y-42731961D01*
X268264286Y-42731961D02*
X268216667Y-42636723D01*
X268216667Y-42636723D02*
X268169048Y-42446247D01*
X268169048Y-42446247D02*
X268169048Y-42303390D01*
X268169048Y-42303390D02*
X268216667Y-42112914D01*
X268216667Y-42112914D02*
X268264286Y-42017676D01*
X268264286Y-42017676D02*
X268359524Y-41922438D01*
X268359524Y-41922438D02*
X268502381Y-41874819D01*
X268502381Y-41874819D02*
X268597619Y-41874819D01*
X268597619Y-41874819D02*
X268740476Y-41922438D01*
X268740476Y-41922438D02*
X268788095Y-41970057D01*
X266335714Y-58114819D02*
X266335714Y-57114819D01*
X266335714Y-57114819D02*
X266716666Y-57114819D01*
X266716666Y-57114819D02*
X266811904Y-57162438D01*
X266811904Y-57162438D02*
X266859523Y-57210057D01*
X266859523Y-57210057D02*
X266907142Y-57305295D01*
X266907142Y-57305295D02*
X266907142Y-57448152D01*
X266907142Y-57448152D02*
X266859523Y-57543390D01*
X266859523Y-57543390D02*
X266811904Y-57591009D01*
X266811904Y-57591009D02*
X266716666Y-57638628D01*
X266716666Y-57638628D02*
X266335714Y-57638628D01*
X267859523Y-58114819D02*
X267288095Y-58114819D01*
X267573809Y-58114819D02*
X267573809Y-57114819D01*
X267573809Y-57114819D02*
X267478571Y-57257676D01*
X267478571Y-57257676D02*
X267383333Y-57352914D01*
X267383333Y-57352914D02*
X267288095Y-57400533D01*
X268716666Y-57448152D02*
X268716666Y-58114819D01*
X268478571Y-57067200D02*
X268240476Y-57781485D01*
X268240476Y-57781485D02*
X268859523Y-57781485D01*
X266335714Y-55574819D02*
X266335714Y-54574819D01*
X266335714Y-54574819D02*
X266716666Y-54574819D01*
X266716666Y-54574819D02*
X266811904Y-54622438D01*
X266811904Y-54622438D02*
X266859523Y-54670057D01*
X266859523Y-54670057D02*
X266907142Y-54765295D01*
X266907142Y-54765295D02*
X266907142Y-54908152D01*
X266907142Y-54908152D02*
X266859523Y-55003390D01*
X266859523Y-55003390D02*
X266811904Y-55051009D01*
X266811904Y-55051009D02*
X266716666Y-55098628D01*
X266716666Y-55098628D02*
X266335714Y-55098628D01*
X267859523Y-55574819D02*
X267288095Y-55574819D01*
X267573809Y-55574819D02*
X267573809Y-54574819D01*
X267573809Y-54574819D02*
X267478571Y-54717676D01*
X267478571Y-54717676D02*
X267383333Y-54812914D01*
X267383333Y-54812914D02*
X267288095Y-54860533D01*
X268764285Y-54574819D02*
X268288095Y-54574819D01*
X268288095Y-54574819D02*
X268240476Y-55051009D01*
X268240476Y-55051009D02*
X268288095Y-55003390D01*
X268288095Y-55003390D02*
X268383333Y-54955771D01*
X268383333Y-54955771D02*
X268621428Y-54955771D01*
X268621428Y-54955771D02*
X268716666Y-55003390D01*
X268716666Y-55003390D02*
X268764285Y-55051009D01*
X268764285Y-55051009D02*
X268811904Y-55146247D01*
X268811904Y-55146247D02*
X268811904Y-55384342D01*
X268811904Y-55384342D02*
X268764285Y-55479580D01*
X268764285Y-55479580D02*
X268716666Y-55527200D01*
X268716666Y-55527200D02*
X268621428Y-55574819D01*
X268621428Y-55574819D02*
X268383333Y-55574819D01*
X268383333Y-55574819D02*
X268288095Y-55527200D01*
X268288095Y-55527200D02*
X268240476Y-55479580D01*
X266788095Y-36842438D02*
X266692857Y-36794819D01*
X266692857Y-36794819D02*
X266550000Y-36794819D01*
X266550000Y-36794819D02*
X266407143Y-36842438D01*
X266407143Y-36842438D02*
X266311905Y-36937676D01*
X266311905Y-36937676D02*
X266264286Y-37032914D01*
X266264286Y-37032914D02*
X266216667Y-37223390D01*
X266216667Y-37223390D02*
X266216667Y-37366247D01*
X266216667Y-37366247D02*
X266264286Y-37556723D01*
X266264286Y-37556723D02*
X266311905Y-37651961D01*
X266311905Y-37651961D02*
X266407143Y-37747200D01*
X266407143Y-37747200D02*
X266550000Y-37794819D01*
X266550000Y-37794819D02*
X266645238Y-37794819D01*
X266645238Y-37794819D02*
X266788095Y-37747200D01*
X266788095Y-37747200D02*
X266835714Y-37699580D01*
X266835714Y-37699580D02*
X266835714Y-37366247D01*
X266835714Y-37366247D02*
X266645238Y-37366247D01*
X267264286Y-37794819D02*
X267264286Y-36794819D01*
X267264286Y-36794819D02*
X267835714Y-37794819D01*
X267835714Y-37794819D02*
X267835714Y-36794819D01*
X268311905Y-37794819D02*
X268311905Y-36794819D01*
X268311905Y-36794819D02*
X268550000Y-36794819D01*
X268550000Y-36794819D02*
X268692857Y-36842438D01*
X268692857Y-36842438D02*
X268788095Y-36937676D01*
X268788095Y-36937676D02*
X268835714Y-37032914D01*
X268835714Y-37032914D02*
X268883333Y-37223390D01*
X268883333Y-37223390D02*
X268883333Y-37366247D01*
X268883333Y-37366247D02*
X268835714Y-37556723D01*
X268835714Y-37556723D02*
X268788095Y-37651961D01*
X268788095Y-37651961D02*
X268692857Y-37747200D01*
X268692857Y-37747200D02*
X268550000Y-37794819D01*
X268550000Y-37794819D02*
X268311905Y-37794819D01*
X266335714Y-50494819D02*
X266335714Y-49494819D01*
X266335714Y-49494819D02*
X266716666Y-49494819D01*
X266716666Y-49494819D02*
X266811904Y-49542438D01*
X266811904Y-49542438D02*
X266859523Y-49590057D01*
X266859523Y-49590057D02*
X266907142Y-49685295D01*
X266907142Y-49685295D02*
X266907142Y-49828152D01*
X266907142Y-49828152D02*
X266859523Y-49923390D01*
X266859523Y-49923390D02*
X266811904Y-49971009D01*
X266811904Y-49971009D02*
X266716666Y-50018628D01*
X266716666Y-50018628D02*
X266335714Y-50018628D01*
X267859523Y-50494819D02*
X267288095Y-50494819D01*
X267573809Y-50494819D02*
X267573809Y-49494819D01*
X267573809Y-49494819D02*
X267478571Y-49637676D01*
X267478571Y-49637676D02*
X267383333Y-49732914D01*
X267383333Y-49732914D02*
X267288095Y-49780533D01*
X268335714Y-50494819D02*
X268526190Y-50494819D01*
X268526190Y-50494819D02*
X268621428Y-50447200D01*
X268621428Y-50447200D02*
X268669047Y-50399580D01*
X268669047Y-50399580D02*
X268764285Y-50256723D01*
X268764285Y-50256723D02*
X268811904Y-50066247D01*
X268811904Y-50066247D02*
X268811904Y-49685295D01*
X268811904Y-49685295D02*
X268764285Y-49590057D01*
X268764285Y-49590057D02*
X268716666Y-49542438D01*
X268716666Y-49542438D02*
X268621428Y-49494819D01*
X268621428Y-49494819D02*
X268430952Y-49494819D01*
X268430952Y-49494819D02*
X268335714Y-49542438D01*
X268335714Y-49542438D02*
X268288095Y-49590057D01*
X268288095Y-49590057D02*
X268240476Y-49685295D01*
X268240476Y-49685295D02*
X268240476Y-49923390D01*
X268240476Y-49923390D02*
X268288095Y-50018628D01*
X268288095Y-50018628D02*
X268335714Y-50066247D01*
X268335714Y-50066247D02*
X268430952Y-50113866D01*
X268430952Y-50113866D02*
X268621428Y-50113866D01*
X268621428Y-50113866D02*
X268716666Y-50066247D01*
X268716666Y-50066247D02*
X268764285Y-50018628D01*
X268764285Y-50018628D02*
X268811904Y-49923390D01*
X266335714Y-53034819D02*
X266335714Y-52034819D01*
X266335714Y-52034819D02*
X266716666Y-52034819D01*
X266716666Y-52034819D02*
X266811904Y-52082438D01*
X266811904Y-52082438D02*
X266859523Y-52130057D01*
X266859523Y-52130057D02*
X266907142Y-52225295D01*
X266907142Y-52225295D02*
X266907142Y-52368152D01*
X266907142Y-52368152D02*
X266859523Y-52463390D01*
X266859523Y-52463390D02*
X266811904Y-52511009D01*
X266811904Y-52511009D02*
X266716666Y-52558628D01*
X266716666Y-52558628D02*
X266335714Y-52558628D01*
X267859523Y-53034819D02*
X267288095Y-53034819D01*
X267573809Y-53034819D02*
X267573809Y-52034819D01*
X267573809Y-52034819D02*
X267478571Y-52177676D01*
X267478571Y-52177676D02*
X267383333Y-52272914D01*
X267383333Y-52272914D02*
X267288095Y-52320533D01*
X268430952Y-52463390D02*
X268335714Y-52415771D01*
X268335714Y-52415771D02*
X268288095Y-52368152D01*
X268288095Y-52368152D02*
X268240476Y-52272914D01*
X268240476Y-52272914D02*
X268240476Y-52225295D01*
X268240476Y-52225295D02*
X268288095Y-52130057D01*
X268288095Y-52130057D02*
X268335714Y-52082438D01*
X268335714Y-52082438D02*
X268430952Y-52034819D01*
X268430952Y-52034819D02*
X268621428Y-52034819D01*
X268621428Y-52034819D02*
X268716666Y-52082438D01*
X268716666Y-52082438D02*
X268764285Y-52130057D01*
X268764285Y-52130057D02*
X268811904Y-52225295D01*
X268811904Y-52225295D02*
X268811904Y-52272914D01*
X268811904Y-52272914D02*
X268764285Y-52368152D01*
X268764285Y-52368152D02*
X268716666Y-52415771D01*
X268716666Y-52415771D02*
X268621428Y-52463390D01*
X268621428Y-52463390D02*
X268430952Y-52463390D01*
X268430952Y-52463390D02*
X268335714Y-52511009D01*
X268335714Y-52511009D02*
X268288095Y-52558628D01*
X268288095Y-52558628D02*
X268240476Y-52653866D01*
X268240476Y-52653866D02*
X268240476Y-52844342D01*
X268240476Y-52844342D02*
X268288095Y-52939580D01*
X268288095Y-52939580D02*
X268335714Y-52987200D01*
X268335714Y-52987200D02*
X268430952Y-53034819D01*
X268430952Y-53034819D02*
X268621428Y-53034819D01*
X268621428Y-53034819D02*
X268716666Y-52987200D01*
X268716666Y-52987200D02*
X268764285Y-52939580D01*
X268764285Y-52939580D02*
X268811904Y-52844342D01*
X268811904Y-52844342D02*
X268811904Y-52653866D01*
X268811904Y-52653866D02*
X268764285Y-52558628D01*
X268764285Y-52558628D02*
X268716666Y-52511009D01*
X268716666Y-52511009D02*
X268621428Y-52463390D01*
X266335714Y-63194819D02*
X266335714Y-62194819D01*
X266335714Y-62194819D02*
X266716666Y-62194819D01*
X266716666Y-62194819D02*
X266811904Y-62242438D01*
X266811904Y-62242438D02*
X266859523Y-62290057D01*
X266859523Y-62290057D02*
X266907142Y-62385295D01*
X266907142Y-62385295D02*
X266907142Y-62528152D01*
X266907142Y-62528152D02*
X266859523Y-62623390D01*
X266859523Y-62623390D02*
X266811904Y-62671009D01*
X266811904Y-62671009D02*
X266716666Y-62718628D01*
X266716666Y-62718628D02*
X266335714Y-62718628D01*
X267859523Y-63194819D02*
X267288095Y-63194819D01*
X267573809Y-63194819D02*
X267573809Y-62194819D01*
X267573809Y-62194819D02*
X267478571Y-62337676D01*
X267478571Y-62337676D02*
X267383333Y-62432914D01*
X267383333Y-62432914D02*
X267288095Y-62480533D01*
X268478571Y-62194819D02*
X268573809Y-62194819D01*
X268573809Y-62194819D02*
X268669047Y-62242438D01*
X268669047Y-62242438D02*
X268716666Y-62290057D01*
X268716666Y-62290057D02*
X268764285Y-62385295D01*
X268764285Y-62385295D02*
X268811904Y-62575771D01*
X268811904Y-62575771D02*
X268811904Y-62813866D01*
X268811904Y-62813866D02*
X268764285Y-63004342D01*
X268764285Y-63004342D02*
X268716666Y-63099580D01*
X268716666Y-63099580D02*
X268669047Y-63147200D01*
X268669047Y-63147200D02*
X268573809Y-63194819D01*
X268573809Y-63194819D02*
X268478571Y-63194819D01*
X268478571Y-63194819D02*
X268383333Y-63147200D01*
X268383333Y-63147200D02*
X268335714Y-63099580D01*
X268335714Y-63099580D02*
X268288095Y-63004342D01*
X268288095Y-63004342D02*
X268240476Y-62813866D01*
X268240476Y-62813866D02*
X268240476Y-62575771D01*
X268240476Y-62575771D02*
X268288095Y-62385295D01*
X268288095Y-62385295D02*
X268335714Y-62290057D01*
X268335714Y-62290057D02*
X268383333Y-62242438D01*
X268383333Y-62242438D02*
X268478571Y-62194819D01*
X267002380Y-40334819D02*
X266669047Y-39858628D01*
X266430952Y-40334819D02*
X266430952Y-39334819D01*
X266430952Y-39334819D02*
X266811904Y-39334819D01*
X266811904Y-39334819D02*
X266907142Y-39382438D01*
X266907142Y-39382438D02*
X266954761Y-39430057D01*
X266954761Y-39430057D02*
X267002380Y-39525295D01*
X267002380Y-39525295D02*
X267002380Y-39668152D01*
X267002380Y-39668152D02*
X266954761Y-39763390D01*
X266954761Y-39763390D02*
X266907142Y-39811009D01*
X266907142Y-39811009D02*
X266811904Y-39858628D01*
X266811904Y-39858628D02*
X266430952Y-39858628D01*
X267383333Y-40287200D02*
X267526190Y-40334819D01*
X267526190Y-40334819D02*
X267764285Y-40334819D01*
X267764285Y-40334819D02*
X267859523Y-40287200D01*
X267859523Y-40287200D02*
X267907142Y-40239580D01*
X267907142Y-40239580D02*
X267954761Y-40144342D01*
X267954761Y-40144342D02*
X267954761Y-40049104D01*
X267954761Y-40049104D02*
X267907142Y-39953866D01*
X267907142Y-39953866D02*
X267859523Y-39906247D01*
X267859523Y-39906247D02*
X267764285Y-39858628D01*
X267764285Y-39858628D02*
X267573809Y-39811009D01*
X267573809Y-39811009D02*
X267478571Y-39763390D01*
X267478571Y-39763390D02*
X267430952Y-39715771D01*
X267430952Y-39715771D02*
X267383333Y-39620533D01*
X267383333Y-39620533D02*
X267383333Y-39525295D01*
X267383333Y-39525295D02*
X267430952Y-39430057D01*
X267430952Y-39430057D02*
X267478571Y-39382438D01*
X267478571Y-39382438D02*
X267573809Y-39334819D01*
X267573809Y-39334819D02*
X267811904Y-39334819D01*
X267811904Y-39334819D02*
X267954761Y-39382438D01*
X268240476Y-39334819D02*
X268811904Y-39334819D01*
X268526190Y-40334819D02*
X268526190Y-39334819D01*
X270301905Y-37794819D02*
X270301905Y-36794819D01*
X270301905Y-36794819D02*
X270682857Y-36794819D01*
X270682857Y-36794819D02*
X270778095Y-36842438D01*
X270778095Y-36842438D02*
X270825714Y-36890057D01*
X270825714Y-36890057D02*
X270873333Y-36985295D01*
X270873333Y-36985295D02*
X270873333Y-37128152D01*
X270873333Y-37128152D02*
X270825714Y-37223390D01*
X270825714Y-37223390D02*
X270778095Y-37271009D01*
X270778095Y-37271009D02*
X270682857Y-37318628D01*
X270682857Y-37318628D02*
X270301905Y-37318628D01*
X271492381Y-36794819D02*
X271587619Y-36794819D01*
X271587619Y-36794819D02*
X271682857Y-36842438D01*
X271682857Y-36842438D02*
X271730476Y-36890057D01*
X271730476Y-36890057D02*
X271778095Y-36985295D01*
X271778095Y-36985295D02*
X271825714Y-37175771D01*
X271825714Y-37175771D02*
X271825714Y-37413866D01*
X271825714Y-37413866D02*
X271778095Y-37604342D01*
X271778095Y-37604342D02*
X271730476Y-37699580D01*
X271730476Y-37699580D02*
X271682857Y-37747200D01*
X271682857Y-37747200D02*
X271587619Y-37794819D01*
X271587619Y-37794819D02*
X271492381Y-37794819D01*
X271492381Y-37794819D02*
X271397143Y-37747200D01*
X271397143Y-37747200D02*
X271349524Y-37699580D01*
X271349524Y-37699580D02*
X271301905Y-37604342D01*
X271301905Y-37604342D02*
X271254286Y-37413866D01*
X271254286Y-37413866D02*
X271254286Y-37175771D01*
X271254286Y-37175771D02*
X271301905Y-36985295D01*
X271301905Y-36985295D02*
X271349524Y-36890057D01*
X271349524Y-36890057D02*
X271397143Y-36842438D01*
X271397143Y-36842438D02*
X271492381Y-36794819D01*
X270301905Y-60654819D02*
X270301905Y-59654819D01*
X270301905Y-59654819D02*
X270682857Y-59654819D01*
X270682857Y-59654819D02*
X270778095Y-59702438D01*
X270778095Y-59702438D02*
X270825714Y-59750057D01*
X270825714Y-59750057D02*
X270873333Y-59845295D01*
X270873333Y-59845295D02*
X270873333Y-59988152D01*
X270873333Y-59988152D02*
X270825714Y-60083390D01*
X270825714Y-60083390D02*
X270778095Y-60131009D01*
X270778095Y-60131009D02*
X270682857Y-60178628D01*
X270682857Y-60178628D02*
X270301905Y-60178628D01*
X271444762Y-60083390D02*
X271349524Y-60035771D01*
X271349524Y-60035771D02*
X271301905Y-59988152D01*
X271301905Y-59988152D02*
X271254286Y-59892914D01*
X271254286Y-59892914D02*
X271254286Y-59845295D01*
X271254286Y-59845295D02*
X271301905Y-59750057D01*
X271301905Y-59750057D02*
X271349524Y-59702438D01*
X271349524Y-59702438D02*
X271444762Y-59654819D01*
X271444762Y-59654819D02*
X271635238Y-59654819D01*
X271635238Y-59654819D02*
X271730476Y-59702438D01*
X271730476Y-59702438D02*
X271778095Y-59750057D01*
X271778095Y-59750057D02*
X271825714Y-59845295D01*
X271825714Y-59845295D02*
X271825714Y-59892914D01*
X271825714Y-59892914D02*
X271778095Y-59988152D01*
X271778095Y-59988152D02*
X271730476Y-60035771D01*
X271730476Y-60035771D02*
X271635238Y-60083390D01*
X271635238Y-60083390D02*
X271444762Y-60083390D01*
X271444762Y-60083390D02*
X271349524Y-60131009D01*
X271349524Y-60131009D02*
X271301905Y-60178628D01*
X271301905Y-60178628D02*
X271254286Y-60273866D01*
X271254286Y-60273866D02*
X271254286Y-60464342D01*
X271254286Y-60464342D02*
X271301905Y-60559580D01*
X271301905Y-60559580D02*
X271349524Y-60607200D01*
X271349524Y-60607200D02*
X271444762Y-60654819D01*
X271444762Y-60654819D02*
X271635238Y-60654819D01*
X271635238Y-60654819D02*
X271730476Y-60607200D01*
X271730476Y-60607200D02*
X271778095Y-60559580D01*
X271778095Y-60559580D02*
X271825714Y-60464342D01*
X271825714Y-60464342D02*
X271825714Y-60273866D01*
X271825714Y-60273866D02*
X271778095Y-60178628D01*
X271778095Y-60178628D02*
X271730476Y-60131009D01*
X271730476Y-60131009D02*
X271635238Y-60083390D01*
X269688095Y-39382438D02*
X269592857Y-39334819D01*
X269592857Y-39334819D02*
X269450000Y-39334819D01*
X269450000Y-39334819D02*
X269307143Y-39382438D01*
X269307143Y-39382438D02*
X269211905Y-39477676D01*
X269211905Y-39477676D02*
X269164286Y-39572914D01*
X269164286Y-39572914D02*
X269116667Y-39763390D01*
X269116667Y-39763390D02*
X269116667Y-39906247D01*
X269116667Y-39906247D02*
X269164286Y-40096723D01*
X269164286Y-40096723D02*
X269211905Y-40191961D01*
X269211905Y-40191961D02*
X269307143Y-40287200D01*
X269307143Y-40287200D02*
X269450000Y-40334819D01*
X269450000Y-40334819D02*
X269545238Y-40334819D01*
X269545238Y-40334819D02*
X269688095Y-40287200D01*
X269688095Y-40287200D02*
X269735714Y-40239580D01*
X269735714Y-40239580D02*
X269735714Y-39906247D01*
X269735714Y-39906247D02*
X269545238Y-39906247D01*
X270164286Y-40334819D02*
X270164286Y-39334819D01*
X270164286Y-39334819D02*
X270735714Y-40334819D01*
X270735714Y-40334819D02*
X270735714Y-39334819D01*
X271211905Y-40334819D02*
X271211905Y-39334819D01*
X271211905Y-39334819D02*
X271450000Y-39334819D01*
X271450000Y-39334819D02*
X271592857Y-39382438D01*
X271592857Y-39382438D02*
X271688095Y-39477676D01*
X271688095Y-39477676D02*
X271735714Y-39572914D01*
X271735714Y-39572914D02*
X271783333Y-39763390D01*
X271783333Y-39763390D02*
X271783333Y-39906247D01*
X271783333Y-39906247D02*
X271735714Y-40096723D01*
X271735714Y-40096723D02*
X271688095Y-40191961D01*
X271688095Y-40191961D02*
X271592857Y-40287200D01*
X271592857Y-40287200D02*
X271450000Y-40334819D01*
X271450000Y-40334819D02*
X271211905Y-40334819D01*
X266859523Y-35254819D02*
X266526190Y-34778628D01*
X266288095Y-35254819D02*
X266288095Y-34254819D01*
X266288095Y-34254819D02*
X266669047Y-34254819D01*
X266669047Y-34254819D02*
X266764285Y-34302438D01*
X266764285Y-34302438D02*
X266811904Y-34350057D01*
X266811904Y-34350057D02*
X266859523Y-34445295D01*
X266859523Y-34445295D02*
X266859523Y-34588152D01*
X266859523Y-34588152D02*
X266811904Y-34683390D01*
X266811904Y-34683390D02*
X266764285Y-34731009D01*
X266764285Y-34731009D02*
X266669047Y-34778628D01*
X266669047Y-34778628D02*
X266288095Y-34778628D01*
X267240476Y-34969104D02*
X267716666Y-34969104D01*
X267145238Y-35254819D02*
X267478571Y-34254819D01*
X267478571Y-34254819D02*
X267811904Y-35254819D01*
X268050000Y-34254819D02*
X268288095Y-35254819D01*
X268288095Y-35254819D02*
X268478571Y-34540533D01*
X268478571Y-34540533D02*
X268669047Y-35254819D01*
X268669047Y-35254819D02*
X268907143Y-34254819D01*
X270301905Y-58114819D02*
X270301905Y-57114819D01*
X270301905Y-57114819D02*
X270682857Y-57114819D01*
X270682857Y-57114819D02*
X270778095Y-57162438D01*
X270778095Y-57162438D02*
X270825714Y-57210057D01*
X270825714Y-57210057D02*
X270873333Y-57305295D01*
X270873333Y-57305295D02*
X270873333Y-57448152D01*
X270873333Y-57448152D02*
X270825714Y-57543390D01*
X270825714Y-57543390D02*
X270778095Y-57591009D01*
X270778095Y-57591009D02*
X270682857Y-57638628D01*
X270682857Y-57638628D02*
X270301905Y-57638628D01*
X271206667Y-57114819D02*
X271873333Y-57114819D01*
X271873333Y-57114819D02*
X271444762Y-58114819D01*
X270301905Y-50494819D02*
X270301905Y-49494819D01*
X270301905Y-49494819D02*
X270682857Y-49494819D01*
X270682857Y-49494819D02*
X270778095Y-49542438D01*
X270778095Y-49542438D02*
X270825714Y-49590057D01*
X270825714Y-49590057D02*
X270873333Y-49685295D01*
X270873333Y-49685295D02*
X270873333Y-49828152D01*
X270873333Y-49828152D02*
X270825714Y-49923390D01*
X270825714Y-49923390D02*
X270778095Y-49971009D01*
X270778095Y-49971009D02*
X270682857Y-50018628D01*
X270682857Y-50018628D02*
X270301905Y-50018628D01*
X271730476Y-49828152D02*
X271730476Y-50494819D01*
X271492381Y-49447200D02*
X271254286Y-50161485D01*
X271254286Y-50161485D02*
X271873333Y-50161485D01*
X270301905Y-35254819D02*
X270301905Y-34254819D01*
X270301905Y-34254819D02*
X270682857Y-34254819D01*
X270682857Y-34254819D02*
X270778095Y-34302438D01*
X270778095Y-34302438D02*
X270825714Y-34350057D01*
X270825714Y-34350057D02*
X270873333Y-34445295D01*
X270873333Y-34445295D02*
X270873333Y-34588152D01*
X270873333Y-34588152D02*
X270825714Y-34683390D01*
X270825714Y-34683390D02*
X270778095Y-34731009D01*
X270778095Y-34731009D02*
X270682857Y-34778628D01*
X270682857Y-34778628D02*
X270301905Y-34778628D01*
X271825714Y-35254819D02*
X271254286Y-35254819D01*
X271540000Y-35254819D02*
X271540000Y-34254819D01*
X271540000Y-34254819D02*
X271444762Y-34397676D01*
X271444762Y-34397676D02*
X271349524Y-34492914D01*
X271349524Y-34492914D02*
X271254286Y-34540533D01*
X266335714Y-45414819D02*
X266335714Y-44414819D01*
X266335714Y-44414819D02*
X266716666Y-44414819D01*
X266716666Y-44414819D02*
X266811904Y-44462438D01*
X266811904Y-44462438D02*
X266859523Y-44510057D01*
X266859523Y-44510057D02*
X266907142Y-44605295D01*
X266907142Y-44605295D02*
X266907142Y-44748152D01*
X266907142Y-44748152D02*
X266859523Y-44843390D01*
X266859523Y-44843390D02*
X266811904Y-44891009D01*
X266811904Y-44891009D02*
X266716666Y-44938628D01*
X266716666Y-44938628D02*
X266335714Y-44938628D01*
X267288095Y-44510057D02*
X267335714Y-44462438D01*
X267335714Y-44462438D02*
X267430952Y-44414819D01*
X267430952Y-44414819D02*
X267669047Y-44414819D01*
X267669047Y-44414819D02*
X267764285Y-44462438D01*
X267764285Y-44462438D02*
X267811904Y-44510057D01*
X267811904Y-44510057D02*
X267859523Y-44605295D01*
X267859523Y-44605295D02*
X267859523Y-44700533D01*
X267859523Y-44700533D02*
X267811904Y-44843390D01*
X267811904Y-44843390D02*
X267240476Y-45414819D01*
X267240476Y-45414819D02*
X267859523Y-45414819D01*
X268811904Y-45414819D02*
X268240476Y-45414819D01*
X268526190Y-45414819D02*
X268526190Y-44414819D01*
X268526190Y-44414819D02*
X268430952Y-44557676D01*
X268430952Y-44557676D02*
X268335714Y-44652914D01*
X268335714Y-44652914D02*
X268240476Y-44700533D01*
D11*
%TO.C,D9*%
X168250000Y-59000000D02*
X168650000Y-59000000D01*
X168650000Y-59000000D02*
X168650000Y-58450000D01*
X168650000Y-59000000D02*
X168650000Y-59550000D01*
X168650000Y-59000000D02*
X169250000Y-58600000D01*
X169250000Y-58600000D02*
X169250000Y-59400000D01*
X169250000Y-59000000D02*
X169750000Y-59000000D01*
X169250000Y-59400000D02*
X168650000Y-59000000D01*
%TO.C,D20*%
X225250000Y-108500000D02*
X225650000Y-108500000D01*
X225650000Y-108500000D02*
X225650000Y-107950000D01*
X225650000Y-108500000D02*
X225650000Y-109050000D01*
X225650000Y-108500000D02*
X226250000Y-108100000D01*
X226250000Y-108100000D02*
X226250000Y-108900000D01*
X226250000Y-108500000D02*
X226750000Y-108500000D01*
X226250000Y-108900000D02*
X225650000Y-108500000D01*
%TO.C,D3*%
X149250000Y-78000000D02*
X149650000Y-78000000D01*
X149650000Y-78000000D02*
X149650000Y-77450000D01*
X149650000Y-78000000D02*
X149650000Y-78550000D01*
X149650000Y-78000000D02*
X150250000Y-77600000D01*
X150250000Y-77600000D02*
X150250000Y-78400000D01*
X150250000Y-78000000D02*
X150750000Y-78000000D01*
X150250000Y-78400000D02*
X149650000Y-78000000D01*
%TO.C,D28*%
X225400609Y-142740137D02*
X225799635Y-142712235D01*
X225799635Y-142712235D02*
X225761269Y-142163575D01*
X225799635Y-142712235D02*
X225838001Y-143260895D01*
X225799635Y-142712235D02*
X226370270Y-142271355D01*
X226370270Y-142271355D02*
X226426076Y-143069407D01*
X226398173Y-142670381D02*
X226896955Y-142635503D01*
X226426076Y-143069407D02*
X225799635Y-142712235D01*
%TO.C,D25*%
X244250000Y-91500000D02*
X244650000Y-91500000D01*
X244650000Y-91500000D02*
X244650000Y-90950000D01*
X244650000Y-91500000D02*
X244650000Y-92050000D01*
X244650000Y-91500000D02*
X245250000Y-91100000D01*
X245250000Y-91100000D02*
X245250000Y-91900000D01*
X245250000Y-91500000D02*
X245750000Y-91500000D01*
X245250000Y-91900000D02*
X244650000Y-91500000D01*
%TO.C,D27*%
X244250000Y-53500000D02*
X244650000Y-53500000D01*
X244650000Y-53500000D02*
X244650000Y-52950000D01*
X244650000Y-53500000D02*
X244650000Y-54050000D01*
X244650000Y-53500000D02*
X245250000Y-53100000D01*
X245250000Y-53100000D02*
X245250000Y-53900000D01*
X245250000Y-53500000D02*
X245750000Y-53500000D01*
X245250000Y-53900000D02*
X244650000Y-53500000D01*
%TO.C,D2*%
X149250000Y-97000000D02*
X149650000Y-97000000D01*
X149650000Y-97000000D02*
X149650000Y-96450000D01*
X149650000Y-97000000D02*
X149650000Y-97550000D01*
X149650000Y-97000000D02*
X150250000Y-96600000D01*
X150250000Y-96600000D02*
X150250000Y-97400000D01*
X150250000Y-97000000D02*
X150750000Y-97000000D01*
X150250000Y-97400000D02*
X149650000Y-97000000D01*
%TO.C,D24*%
X244250000Y-110500000D02*
X244650000Y-110500000D01*
X244650000Y-110500000D02*
X244650000Y-109950000D01*
X244650000Y-110500000D02*
X244650000Y-111050000D01*
X244650000Y-110500000D02*
X245250000Y-110100000D01*
X245250000Y-110100000D02*
X245250000Y-110900000D01*
X245250000Y-110500000D02*
X245750000Y-110500000D01*
X245250000Y-110900000D02*
X244650000Y-110500000D01*
%TO.C,D19*%
X206250000Y-48500000D02*
X206650000Y-48500000D01*
X206650000Y-48500000D02*
X206650000Y-47950000D01*
X206650000Y-48500000D02*
X206650000Y-49050000D01*
X206650000Y-48500000D02*
X207250000Y-48100000D01*
X207250000Y-48100000D02*
X207250000Y-48900000D01*
X207250000Y-48500000D02*
X207750000Y-48500000D01*
X207250000Y-48900000D02*
X206650000Y-48500000D01*
%TO.C,D11*%
X187250000Y-108500000D02*
X187650000Y-108500000D01*
X187650000Y-108500000D02*
X187650000Y-107950000D01*
X187650000Y-108500000D02*
X187650000Y-109050000D01*
X187650000Y-108500000D02*
X188250000Y-108100000D01*
X188250000Y-108100000D02*
X188250000Y-108900000D01*
X188250000Y-108500000D02*
X188750000Y-108500000D01*
X188250000Y-108900000D02*
X187650000Y-108500000D01*
%TO.C,D10*%
X187250000Y-127500000D02*
X187650000Y-127500000D01*
X187650000Y-127500000D02*
X187650000Y-126950000D01*
X187650000Y-127500000D02*
X187650000Y-128050000D01*
X187650000Y-127500000D02*
X188250000Y-127100000D01*
X188250000Y-127100000D02*
X188250000Y-127900000D01*
X188250000Y-127500000D02*
X188750000Y-127500000D01*
X188250000Y-127900000D02*
X187650000Y-127500000D01*
%TO.C,D7*%
X168250000Y-97000000D02*
X168650000Y-97000000D01*
X168650000Y-97000000D02*
X168650000Y-96450000D01*
X168650000Y-97000000D02*
X168650000Y-97550000D01*
X168650000Y-97000000D02*
X169250000Y-96600000D01*
X169250000Y-96600000D02*
X169250000Y-97400000D01*
X169250000Y-97000000D02*
X169750000Y-97000000D01*
X169250000Y-97400000D02*
X168650000Y-97000000D01*
%TO.C,D6*%
X168250000Y-116000000D02*
X168650000Y-116000000D01*
X168650000Y-116000000D02*
X168650000Y-115450000D01*
X168650000Y-116000000D02*
X168650000Y-116550000D01*
X168650000Y-116000000D02*
X169250000Y-115600000D01*
X169250000Y-115600000D02*
X169250000Y-116400000D01*
X169250000Y-116000000D02*
X169750000Y-116000000D01*
X169250000Y-116400000D02*
X168650000Y-116000000D01*
%TO.C,D8*%
X168250000Y-78000000D02*
X168650000Y-78000000D01*
X168650000Y-78000000D02*
X168650000Y-77450000D01*
X168650000Y-78000000D02*
X168650000Y-78550000D01*
X168650000Y-78000000D02*
X169250000Y-77600000D01*
X169250000Y-77600000D02*
X169250000Y-78400000D01*
X169250000Y-78000000D02*
X169750000Y-78000000D01*
X169250000Y-78400000D02*
X168650000Y-78000000D01*
%TO.C,D13*%
X187250000Y-70500000D02*
X187650000Y-70500000D01*
X187650000Y-70500000D02*
X187650000Y-69950000D01*
X187650000Y-70500000D02*
X187650000Y-71050000D01*
X187650000Y-70500000D02*
X188250000Y-70100000D01*
X188250000Y-70100000D02*
X188250000Y-70900000D01*
X188250000Y-70500000D02*
X188750000Y-70500000D01*
X188250000Y-70900000D02*
X187650000Y-70500000D01*
%TO.C,D1*%
X149250000Y-116000000D02*
X149650000Y-116000000D01*
X149650000Y-116000000D02*
X149650000Y-115450000D01*
X149650000Y-116000000D02*
X149650000Y-116550000D01*
X149650000Y-116000000D02*
X150250000Y-115600000D01*
X150250000Y-115600000D02*
X150250000Y-116400000D01*
X150250000Y-116000000D02*
X150750000Y-116000000D01*
X150250000Y-116400000D02*
X149650000Y-116000000D01*
D12*
%TO.C,PWR1*%
X246550000Y-32085000D02*
X246550000Y-32875000D01*
X248600000Y-33925000D02*
X248400000Y-33925000D01*
X251600000Y-33925000D02*
X249900000Y-33925000D01*
X252850000Y-31075000D02*
X247150000Y-31075000D01*
X253450000Y-32875000D02*
X253450000Y-32085000D01*
D11*
%TO.C,D18*%
X206250000Y-67500000D02*
X206650000Y-67500000D01*
X206650000Y-67500000D02*
X206650000Y-66950000D01*
X206650000Y-67500000D02*
X206650000Y-68050000D01*
X206650000Y-67500000D02*
X207250000Y-67100000D01*
X207250000Y-67100000D02*
X207250000Y-67900000D01*
X207250000Y-67500000D02*
X207750000Y-67500000D01*
X207250000Y-67900000D02*
X206650000Y-67500000D01*
%TO.C,D29*%
X245309407Y-146228241D02*
X245682839Y-146371588D01*
X245682839Y-146371588D02*
X245485736Y-146885057D01*
X245682839Y-146371588D02*
X245879941Y-145858119D01*
X245682839Y-146371588D02*
X246386334Y-146213177D01*
X246099640Y-146960041D02*
X245682839Y-146371588D01*
X246242987Y-146586609D02*
X246709777Y-146765793D01*
X246386334Y-146213177D02*
X246099640Y-146960041D01*
%TO.C,D30*%
X261858707Y-157732218D02*
X262178162Y-157972944D01*
X262178162Y-157972944D02*
X261847163Y-158412193D01*
X262178162Y-157972944D02*
X262509160Y-157533694D01*
X262178162Y-157972944D02*
X262898069Y-158014579D01*
X262416617Y-158653487D02*
X262178162Y-157972944D01*
X262657343Y-158334033D02*
X263056661Y-158634940D01*
X262898069Y-158014579D02*
X262416617Y-158653487D01*
%TO.C,D4*%
X149250000Y-59000000D02*
X149650000Y-59000000D01*
X149650000Y-59000000D02*
X149650000Y-58450000D01*
X149650000Y-59000000D02*
X149650000Y-59550000D01*
X149650000Y-59000000D02*
X150250000Y-58600000D01*
X150250000Y-58600000D02*
X150250000Y-59400000D01*
X150250000Y-59000000D02*
X150750000Y-59000000D01*
X150250000Y-59400000D02*
X149650000Y-59000000D01*
%TO.C,D5*%
X168250000Y-135000000D02*
X168650000Y-135000000D01*
X168650000Y-135000000D02*
X168650000Y-134450000D01*
X168650000Y-135000000D02*
X168650000Y-135550000D01*
X168650000Y-135000000D02*
X169250000Y-134600000D01*
X169250000Y-134600000D02*
X169250000Y-135400000D01*
X169250000Y-135000000D02*
X169750000Y-135000000D01*
X169250000Y-135400000D02*
X168650000Y-135000000D01*
%TO.C,D23*%
X225250000Y-51500000D02*
X225650000Y-51500000D01*
X225650000Y-51500000D02*
X225650000Y-50950000D01*
X225650000Y-51500000D02*
X225650000Y-52050000D01*
X225650000Y-51500000D02*
X226250000Y-51100000D01*
X226250000Y-51100000D02*
X226250000Y-51900000D01*
X226250000Y-51500000D02*
X226750000Y-51500000D01*
X226250000Y-51900000D02*
X225650000Y-51500000D01*
%TO.C,D26*%
X244250000Y-72500000D02*
X244650000Y-72500000D01*
X244650000Y-72500000D02*
X244650000Y-71950000D01*
X244650000Y-72500000D02*
X244650000Y-73050000D01*
X244650000Y-72500000D02*
X245250000Y-72100000D01*
X245250000Y-72100000D02*
X245250000Y-72900000D01*
X245250000Y-72500000D02*
X245750000Y-72500000D01*
X245250000Y-72900000D02*
X244650000Y-72500000D01*
%TO.C,D12*%
X187250000Y-89500000D02*
X187650000Y-89500000D01*
X187650000Y-89500000D02*
X187650000Y-88950000D01*
X187650000Y-89500000D02*
X187650000Y-90050000D01*
X187650000Y-89500000D02*
X188250000Y-89100000D01*
X188250000Y-89100000D02*
X188250000Y-89900000D01*
X188250000Y-89500000D02*
X188750000Y-89500000D01*
X188250000Y-89900000D02*
X187650000Y-89500000D01*
%TO.C,D21*%
X225250000Y-89500000D02*
X225650000Y-89500000D01*
X225650000Y-89500000D02*
X225650000Y-88950000D01*
X225650000Y-89500000D02*
X225650000Y-90050000D01*
X225650000Y-89500000D02*
X226250000Y-89100000D01*
X226250000Y-89100000D02*
X226250000Y-89900000D01*
X226250000Y-89500000D02*
X226750000Y-89500000D01*
X226250000Y-89900000D02*
X225650000Y-89500000D01*
D12*
%TO.C,MCU1*%
X260050000Y-33470000D02*
X260050000Y-64070000D01*
X260050000Y-33470000D02*
X262710000Y-33470000D01*
X260050000Y-64070000D02*
X262710000Y-64070000D01*
X262710000Y-33470000D02*
X262710000Y-64070000D01*
X275290000Y-33470000D02*
X275290000Y-64070000D01*
X275290000Y-33470000D02*
X277950000Y-33470000D01*
X275290000Y-36070000D02*
X277950000Y-36070000D01*
X275290000Y-64070000D02*
X277950000Y-64070000D01*
X277950000Y-33470000D02*
X277950000Y-64070000D01*
D11*
%TO.C,JST1*%
X268600000Y-107000000D02*
X268600000Y-108000000D01*
X268600000Y-110000000D02*
X268600000Y-109000000D01*
X269100000Y-109500000D02*
X268100000Y-109500000D01*
D12*
X269640000Y-105440000D02*
X270640000Y-105440000D01*
X269640000Y-106360000D02*
X269640000Y-105440000D01*
X269640000Y-110640000D02*
X269640000Y-111560000D01*
X269640000Y-111560000D02*
X270640000Y-111560000D01*
X277460000Y-105440000D02*
X276460000Y-105440000D01*
X277460000Y-106440000D02*
X277460000Y-105440000D01*
X277460000Y-110640000D02*
X277460000Y-111560000D01*
X277460000Y-111560000D02*
X276460000Y-111560000D01*
D11*
%TO.C,D17*%
X206250000Y-86500000D02*
X206650000Y-86500000D01*
X206650000Y-86500000D02*
X206650000Y-85950000D01*
X206650000Y-86500000D02*
X206650000Y-87050000D01*
X206650000Y-86500000D02*
X207250000Y-86100000D01*
X207250000Y-86100000D02*
X207250000Y-86900000D01*
X207250000Y-86500000D02*
X207750000Y-86500000D01*
X207250000Y-86900000D02*
X206650000Y-86500000D01*
%TO.C,D22*%
X225250000Y-70500000D02*
X225650000Y-70500000D01*
X225650000Y-70500000D02*
X225650000Y-69950000D01*
X225650000Y-70500000D02*
X225650000Y-71050000D01*
X225650000Y-70500000D02*
X226250000Y-70100000D01*
X226250000Y-70100000D02*
X226250000Y-70900000D01*
X226250000Y-70500000D02*
X226750000Y-70500000D01*
X226250000Y-70900000D02*
X225650000Y-70500000D01*
%TO.C,D16*%
X206250000Y-105500000D02*
X206650000Y-105500000D01*
X206650000Y-105500000D02*
X206650000Y-104950000D01*
X206650000Y-105500000D02*
X206650000Y-106050000D01*
X206650000Y-105500000D02*
X207250000Y-105100000D01*
X207250000Y-105100000D02*
X207250000Y-105900000D01*
X207250000Y-105500000D02*
X207750000Y-105500000D01*
X207250000Y-105900000D02*
X206650000Y-105500000D01*
%TO.C,D15*%
X206250000Y-124500000D02*
X206650000Y-124500000D01*
X206650000Y-124500000D02*
X206650000Y-123950000D01*
X206650000Y-124500000D02*
X206650000Y-125050000D01*
X206650000Y-124500000D02*
X207250000Y-124100000D01*
X207250000Y-124100000D02*
X207250000Y-124900000D01*
X207250000Y-124500000D02*
X207750000Y-124500000D01*
X207250000Y-124900000D02*
X206650000Y-124500000D01*
%TO.C,D14*%
X187250000Y-51500000D02*
X187650000Y-51500000D01*
X187650000Y-51500000D02*
X187650000Y-50950000D01*
X187650000Y-51500000D02*
X187650000Y-52050000D01*
X187650000Y-51500000D02*
X188250000Y-51100000D01*
X188250000Y-51100000D02*
X188250000Y-51900000D01*
X188250000Y-51500000D02*
X188750000Y-51500000D01*
X188250000Y-51900000D02*
X187650000Y-51500000D01*
%TO.C,S13*%
X186780000Y-61730000D02*
X188000000Y-62980000D01*
X188000000Y-62980000D02*
X189880000Y-62980000D01*
%TO.C,S6*%
X167780000Y-107230000D02*
X169000000Y-108480000D01*
X169000000Y-108480000D02*
X170880000Y-108480000D01*
%TO.C,S4*%
X148780000Y-50230000D02*
X150000000Y-51480000D01*
X150000000Y-51480000D02*
X151880000Y-51480000D01*
%TO.C,S25*%
X243780000Y-82730000D02*
X245000000Y-83980000D01*
X245000000Y-83980000D02*
X246880000Y-83980000D01*
%TO.C,S27*%
X243780000Y-44730000D02*
X245000000Y-45980000D01*
X245000000Y-45980000D02*
X246880000Y-45980000D01*
%TO.C,S11*%
X186780000Y-99730000D02*
X188000000Y-100980000D01*
X188000000Y-100980000D02*
X189880000Y-100980000D01*
%TO.C,S1*%
X148780000Y-107230000D02*
X150000000Y-108480000D01*
X150000000Y-108480000D02*
X151880000Y-108480000D01*
%TO.C,S15*%
X205780000Y-115730000D02*
X207000000Y-116980000D01*
X207000000Y-116980000D02*
X208880000Y-116980000D01*
%TO.C,S3*%
X148780000Y-69230000D02*
X150000000Y-70480000D01*
X150000000Y-70480000D02*
X151880000Y-70480000D01*
%TO.C,S14*%
X186780000Y-42730000D02*
X188000000Y-43980000D01*
X188000000Y-43980000D02*
X189880000Y-43980000D01*
%TO.C,S30*%
X266761267Y-150445332D02*
X266983334Y-152177841D01*
X266983334Y-152177841D02*
X268484769Y-153309253D01*
%TO.C,S19*%
X205780000Y-39730000D02*
X207000000Y-40980000D01*
X207000000Y-40980000D02*
X208880000Y-40980000D01*
%TO.C,S22*%
X224780000Y-61730000D02*
X226000000Y-62980000D01*
X226000000Y-62980000D02*
X227880000Y-62980000D01*
%TO.C,S8*%
X167780000Y-69230000D02*
X169000000Y-70480000D01*
X169000000Y-70480000D02*
X170880000Y-70480000D01*
%TO.C,S5*%
X167780000Y-126230000D02*
X169000000Y-127480000D01*
X169000000Y-127480000D02*
X170880000Y-127480000D01*
%TO.C,S28*%
X224319990Y-134024286D02*
X225624214Y-135186139D01*
X225624214Y-135186139D02*
X227499634Y-135054996D01*
%TO.C,S2*%
X148780000Y-88230000D02*
X150000000Y-89480000D01*
X150000000Y-89480000D02*
X151880000Y-89480000D01*
%TO.C,S23*%
X224780000Y-42730000D02*
X226000000Y-43980000D01*
X226000000Y-43980000D02*
X227880000Y-43980000D01*
%TO.C,S16*%
X205780000Y-96730000D02*
X207000000Y-97980000D01*
X207000000Y-97980000D02*
X208880000Y-97980000D01*
%TO.C,S12*%
X186780000Y-80730000D02*
X188000000Y-81980000D01*
X188000000Y-81980000D02*
X189880000Y-81980000D01*
%TO.C,S7*%
X167780000Y-88230000D02*
X169000000Y-89480000D01*
X169000000Y-89480000D02*
X170880000Y-89480000D01*
%TO.C,S21*%
X224780000Y-80730000D02*
X226000000Y-81980000D01*
X226000000Y-81980000D02*
X227880000Y-81980000D01*
%TO.C,S17*%
X205780000Y-77730000D02*
X207000000Y-78980000D01*
X207000000Y-78980000D02*
X208880000Y-78980000D01*
%TO.C,S29*%
X248013510Y-137872308D02*
X248704518Y-139476492D01*
X248704518Y-139476492D02*
X250459649Y-140150224D01*
%TO.C,S10*%
X186780000Y-118730000D02*
X188000000Y-119980000D01*
X188000000Y-119980000D02*
X189880000Y-119980000D01*
%TO.C,S20*%
X224780000Y-99730000D02*
X226000000Y-100980000D01*
X226000000Y-100980000D02*
X227880000Y-100980000D01*
%TO.C,S9*%
X167780000Y-50230000D02*
X169000000Y-51480000D01*
X169000000Y-51480000D02*
X170880000Y-51480000D01*
%TO.C,S24*%
X243780000Y-101730000D02*
X245000000Y-102980000D01*
X245000000Y-102980000D02*
X246880000Y-102980000D01*
%TO.C,S26*%
X243780000Y-63730000D02*
X245000000Y-64980000D01*
X245000000Y-64980000D02*
X246880000Y-64980000D01*
%TO.C,S18*%
X205780000Y-58730000D02*
X207000000Y-59980000D01*
X207000000Y-59980000D02*
X208880000Y-59980000D01*
%TD*%
M02*
