%TF.GenerationSoftware,KiCad,Pcbnew,9.0.1*%
%TF.CreationDate,2026-06-11T15:54:09+02:00*%
%TF.ProjectId,SkofBottomPlate,536b6f66-426f-4747-946f-6d506c617465,v1.0.0*%
%TF.SameCoordinates,Original*%
%TF.FileFunction,Soldermask,Bot*%
%TF.FilePolarity,Negative*%
%FSLAX46Y46*%
G04 Gerber Fmt 4.6, Leading zero omitted, Abs format (unit mm)*
G04 Created by KiCad (PCBNEW 9.0.1) date 2026-06-11 15:54:09*
%MOMM*%
%LPD*%
G01*
G04 APERTURE LIST*
G04 Aperture macros list*
%AMRoundRect*
0 Rectangle with rounded corners*
0 $1 Rounding radius*
0 $2 $3 $4 $5 $6 $7 $8 $9 X,Y pos of 4 corners*
0 Add a 4 corners polygon primitive as box body*
4,1,4,$2,$3,$4,$5,$6,$7,$8,$9,$2,$3,0*
0 Add four circle primitives for the rounded corners*
1,1,$1+$1,$2,$3*
1,1,$1+$1,$4,$5*
1,1,$1+$1,$6,$7*
1,1,$1+$1,$8,$9*
0 Add four rect primitives between the rounded corners*
20,1,$1+$1,$2,$3,$4,$5,0*
20,1,$1+$1,$4,$5,$6,$7,0*
20,1,$1+$1,$6,$7,$8,$9,0*
20,1,$1+$1,$8,$9,$2,$3,0*%
%AMFreePoly0*
4,1,16,-0.214645,0.660355,-0.210957,0.656235,0.289043,0.031235,0.299694,-0.005522,0.289043,-0.031235,-0.210957,-0.656235,-0.244478,-0.674694,-0.250000,-0.675000,-0.500000,-0.675000,-0.535355,-0.660355,-0.550000,-0.625000,-0.550000,0.625000,-0.535355,0.660355,-0.500000,0.675000,-0.250000,0.675000,-0.214645,0.660355,-0.214645,0.660355,$1*%
%AMFreePoly1*
4,1,16,0.535355,0.660355,0.550000,0.625000,0.550000,-0.625000,0.535355,-0.660355,0.500000,-0.675000,-0.650000,-0.675000,-0.685355,-0.660355,-0.700000,-0.625000,-0.689043,-0.593765,-0.214031,0.000000,-0.689043,0.593765,-0.699694,0.630522,-0.681235,0.664043,-0.650000,0.675000,0.500000,0.675000,0.535355,0.660355,0.535355,0.660355,$1*%
%AMFreePoly2*
4,1,16,0.635355,0.285355,0.650000,0.250000,0.650000,-1.000000,0.635355,-1.035355,0.600000,-1.050000,0.564645,-1.035355,0.000000,-0.470710,-0.564645,-1.035355,-0.600000,-1.050000,-0.635355,-1.035355,-0.650000,-1.000000,-0.650000,0.250000,-0.635355,0.285355,-0.600000,0.300000,0.600000,0.300000,0.635355,0.285355,0.635355,0.285355,$1*%
%AMFreePoly3*
4,1,14,0.035355,0.435355,0.635355,-0.164645,0.650000,-0.200000,0.650000,-0.400000,0.635355,-0.435355,0.600000,-0.450000,-0.600000,-0.450000,-0.635355,-0.435355,-0.650000,-0.400000,-0.650000,-0.200000,-0.635355,-0.164645,-0.035355,0.435355,0.000000,0.450000,0.035355,0.435355,0.035355,0.435355,$1*%
%AMFreePoly4*
4,1,14,1.310355,1.285355,1.325000,1.250000,1.325000,-1.250000,1.310355,-1.285355,1.275000,-1.300000,-0.775000,-1.300000,-0.810355,-1.285355,-1.310355,-0.785355,-1.325000,-0.750000,-1.325000,1.250000,-1.310355,1.285355,-1.275000,1.300000,1.275000,1.300000,1.310355,1.285355,1.310355,1.285355,$1*%
G04 Aperture macros list end*
%ADD10RoundRect,0.050000X-0.450000X-0.600000X0.450000X-0.600000X0.450000X0.600000X-0.450000X0.600000X0*%
%ADD11RoundRect,0.050000X-0.407050X-0.629929X0.490758X-0.567148X0.407050X0.629929X-0.490758X0.567148X0*%
%ADD12RoundRect,0.050000X-0.500000X-0.400000X0.500000X-0.400000X0.500000X0.400000X-0.500000X0.400000X0*%
%ADD13C,1.000000*%
%ADD14RoundRect,0.050000X-0.350000X-0.750000X0.350000X-0.750000X0.350000X0.750000X-0.350000X0.750000X0*%
%ADD15RoundRect,0.050000X-0.635132X-0.398883X0.205090X-0.721414X0.635132X0.398883X-0.205090X0.721414X0*%
%ADD16RoundRect,0.050000X-0.720475X-0.208365X-0.001703X-0.749998X0.720475X0.208365X0.001703X0.749998X0*%
%ADD17FreePoly0,180.000000*%
%ADD18C,1.800000*%
%ADD19FreePoly0,0.000000*%
%ADD20FreePoly1,0.000000*%
%ADD21C,0.900000*%
%ADD22FreePoly1,180.000000*%
%ADD23FreePoly2,90.000000*%
%ADD24O,1.850000X1.300000*%
%ADD25FreePoly3,90.000000*%
%ADD26C,2.000000*%
%ADD27C,3.100000*%
%ADD28C,4.200000*%
%ADD29RoundRect,0.050000X-1.275000X-1.250000X1.275000X-1.250000X1.275000X1.250000X-1.275000X1.250000X0*%
%ADD30FreePoly4,0.000000*%
%ADD31RoundRect,0.050000X-1.770529X-0.230980X0.265991X-1.765609X1.770529X0.230980X-0.265991X1.765609X0*%
%ADD32FreePoly4,323.000000*%
%ADD33RoundRect,0.050000X-1.184699X-1.335895X1.359090X-1.158016X1.184699X1.335895X-1.359090X1.158016X0*%
%ADD34FreePoly4,4.000000*%
%ADD35RoundRect,0.050000X-1.638275X-0.710056X0.742355X-1.623895X1.638275X0.710056X-0.742355X1.623895X0*%
%ADD36FreePoly4,339.000000*%
G04 APERTURE END LIST*
D10*
%TO.C,D9*%
X167350000Y-59000000D03*
X170650000Y-59000000D03*
%TD*%
%TO.C,D20*%
X224350000Y-108500000D03*
X227650000Y-108500000D03*
%TD*%
%TO.C,D3*%
X148350000Y-78000000D03*
X151650000Y-78000000D03*
%TD*%
D11*
%TO.C,D28*%
X224502801Y-142802918D03*
X227794763Y-142572722D03*
%TD*%
D10*
%TO.C,D25*%
X243350000Y-91500000D03*
X246650000Y-91500000D03*
%TD*%
%TO.C,D27*%
X243350000Y-53500000D03*
X246650000Y-53500000D03*
%TD*%
%TO.C,D2*%
X148350000Y-97000000D03*
X151650000Y-97000000D03*
%TD*%
%TO.C,D24*%
X243350000Y-110500000D03*
X246650000Y-110500000D03*
%TD*%
%TO.C,D19*%
X205350000Y-48500000D03*
X208650000Y-48500000D03*
%TD*%
%TO.C,D11*%
X186350000Y-108500000D03*
X189650000Y-108500000D03*
%TD*%
%TO.C,D10*%
X186350000Y-127500000D03*
X189650000Y-127500000D03*
%TD*%
%TO.C,D7*%
X167350000Y-97000000D03*
X170650000Y-97000000D03*
%TD*%
%TO.C,D6*%
X167350000Y-116000000D03*
X170650000Y-116000000D03*
%TD*%
%TO.C,D8*%
X167350000Y-78000000D03*
X170650000Y-78000000D03*
%TD*%
%TO.C,D13*%
X186350000Y-70500000D03*
X189650000Y-70500000D03*
%TD*%
%TO.C,D1*%
X148350000Y-116000000D03*
X151650000Y-116000000D03*
%TD*%
D12*
%TO.C,PWR1*%
X246350000Y-33585000D03*
X253650000Y-33585000D03*
D13*
X248500000Y-32475000D03*
X251500000Y-32475000D03*
D12*
X246350000Y-31375000D03*
X253650000Y-31375000D03*
D14*
X247750000Y-34235000D03*
X250750000Y-34235000D03*
X252250000Y-34235000D03*
%TD*%
D10*
%TO.C,D18*%
X205350000Y-67500000D03*
X208650000Y-67500000D03*
%TD*%
D15*
%TO.C,D29*%
X244469184Y-145905710D03*
X247550000Y-147088324D03*
%TD*%
D16*
%TO.C,D30*%
X261139935Y-157190584D03*
X263775433Y-159176574D03*
%TD*%
D10*
%TO.C,D4*%
X148350000Y-59000000D03*
X151650000Y-59000000D03*
%TD*%
%TO.C,D5*%
X167350000Y-135000000D03*
X170650000Y-135000000D03*
%TD*%
%TO.C,D23*%
X224350000Y-51500000D03*
X227650000Y-51500000D03*
%TD*%
%TO.C,D26*%
X243350000Y-72500000D03*
X246650000Y-72500000D03*
%TD*%
%TO.C,D12*%
X186350000Y-89500000D03*
X189650000Y-89500000D03*
%TD*%
%TO.C,D21*%
X224350000Y-89500000D03*
X227650000Y-89500000D03*
%TD*%
D17*
%TO.C,MCU1*%
X274500000Y-34800000D03*
D18*
X276620000Y-34800000D03*
D17*
X274500000Y-37340000D03*
D18*
X276620000Y-37340000D03*
D17*
X274500000Y-39880000D03*
D18*
X276620000Y-39880000D03*
D17*
X274500000Y-42420000D03*
D18*
X276620000Y-42420000D03*
D17*
X274500000Y-44960000D03*
D18*
X276620000Y-44960000D03*
D17*
X274500000Y-47500000D03*
D18*
X276620000Y-47500000D03*
D17*
X274500000Y-50040000D03*
D18*
X276620000Y-50040000D03*
D17*
X274500000Y-52580000D03*
D18*
X276620000Y-52580000D03*
D17*
X274500000Y-55120000D03*
D18*
X276620000Y-55120000D03*
D17*
X274500000Y-57660000D03*
D18*
X276620000Y-57660000D03*
D17*
X274500000Y-60200000D03*
D18*
X276620000Y-60200000D03*
D17*
X274500000Y-62740000D03*
D18*
X276620000Y-62740000D03*
X261380000Y-62740000D03*
D19*
X263500000Y-62740000D03*
D18*
X261380000Y-60200000D03*
D19*
X263500000Y-60200000D03*
D18*
X261380000Y-57660000D03*
D19*
X263500000Y-57660000D03*
D18*
X261380000Y-55120000D03*
D19*
X263500000Y-55120000D03*
D18*
X261380000Y-52580000D03*
D19*
X263500000Y-52580000D03*
D18*
X261380000Y-50040000D03*
D19*
X263500000Y-50040000D03*
D18*
X261380000Y-47500000D03*
D19*
X263500000Y-47500000D03*
D18*
X261380000Y-44960000D03*
D19*
X263500000Y-44960000D03*
D18*
X261380000Y-42420000D03*
D19*
X263500000Y-42420000D03*
D18*
X261380000Y-39880000D03*
D19*
X263500000Y-39880000D03*
D18*
X261380000Y-37340000D03*
D19*
X263500000Y-37340000D03*
D18*
X261380000Y-34800000D03*
D19*
X263500000Y-34800000D03*
D20*
X264225000Y-34800000D03*
D21*
X272400000Y-34800000D03*
D20*
X264225000Y-37340000D03*
D21*
X272400000Y-37340000D03*
D20*
X264225000Y-39880000D03*
D21*
X272400000Y-39880000D03*
D20*
X264225000Y-42420000D03*
D21*
X272400000Y-42420000D03*
D20*
X264225000Y-44960000D03*
D21*
X272400000Y-44960000D03*
D20*
X264225000Y-47500000D03*
D21*
X272400000Y-47500000D03*
D20*
X264225000Y-50040000D03*
D21*
X272400000Y-50040000D03*
D20*
X264225000Y-52580000D03*
D21*
X272400000Y-52580000D03*
D20*
X264225000Y-55120000D03*
D21*
X272400000Y-55120000D03*
D20*
X264225000Y-57660000D03*
D21*
X272400000Y-57660000D03*
D20*
X264225000Y-60200000D03*
D21*
X272400000Y-60200000D03*
D20*
X264225000Y-62740000D03*
D21*
X272400000Y-62740000D03*
X265600000Y-62740000D03*
D22*
X273775000Y-62740000D03*
D21*
X265600000Y-60200000D03*
D22*
X273775000Y-60200000D03*
D21*
X265600000Y-57660000D03*
D22*
X273775000Y-57660000D03*
D21*
X265600000Y-55120000D03*
D22*
X273775000Y-55120000D03*
D21*
X265600000Y-52580000D03*
D22*
X273775000Y-52580000D03*
D21*
X265600000Y-50040000D03*
D22*
X273775000Y-50040000D03*
D21*
X265600000Y-47500000D03*
D22*
X273775000Y-47500000D03*
D21*
X265600000Y-44960000D03*
D22*
X273775000Y-44960000D03*
D21*
X265600000Y-42420000D03*
D22*
X273775000Y-42420000D03*
D21*
X265600000Y-39880000D03*
D22*
X273775000Y-39880000D03*
D21*
X265600000Y-37340000D03*
D22*
X273775000Y-37340000D03*
D21*
X265600000Y-34800000D03*
D22*
X273775000Y-34800000D03*
%TD*%
D23*
%TO.C,JST1*%
X273184000Y-109500000D03*
X273184000Y-107500000D03*
D24*
X276000000Y-107500000D03*
X276000000Y-109500000D03*
D25*
X274200000Y-107500000D03*
X274200000Y-109500000D03*
%TD*%
D10*
%TO.C,D17*%
X205350000Y-86500000D03*
X208650000Y-86500000D03*
%TD*%
%TO.C,D22*%
X224350000Y-70500000D03*
X227650000Y-70500000D03*
%TD*%
%TO.C,D16*%
X205350000Y-105500000D03*
X208650000Y-105500000D03*
%TD*%
%TO.C,D15*%
X205350000Y-124500000D03*
X208650000Y-124500000D03*
%TD*%
%TO.C,D14*%
X186350000Y-51500000D03*
X189650000Y-51500000D03*
%TD*%
D26*
%TO.C,S13*%
X182920000Y-65500000D03*
D27*
X184190000Y-62960000D03*
X185460000Y-60420000D03*
D28*
X188000000Y-65500000D03*
D27*
X190540000Y-60420000D03*
X191810000Y-62960000D03*
D26*
X193080000Y-65500000D03*
D29*
X180915000Y-62960000D03*
D30*
X193842000Y-60420000D03*
%TD*%
D26*
%TO.C,S6*%
X163920000Y-111000000D03*
D27*
X165190000Y-108460000D03*
X166460000Y-105920000D03*
D28*
X169000000Y-111000000D03*
D27*
X171540000Y-105920000D03*
X172810000Y-108460000D03*
D26*
X174080000Y-111000000D03*
D29*
X161915000Y-108460000D03*
D30*
X174842000Y-105920000D03*
%TD*%
D26*
%TO.C,S4*%
X144920000Y-54000000D03*
D27*
X146190000Y-51460000D03*
X147460000Y-48920000D03*
D28*
X150000000Y-54000000D03*
D27*
X152540000Y-48920000D03*
X153810000Y-51460000D03*
D26*
X155080000Y-54000000D03*
D29*
X142915000Y-51460000D03*
D30*
X155842000Y-48920000D03*
%TD*%
D26*
%TO.C,S25*%
X239920000Y-86500000D03*
D27*
X241190000Y-83960000D03*
X242460000Y-81420000D03*
D28*
X245000000Y-86500000D03*
D27*
X247540000Y-81420000D03*
X248810000Y-83960000D03*
D26*
X250080000Y-86500000D03*
D29*
X237915000Y-83960000D03*
D30*
X250842000Y-81420000D03*
%TD*%
D26*
%TO.C,S27*%
X239920000Y-48500000D03*
D27*
X241190000Y-45960000D03*
X242460000Y-43420000D03*
D28*
X245000000Y-48500000D03*
D27*
X247540000Y-43420000D03*
X248810000Y-45960000D03*
D26*
X250080000Y-48500000D03*
D29*
X237915000Y-45960000D03*
D30*
X250842000Y-43420000D03*
%TD*%
D26*
%TO.C,S11*%
X182920000Y-103500000D03*
D27*
X184190000Y-100960000D03*
X185460000Y-98420000D03*
D28*
X188000000Y-103500000D03*
D27*
X190540000Y-98420000D03*
X191810000Y-100960000D03*
D26*
X193080000Y-103500000D03*
D29*
X180915000Y-100960000D03*
D30*
X193842000Y-98420000D03*
%TD*%
D26*
%TO.C,S1*%
X144920000Y-111000000D03*
D27*
X146190000Y-108460000D03*
X147460000Y-105920000D03*
D28*
X150000000Y-111000000D03*
D27*
X152540000Y-105920000D03*
X153810000Y-108460000D03*
D26*
X155080000Y-111000000D03*
D29*
X142915000Y-108460000D03*
D30*
X155842000Y-105920000D03*
%TD*%
D26*
%TO.C,S15*%
X201920000Y-119500000D03*
D27*
X203190000Y-116960000D03*
X204460000Y-114420000D03*
D28*
X207000000Y-119500000D03*
D27*
X209540000Y-114420000D03*
X210810000Y-116960000D03*
D26*
X212080000Y-119500000D03*
D29*
X199915000Y-116960000D03*
D30*
X212842000Y-114420000D03*
%TD*%
D26*
%TO.C,S3*%
X144920000Y-73000000D03*
D27*
X146190000Y-70460000D03*
X147460000Y-67920000D03*
D28*
X150000000Y-73000000D03*
D27*
X152540000Y-67920000D03*
X153810000Y-70460000D03*
D26*
X155080000Y-73000000D03*
D29*
X142915000Y-70460000D03*
D30*
X155842000Y-67920000D03*
%TD*%
D26*
%TO.C,S14*%
X182920000Y-46500000D03*
D27*
X184190000Y-43960000D03*
X185460000Y-41420000D03*
D28*
X188000000Y-46500000D03*
D27*
X190540000Y-41420000D03*
X191810000Y-43960000D03*
D26*
X193080000Y-46500000D03*
D29*
X180915000Y-43960000D03*
D30*
X193842000Y-41420000D03*
%TD*%
D26*
%TO.C,S30*%
X261409692Y-151133182D03*
D27*
X263952569Y-149868953D03*
X266495446Y-148604723D03*
D28*
X265466760Y-154190402D03*
D27*
X270552515Y-151661944D03*
X270038171Y-154454783D03*
D26*
X269523828Y-157247622D03*
D31*
X261337038Y-147898008D03*
D32*
X273189609Y-153649137D03*
%TD*%
D26*
%TO.C,S19*%
X201920000Y-43500000D03*
D27*
X203190000Y-40960000D03*
X204460000Y-38420000D03*
D28*
X207000000Y-43500000D03*
D27*
X209540000Y-38420000D03*
X210810000Y-40960000D03*
D26*
X212080000Y-43500000D03*
D29*
X199915000Y-40960000D03*
D30*
X212842000Y-38420000D03*
%TD*%
D26*
%TO.C,S22*%
X220920000Y-65500000D03*
D27*
X222190000Y-62960000D03*
X223460000Y-60420000D03*
D28*
X226000000Y-65500000D03*
D27*
X228540000Y-60420000D03*
X229810000Y-62960000D03*
D26*
X231080000Y-65500000D03*
D29*
X218915000Y-62960000D03*
D30*
X231842000Y-60420000D03*
%TD*%
D26*
%TO.C,S8*%
X163920000Y-73000000D03*
D27*
X165190000Y-70460000D03*
X166460000Y-67920000D03*
D28*
X169000000Y-73000000D03*
D27*
X171540000Y-67920000D03*
X172810000Y-70460000D03*
D26*
X174080000Y-73000000D03*
D29*
X161915000Y-70460000D03*
D30*
X174842000Y-67920000D03*
%TD*%
D26*
%TO.C,S5*%
X163920000Y-130000000D03*
D27*
X165190000Y-127460000D03*
X166460000Y-124920000D03*
D28*
X169000000Y-130000000D03*
D27*
X171540000Y-124920000D03*
X172810000Y-127460000D03*
D26*
X174080000Y-130000000D03*
D29*
X161915000Y-127460000D03*
D30*
X174842000Y-124920000D03*
%TD*%
D26*
%TO.C,S28*%
X220732375Y-138054363D03*
D27*
X221822102Y-135431959D03*
X222911824Y-132809556D03*
D28*
X225800000Y-137700000D03*
D27*
X227979450Y-132455193D03*
X229423538Y-134900415D03*
D26*
X230867625Y-137345637D03*
D33*
X218555077Y-135660412D03*
D34*
X231273406Y-132224857D03*
%TD*%
D26*
%TO.C,S2*%
X144920000Y-92000000D03*
D27*
X146190000Y-89460000D03*
X147460000Y-86920000D03*
D28*
X150000000Y-92000000D03*
D27*
X152540000Y-86920000D03*
X153810000Y-89460000D03*
D26*
X155080000Y-92000000D03*
D29*
X142915000Y-89460000D03*
D30*
X155842000Y-86920000D03*
%TD*%
D26*
%TO.C,S23*%
X220920000Y-46500000D03*
D27*
X222190000Y-43960000D03*
X223460000Y-41420000D03*
D28*
X226000000Y-46500000D03*
D27*
X228540000Y-41420000D03*
X229810000Y-43960000D03*
D26*
X231080000Y-46500000D03*
D29*
X218915000Y-43960000D03*
D30*
X231842000Y-41420000D03*
%TD*%
D26*
%TO.C,S16*%
X201920000Y-100500000D03*
D27*
X203190000Y-97960000D03*
X204460000Y-95420000D03*
D28*
X207000000Y-100500000D03*
D27*
X209540000Y-95420000D03*
X210810000Y-97960000D03*
D26*
X212080000Y-100500000D03*
D29*
X199915000Y-97960000D03*
D30*
X212842000Y-95420000D03*
%TD*%
D26*
%TO.C,S12*%
X182920000Y-84500000D03*
D27*
X184190000Y-81960000D03*
X185460000Y-79420000D03*
D28*
X188000000Y-84500000D03*
D27*
X190540000Y-79420000D03*
X191810000Y-81960000D03*
D26*
X193080000Y-84500000D03*
D29*
X180915000Y-81960000D03*
D30*
X193842000Y-79420000D03*
%TD*%
D26*
%TO.C,S7*%
X163920000Y-92000000D03*
D27*
X165190000Y-89460000D03*
X166460000Y-86920000D03*
D28*
X169000000Y-92000000D03*
D27*
X171540000Y-86920000D03*
X172810000Y-89460000D03*
D26*
X174080000Y-92000000D03*
D29*
X161915000Y-89460000D03*
D30*
X174842000Y-86920000D03*
%TD*%
D26*
%TO.C,S21*%
X220920000Y-84500000D03*
D27*
X222190000Y-81960000D03*
X223460000Y-79420000D03*
D28*
X226000000Y-84500000D03*
D27*
X228540000Y-79420000D03*
X229810000Y-81960000D03*
D26*
X231080000Y-84500000D03*
D29*
X218915000Y-81960000D03*
D30*
X231842000Y-79420000D03*
%TD*%
D26*
%TO.C,S17*%
X201920000Y-81500000D03*
D27*
X203190000Y-78960000D03*
X204460000Y-76420000D03*
D28*
X207000000Y-81500000D03*
D27*
X209540000Y-76420000D03*
X210810000Y-78960000D03*
D26*
X212080000Y-81500000D03*
D29*
X199915000Y-78960000D03*
D30*
X212842000Y-76420000D03*
%TD*%
D26*
%TO.C,S29*%
X243058842Y-140008606D03*
D27*
X245154744Y-138092439D03*
X247250646Y-136176272D03*
D28*
X247801431Y-141829115D03*
D27*
X251993234Y-137996781D03*
X252268627Y-140823203D03*
D26*
X252544020Y-143649624D03*
D35*
X242097268Y-136918784D03*
D36*
X255075917Y-139180112D03*
%TD*%
D26*
%TO.C,S10*%
X182920000Y-122500000D03*
D27*
X184190000Y-119960000D03*
X185460000Y-117420000D03*
D28*
X188000000Y-122500000D03*
D27*
X190540000Y-117420000D03*
X191810000Y-119960000D03*
D26*
X193080000Y-122500000D03*
D29*
X180915000Y-119960000D03*
D30*
X193842000Y-117420000D03*
%TD*%
D26*
%TO.C,S20*%
X220920000Y-103500000D03*
D27*
X222190000Y-100960000D03*
X223460000Y-98420000D03*
D28*
X226000000Y-103500000D03*
D27*
X228540000Y-98420000D03*
X229810000Y-100960000D03*
D26*
X231080000Y-103500000D03*
D29*
X218915000Y-100960000D03*
D30*
X231842000Y-98420000D03*
%TD*%
D26*
%TO.C,S9*%
X163920000Y-54000000D03*
D27*
X165190000Y-51460000D03*
X166460000Y-48920000D03*
D28*
X169000000Y-54000000D03*
D27*
X171540000Y-48920000D03*
X172810000Y-51460000D03*
D26*
X174080000Y-54000000D03*
D29*
X161915000Y-51460000D03*
D30*
X174842000Y-48920000D03*
%TD*%
D26*
%TO.C,S24*%
X239920000Y-105500000D03*
D27*
X241190000Y-102960000D03*
X242460000Y-100420000D03*
D28*
X245000000Y-105500000D03*
D27*
X247540000Y-100420000D03*
X248810000Y-102960000D03*
D26*
X250080000Y-105500000D03*
D29*
X237915000Y-102960000D03*
D30*
X250842000Y-100420000D03*
%TD*%
D26*
%TO.C,S26*%
X239920000Y-67500000D03*
D27*
X241190000Y-64960000D03*
X242460000Y-62420000D03*
D28*
X245000000Y-67500000D03*
D27*
X247540000Y-62420000D03*
X248810000Y-64960000D03*
D26*
X250080000Y-67500000D03*
D29*
X237915000Y-64960000D03*
D30*
X250842000Y-62420000D03*
%TD*%
D26*
%TO.C,S18*%
X201920000Y-62500000D03*
D27*
X203190000Y-59960000D03*
X204460000Y-57420000D03*
D28*
X207000000Y-62500000D03*
D27*
X209540000Y-57420000D03*
X210810000Y-59960000D03*
D26*
X212080000Y-62500000D03*
D29*
X199915000Y-59960000D03*
D30*
X212842000Y-57420000D03*
%TD*%
M02*
