M48
; DRILL file {KiCad 9.0.1} date 2026-06-11T15:53:54+0200
; FORMAT={-:-/ absolute / metric / decimal}
; #@! TF.CreationDate,2026-06-11T15:53:54+02:00
; #@! TF.GenerationSoftware,Kicad,Pcbnew,9.0.1
; #@! TF.FileFunction,Plated,1,2,PTH
FMAT,2
METRIC
; #@! TA.AperFunction,Plated,PTH,ViaDrill
T1C0.300
; #@! TA.AperFunction,Plated,PTH,ComponentDrill
T2C0.400
; #@! TA.AperFunction,Plated,PTH,ComponentDrill
T3C0.750
; #@! TA.AperFunction,Plated,PTH,ComponentDrill
T4C1.000
%
G90
G05
T1
X147.15Y-59.0
X147.15Y-78.0
X147.15Y-97.0
X147.15Y-116.0
X150.0Y-47.041
X150.0Y-48.07
X150.0Y-66.041
X150.0Y-67.07
X150.0Y-85.041
X150.0Y-86.07
X150.0Y-104.041
X150.0Y-105.07
X152.85Y-59.0
X152.85Y-78.0
X152.85Y-97.0
X152.85Y-116.0
X166.15Y-59.0
X166.15Y-78.0
X166.15Y-97.0
X166.15Y-116.0
X166.15Y-135.0
X169.0Y-47.041
X169.0Y-48.07
X169.0Y-66.041
X169.0Y-67.07
X169.0Y-85.041
X169.0Y-86.07
X169.0Y-104.041
X169.0Y-105.07
X169.0Y-123.041
X169.0Y-124.07
X171.85Y-59.0
X171.85Y-78.0
X171.85Y-97.0
X171.85Y-116.0
X171.85Y-135.0
X185.15Y-51.5
X185.15Y-70.5
X185.15Y-89.5
X185.15Y-108.5
X185.15Y-127.5
X188.0Y-39.541
X188.0Y-40.57
X188.0Y-58.541
X188.0Y-59.57
X188.0Y-77.541
X188.0Y-78.57
X188.0Y-96.541
X188.0Y-97.57
X188.0Y-115.541
X188.0Y-116.57
X190.85Y-51.5
X190.85Y-70.5
X190.85Y-89.5
X190.85Y-108.5
X190.85Y-127.5
X204.15Y-48.5
X204.15Y-67.5
X204.15Y-86.5
X204.15Y-105.5
X204.15Y-124.5
X207.0Y-36.541
X207.0Y-37.57
X207.0Y-55.541
X207.0Y-56.57
X207.0Y-74.541
X207.0Y-75.57
X207.0Y-93.541
X207.0Y-94.57
X207.0Y-112.541
X207.0Y-113.57
X209.85Y-48.5
X209.85Y-67.5
X209.85Y-86.5
X209.85Y-105.5
X209.85Y-124.5
X223.15Y-51.5
X223.15Y-70.5
X223.15Y-89.5
X223.15Y-108.5
X223.306Y-142.887
X225.315Y-130.758
X225.386Y-131.784
X226.0Y-39.541
X226.0Y-40.57
X226.0Y-58.541
X226.0Y-59.57
X226.0Y-77.541
X226.0Y-78.57
X226.0Y-96.541
X226.0Y-97.57
X228.85Y-51.5
X228.85Y-70.5
X228.85Y-89.5
X228.85Y-108.5
X228.992Y-142.489
X242.15Y-53.5
X242.15Y-72.5
X242.15Y-91.5
X242.15Y-110.5
X243.349Y-145.476
X245.0Y-41.541
X245.0Y-42.57
X245.0Y-60.541
X245.0Y-61.57
X245.0Y-79.541
X245.0Y-80.57
X245.0Y-98.541
X245.0Y-99.57
X247.75Y-36.7
X247.85Y-53.5
X247.85Y-72.5
X247.85Y-91.5
X247.85Y-110.5
X248.67Y-147.518
X249.927Y-136.293
X250.295Y-135.332
X251.3Y-35.95
X260.182Y-156.468
X264.155Y-65.15
X264.734Y-159.899
X265.15Y-65.15
X265.655Y-74.8
X266.1Y-65.15
X266.645Y-74.8
X267.05Y-65.15
X267.6Y-74.8
X268.05Y-65.15
X268.55Y-74.8
X269.0Y-65.15
X269.036Y-149.454
X269.545Y-74.8
X269.655Y-148.633
X270.0Y-65.15
X270.499Y-74.8
X270.95Y-65.15
X271.489Y-74.8
X271.8Y-109.5
X271.9Y-65.15
X272.444Y-74.8
X272.9Y-65.15
X273.184Y-106.15
X273.398Y-74.8
X273.85Y-65.15
X274.388Y-74.8
X275.343Y-74.8
T2
X265.6Y-34.8
X265.6Y-37.34
X265.6Y-39.88
X265.6Y-42.42
X265.6Y-44.96
X265.6Y-47.5
X265.6Y-50.04
X265.6Y-52.58
X265.6Y-55.12
X265.6Y-57.66
X265.6Y-60.2
X265.6Y-62.74
X272.4Y-34.8
X272.4Y-37.34
X272.4Y-39.88
X272.4Y-42.42
X272.4Y-44.96
X272.4Y-47.5
X272.4Y-50.04
X272.4Y-52.58
X272.4Y-55.12
X272.4Y-57.66
X272.4Y-60.2
X272.4Y-62.74
T3
X276.0Y-107.5
X276.0Y-109.5
T4
X261.38Y-34.8
X261.38Y-37.34
X261.38Y-39.88
X261.38Y-42.42
X261.38Y-44.96
X261.38Y-47.5
X261.38Y-50.04
X261.38Y-52.58
X261.38Y-55.12
X261.38Y-57.66
X261.38Y-60.2
X261.38Y-62.74
X276.62Y-34.8
X276.62Y-37.34
X276.62Y-39.88
X276.62Y-42.42
X276.62Y-44.96
X276.62Y-47.5
X276.62Y-50.04
X276.62Y-52.58
X276.62Y-55.12
X276.62Y-57.66
X276.62Y-60.2
X276.62Y-62.74
M30
