%TF.GenerationSoftware,KiCad,Pcbnew,9.0.1*%
%TF.CreationDate,2026-06-11T15:54:09+02:00*%
%TF.ProjectId,SkofBottomPlate,536b6f66-426f-4747-946f-6d506c617465,v1.0.0*%
%TF.SameCoordinates,Original*%
%TF.FileFunction,Paste,Top*%
%TF.FilePolarity,Positive*%
%FSLAX46Y46*%
G04 Gerber Fmt 4.6, Leading zero omitted, Abs format (unit mm)*
G04 Created by KiCad (PCBNEW 9.0.1) date 2026-06-11 15:54:09*
%MOMM*%
%LPD*%
G01*
G04 APERTURE LIST*
G04 Aperture macros list*
%AMRotRect*
0 Rectangle, with rotation*
0 The origin of the aperture is its center*
0 $1 length*
0 $2 width*
0 $3 Rotation angle, in degrees counterclockwise*
0 Add horizontal line*
21,1,$1,$2,0,0,$3*%
%AMOutline5P*
0 Free polygon, 5 corners , with rotation*
0 The origin of the aperture is its center*
0 number of corners: always 5*
0 $1 to $10 corner X, Y*
0 $11 Rotation angle, in degrees counterclockwise*
0 create outline with 5 corners*
4,1,5,$1,$2,$3,$4,$5,$6,$7,$8,$9,$10,$1,$2,$11*%
%AMOutline6P*
0 Free polygon, 6 corners , with rotation*
0 The origin of the aperture is its center*
0 number of corners: always 6*
0 $1 to $12 corner X, Y*
0 $13 Rotation angle, in degrees counterclockwise*
0 create outline with 6 corners*
4,1,6,$1,$2,$3,$4,$5,$6,$7,$8,$9,$10,$11,$12,$1,$2,$13*%
%AMOutline7P*
0 Free polygon, 7 corners , with rotation*
0 The origin of the aperture is its center*
0 number of corners: always 7*
0 $1 to $14 corner X, Y*
0 $15 Rotation angle, in degrees counterclockwise*
0 create outline with 7 corners*
4,1,7,$1,$2,$3,$4,$5,$6,$7,$8,$9,$10,$11,$12,$13,$14,$1,$2,$15*%
%AMOutline8P*
0 Free polygon, 8 corners , with rotation*
0 The origin of the aperture is its center*
0 number of corners: always 8*
0 $1 to $16 corner X, Y*
0 $17 Rotation angle, in degrees counterclockwise*
0 create outline with 8 corners*
4,1,8,$1,$2,$3,$4,$5,$6,$7,$8,$9,$10,$11,$12,$13,$14,$15,$16,$1,$2,$17*%
%AMFreePoly0*
4,1,6,0.250000,0.000000,-0.250000,-0.625000,-0.500000,-0.625000,-0.500000,0.625000,-0.250000,0.625000,0.250000,0.000000,0.250000,0.000000,$1*%
%AMFreePoly1*
4,1,6,0.500000,-0.625000,-0.650000,-0.625000,-0.150000,0.000000,-0.650000,0.625000,0.500000,0.625000,0.500000,-0.625000,0.500000,-0.625000,$1*%
%AMFreePoly2*
4,1,6,0.600000,-1.000000,0.000000,-0.400000,-0.600000,-1.000000,-0.600000,0.250000,0.600000,0.250000,0.600000,-1.000000,0.600000,-1.000000,$1*%
%AMFreePoly3*
4,1,6,0.600000,-0.200000,0.600000,-0.400000,-0.600000,-0.400000,-0.600000,-0.200000,0.000000,0.400000,0.600000,-0.200000,0.600000,-0.200000,$1*%
G04 Aperture macros list end*
%ADD10R,0.900000X1.200000*%
%ADD11RotRect,0.900000X1.200000X4.000000*%
%ADD12R,1.000000X0.800000*%
%ADD13R,0.700000X1.500000*%
%ADD14RotRect,0.900000X1.200000X339.000000*%
%ADD15RotRect,0.900000X1.200000X323.000000*%
%ADD16FreePoly0,180.000000*%
%ADD17FreePoly0,0.000000*%
%ADD18FreePoly1,180.000000*%
%ADD19FreePoly1,0.000000*%
%ADD20FreePoly2,90.000000*%
%ADD21FreePoly3,90.000000*%
%ADD22R,2.550000X2.500000*%
%ADD23Outline5P,-1.275000X1.250000X1.275000X1.250000X1.275000X-0.750000X0.775000X-1.250000X-1.275000X-1.250000X0.000000*%
%ADD24RotRect,2.550000X2.500000X323.000000*%
%ADD25Outline5P,-1.275000X1.250000X1.275000X1.250000X1.275000X-0.750000X0.775000X-1.250000X-1.275000X-1.250000X323.000000*%
%ADD26RotRect,2.550000X2.500000X4.000000*%
%ADD27Outline5P,-1.275000X1.250000X1.275000X1.250000X1.275000X-0.750000X0.775000X-1.250000X-1.275000X-1.250000X4.000000*%
%ADD28RotRect,2.550000X2.500000X339.000000*%
%ADD29Outline5P,-1.275000X1.250000X1.275000X1.250000X1.275000X-0.750000X0.775000X-1.250000X-1.275000X-1.250000X339.000000*%
G04 APERTURE END LIST*
D10*
%TO.C,D9*%
X167350000Y-59000000D03*
X170650000Y-59000000D03*
%TD*%
%TO.C,D20*%
X224350000Y-108500000D03*
X227650000Y-108500000D03*
%TD*%
%TO.C,D3*%
X148350000Y-78000000D03*
X151650000Y-78000000D03*
%TD*%
D11*
%TO.C,D28*%
X224502801Y-142802918D03*
X227794763Y-142572722D03*
%TD*%
D10*
%TO.C,D25*%
X243350000Y-91500000D03*
X246650000Y-91500000D03*
%TD*%
%TO.C,D27*%
X243350000Y-53500000D03*
X246650000Y-53500000D03*
%TD*%
%TO.C,D2*%
X148350000Y-97000000D03*
X151650000Y-97000000D03*
%TD*%
%TO.C,D24*%
X243350000Y-110500000D03*
X246650000Y-110500000D03*
%TD*%
%TO.C,D19*%
X205350000Y-48500000D03*
X208650000Y-48500000D03*
%TD*%
%TO.C,D11*%
X186350000Y-108500000D03*
X189650000Y-108500000D03*
%TD*%
%TO.C,D10*%
X186350000Y-127500000D03*
X189650000Y-127500000D03*
%TD*%
%TO.C,D7*%
X167350000Y-97000000D03*
X170650000Y-97000000D03*
%TD*%
%TO.C,D6*%
X167350000Y-116000000D03*
X170650000Y-116000000D03*
%TD*%
%TO.C,D8*%
X167350000Y-78000000D03*
X170650000Y-78000000D03*
%TD*%
%TO.C,D13*%
X186350000Y-70500000D03*
X189650000Y-70500000D03*
%TD*%
%TO.C,D1*%
X148350000Y-116000000D03*
X151650000Y-116000000D03*
%TD*%
D12*
%TO.C,PWR1*%
X246350000Y-33585000D03*
X253650000Y-33585000D03*
X246350000Y-31375000D03*
X253650000Y-31375000D03*
D13*
X252250000Y-34235000D03*
X249250000Y-34235000D03*
X247750000Y-34235000D03*
%TD*%
D10*
%TO.C,D18*%
X205350000Y-67500000D03*
X208650000Y-67500000D03*
%TD*%
D14*
%TO.C,D29*%
X244469184Y-145905710D03*
X247550000Y-147088324D03*
%TD*%
D15*
%TO.C,D30*%
X261139935Y-157190584D03*
X263775433Y-159176574D03*
%TD*%
D10*
%TO.C,D4*%
X148350000Y-59000000D03*
X151650000Y-59000000D03*
%TD*%
%TO.C,D5*%
X167350000Y-135000000D03*
X170650000Y-135000000D03*
%TD*%
%TO.C,D23*%
X224350000Y-51500000D03*
X227650000Y-51500000D03*
%TD*%
%TO.C,D26*%
X243350000Y-72500000D03*
X246650000Y-72500000D03*
%TD*%
%TO.C,D12*%
X186350000Y-89500000D03*
X189650000Y-89500000D03*
%TD*%
%TO.C,D21*%
X224350000Y-89500000D03*
X227650000Y-89500000D03*
%TD*%
D16*
%TO.C,MCU1*%
X274500000Y-34800000D03*
X274500000Y-37340000D03*
X274500000Y-39880000D03*
X274500000Y-42420000D03*
X274500000Y-44960000D03*
X274500000Y-47500000D03*
X274500000Y-50040000D03*
X274500000Y-52580000D03*
X274500000Y-55120000D03*
X274500000Y-57660000D03*
X274500000Y-60200000D03*
X274500000Y-62740000D03*
D17*
X263500000Y-62740000D03*
X263500000Y-60200000D03*
X263500000Y-57660000D03*
X263500000Y-55120000D03*
X263500000Y-52580000D03*
X263500000Y-50040000D03*
X263500000Y-47500000D03*
X263500000Y-44960000D03*
X263500000Y-42420000D03*
X263500000Y-39880000D03*
X263500000Y-37340000D03*
X263500000Y-34800000D03*
D18*
X273775000Y-34800000D03*
X273775000Y-37340000D03*
X273775000Y-39880000D03*
X273775000Y-42420000D03*
X273775000Y-44960000D03*
X273775000Y-47500000D03*
X273775000Y-50040000D03*
X273775000Y-52580000D03*
X273775000Y-55120000D03*
X273775000Y-57660000D03*
X273775000Y-60200000D03*
X273775000Y-62740000D03*
D19*
X264225000Y-62740000D03*
X264225000Y-60200000D03*
X264225000Y-57660000D03*
X264225000Y-55120000D03*
X264225000Y-52580000D03*
X264225000Y-50040000D03*
X264225000Y-47500000D03*
X264225000Y-44960000D03*
X264225000Y-42420000D03*
X264225000Y-39880000D03*
X264225000Y-37340000D03*
X264225000Y-34800000D03*
%TD*%
D20*
%TO.C,JST1*%
X273184000Y-107500000D03*
X273184000Y-109500000D03*
D21*
X274200000Y-107500000D03*
X274200000Y-109500000D03*
%TD*%
D10*
%TO.C,D17*%
X205350000Y-86500000D03*
X208650000Y-86500000D03*
%TD*%
%TO.C,D22*%
X224350000Y-70500000D03*
X227650000Y-70500000D03*
%TD*%
%TO.C,D16*%
X205350000Y-105500000D03*
X208650000Y-105500000D03*
%TD*%
%TO.C,D15*%
X205350000Y-124500000D03*
X208650000Y-124500000D03*
%TD*%
%TO.C,D14*%
X186350000Y-51500000D03*
X189650000Y-51500000D03*
%TD*%
D22*
%TO.C,S13*%
X195085000Y-62960000D03*
D23*
X182158000Y-60420000D03*
%TD*%
D22*
%TO.C,S6*%
X176085000Y-108460000D03*
D23*
X163158000Y-105920000D03*
%TD*%
D22*
%TO.C,S4*%
X157085000Y-51460000D03*
D23*
X144158000Y-48920000D03*
%TD*%
D22*
%TO.C,S25*%
X252085000Y-83960000D03*
D23*
X239158000Y-81420000D03*
%TD*%
D22*
%TO.C,S27*%
X252085000Y-45960000D03*
D23*
X239158000Y-43420000D03*
%TD*%
D22*
%TO.C,S11*%
X195085000Y-100960000D03*
D23*
X182158000Y-98420000D03*
%TD*%
D22*
%TO.C,S1*%
X157085000Y-108460000D03*
D23*
X144158000Y-105920000D03*
%TD*%
D22*
%TO.C,S15*%
X214085000Y-116960000D03*
D23*
X201158000Y-114420000D03*
%TD*%
D22*
%TO.C,S3*%
X157085000Y-70460000D03*
D23*
X144158000Y-67920000D03*
%TD*%
D22*
%TO.C,S14*%
X195085000Y-43960000D03*
D23*
X182158000Y-41420000D03*
%TD*%
D24*
%TO.C,S30*%
X272653703Y-156425727D03*
D25*
X263858352Y-146617530D03*
%TD*%
D22*
%TO.C,S19*%
X214085000Y-40960000D03*
D23*
X201158000Y-38420000D03*
%TD*%
D22*
%TO.C,S22*%
X233085000Y-62960000D03*
D23*
X220158000Y-60420000D03*
%TD*%
D22*
%TO.C,S8*%
X176085000Y-70460000D03*
D23*
X163158000Y-67920000D03*
%TD*%
D22*
%TO.C,S5*%
X176085000Y-127460000D03*
D23*
X163158000Y-124920000D03*
%TD*%
D26*
%TO.C,S28*%
X232690560Y-134671963D03*
D27*
X219617868Y-133039892D03*
%TD*%
D22*
%TO.C,S2*%
X157085000Y-89460000D03*
D23*
X144158000Y-86920000D03*
%TD*%
D22*
%TO.C,S23*%
X233085000Y-43960000D03*
D23*
X220158000Y-41420000D03*
%TD*%
D22*
%TO.C,S16*%
X214085000Y-97960000D03*
D23*
X201158000Y-95420000D03*
%TD*%
D22*
%TO.C,S12*%
X195085000Y-81960000D03*
D23*
X182158000Y-79420000D03*
%TD*%
D22*
%TO.C,S7*%
X176085000Y-89460000D03*
D23*
X163158000Y-86920000D03*
%TD*%
D22*
%TO.C,S21*%
X233085000Y-81960000D03*
D23*
X220158000Y-79420000D03*
%TD*%
D22*
%TO.C,S17*%
X214085000Y-78960000D03*
D23*
X201158000Y-76420000D03*
%TD*%
D28*
%TO.C,S29*%
X255326103Y-141996858D03*
D29*
X244167963Y-134992941D03*
%TD*%
D22*
%TO.C,S10*%
X195085000Y-119960000D03*
D23*
X182158000Y-117420000D03*
%TD*%
D22*
%TO.C,S20*%
X233085000Y-100960000D03*
D23*
X220158000Y-98420000D03*
%TD*%
D22*
%TO.C,S9*%
X176085000Y-51460000D03*
D23*
X163158000Y-48920000D03*
%TD*%
D22*
%TO.C,S24*%
X252085000Y-102960000D03*
D23*
X239158000Y-100420000D03*
%TD*%
D22*
%TO.C,S26*%
X252085000Y-64960000D03*
D23*
X239158000Y-62420000D03*
%TD*%
D22*
%TO.C,S18*%
X214085000Y-59960000D03*
D23*
X201158000Y-57420000D03*
%TD*%
M02*
