%TF.GenerationSoftware,KiCad,Pcbnew,9.0.1*%
%TF.CreationDate,2026-06-11T15:54:09+02:00*%
%TF.ProjectId,SkofBottomPlate,536b6f66-426f-4747-946f-6d506c617465,v1.0.0*%
%TF.SameCoordinates,Original*%
%TF.FileFunction,Copper,L2,Bot*%
%TF.FilePolarity,Positive*%
%FSLAX46Y46*%
G04 Gerber Fmt 4.6, Leading zero omitted, Abs format (unit mm)*
G04 Created by KiCad (PCBNEW 9.0.1) date 2026-06-11 15:54:09*
%MOMM*%
%LPD*%
G01*
G04 APERTURE LIST*
G04 Aperture macros list*
%AMRotRect*
0 Rectangle, with rotation*
0 The origin of the aperture is its center*
0 $1 length*
0 $2 width*
0 $3 Rotation angle, in degrees counterclockwise*
0 Add horizontal line*
21,1,$1,$2,0,0,$3*%
%AMOutline5P*
0 Free polygon, 5 corners , with rotation*
0 The origin of the aperture is its center*
0 number of corners: always 5*
0 $1 to $10 corner X, Y*
0 $11 Rotation angle, in degrees counterclockwise*
0 create outline with 5 corners*
4,1,5,$1,$2,$3,$4,$5,$6,$7,$8,$9,$10,$1,$2,$11*%
%AMOutline6P*
0 Free polygon, 6 corners , with rotation*
0 The origin of the aperture is its center*
0 number of corners: always 6*
0 $1 to $12 corner X, Y*
0 $13 Rotation angle, in degrees counterclockwise*
0 create outline with 6 corners*
4,1,6,$1,$2,$3,$4,$5,$6,$7,$8,$9,$10,$11,$12,$1,$2,$13*%
%AMOutline7P*
0 Free polygon, 7 corners , with rotation*
0 The origin of the aperture is its center*
0 number of corners: always 7*
0 $1 to $14 corner X, Y*
0 $15 Rotation angle, in degrees counterclockwise*
0 create outline with 7 corners*
4,1,7,$1,$2,$3,$4,$5,$6,$7,$8,$9,$10,$11,$12,$13,$14,$1,$2,$15*%
%AMOutline8P*
0 Free polygon, 8 corners , with rotation*
0 The origin of the aperture is its center*
0 number of corners: always 8*
0 $1 to $16 corner X, Y*
0 $17 Rotation angle, in degrees counterclockwise*
0 create outline with 8 corners*
4,1,8,$1,$2,$3,$4,$5,$6,$7,$8,$9,$10,$11,$12,$13,$14,$15,$16,$1,$2,$17*%
%AMFreePoly0*
4,1,6,0.250000,0.000000,-0.250000,-0.625000,-0.500000,-0.625000,-0.500000,0.625000,-0.250000,0.625000,0.250000,0.000000,0.250000,0.000000,$1*%
%AMFreePoly1*
4,1,6,0.500000,-0.625000,-0.650000,-0.625000,-0.150000,0.000000,-0.650000,0.625000,0.500000,0.625000,0.500000,-0.625000,0.500000,-0.625000,$1*%
%AMFreePoly2*
4,1,6,0.600000,-1.000000,0.000000,-0.400000,-0.600000,-1.000000,-0.600000,0.250000,0.600000,0.250000,0.600000,-1.000000,0.600000,-1.000000,$1*%
%AMFreePoly3*
4,1,6,0.600000,-0.200000,0.600000,-0.400000,-0.600000,-0.400000,-0.600000,-0.200000,0.000000,0.400000,0.600000,-0.200000,0.600000,-0.200000,$1*%
G04 Aperture macros list end*
%TA.AperFunction,SMDPad,CuDef*%
%ADD10R,0.900000X1.200000*%
%TD*%
%TA.AperFunction,SMDPad,CuDef*%
%ADD11RotRect,0.900000X1.200000X4.000000*%
%TD*%
%TA.AperFunction,SMDPad,CuDef*%
%ADD12R,1.000000X0.800000*%
%TD*%
%TA.AperFunction,SMDPad,CuDef*%
%ADD13R,0.700000X1.500000*%
%TD*%
%TA.AperFunction,SMDPad,CuDef*%
%ADD14RotRect,0.900000X1.200000X339.000000*%
%TD*%
%TA.AperFunction,SMDPad,CuDef*%
%ADD15RotRect,0.900000X1.200000X323.000000*%
%TD*%
%TA.AperFunction,SMDPad,CuDef*%
%ADD16FreePoly0,180.000000*%
%TD*%
%TA.AperFunction,ComponentPad*%
%ADD17C,1.700000*%
%TD*%
%TA.AperFunction,SMDPad,CuDef*%
%ADD18FreePoly0,0.000000*%
%TD*%
%TA.AperFunction,SMDPad,CuDef*%
%ADD19FreePoly1,0.000000*%
%TD*%
%TA.AperFunction,ComponentPad*%
%ADD20C,0.800000*%
%TD*%
%TA.AperFunction,SMDPad,CuDef*%
%ADD21FreePoly1,180.000000*%
%TD*%
%TA.AperFunction,SMDPad,CuDef*%
%ADD22FreePoly2,90.000000*%
%TD*%
%TA.AperFunction,ComponentPad*%
%ADD23O,1.750000X1.200000*%
%TD*%
%TA.AperFunction,SMDPad,CuDef*%
%ADD24FreePoly3,90.000000*%
%TD*%
%TA.AperFunction,SMDPad,CuDef*%
%ADD25R,2.550000X2.500000*%
%TD*%
%TA.AperFunction,SMDPad,CuDef*%
%ADD26Outline5P,-1.275000X1.250000X1.275000X1.250000X1.275000X-1.250000X-0.775000X-1.250000X-1.275000X-0.750000X0.000000*%
%TD*%
%TA.AperFunction,SMDPad,CuDef*%
%ADD27RotRect,2.550000X2.500000X323.000000*%
%TD*%
%TA.AperFunction,SMDPad,CuDef*%
%ADD28Outline5P,-1.275000X1.250000X1.275000X1.250000X1.275000X-1.250000X-0.775000X-1.250000X-1.275000X-0.750000X323.000000*%
%TD*%
%TA.AperFunction,SMDPad,CuDef*%
%ADD29RotRect,2.550000X2.500000X4.000000*%
%TD*%
%TA.AperFunction,SMDPad,CuDef*%
%ADD30Outline5P,-1.275000X1.250000X1.275000X1.250000X1.275000X-1.250000X-0.775000X-1.250000X-1.275000X-0.750000X4.000000*%
%TD*%
%TA.AperFunction,SMDPad,CuDef*%
%ADD31RotRect,2.550000X2.500000X339.000000*%
%TD*%
%TA.AperFunction,SMDPad,CuDef*%
%ADD32Outline5P,-1.275000X1.250000X1.275000X1.250000X1.275000X-1.250000X-0.775000X-1.250000X-1.275000X-0.750000X339.000000*%
%TD*%
%TA.AperFunction,ViaPad*%
%ADD33C,0.600000*%
%TD*%
%TA.AperFunction,Conductor*%
%ADD34C,0.250000*%
%TD*%
%TA.AperFunction,Conductor*%
%ADD35C,0.200000*%
%TD*%
G04 APERTURE END LIST*
D10*
%TO.P,D9,1*%
%TO.N,P18*%
X167350000Y-59000000D03*
%TO.P,D9,2*%
%TO.N,pinky_nums*%
X170650000Y-59000000D03*
%TD*%
%TO.P,D20,1*%
%TO.N,P16*%
X224350000Y-108500000D03*
%TO.P,D20,2*%
%TO.N,index_home*%
X227650000Y-108500000D03*
%TD*%
%TO.P,D3,1*%
%TO.N,P15*%
X148350000Y-78000000D03*
%TO.P,D3,2*%
%TO.N,outer_num*%
X151650000Y-78000000D03*
%TD*%
D11*
%TO.P,D28,1*%
%TO.N,P10*%
X224502801Y-142802918D03*
%TO.P,D28,2*%
%TO.N,filler_cluster*%
X227794763Y-142572722D03*
%TD*%
D10*
%TO.P,D25,1*%
%TO.N,P14*%
X243350000Y-91500000D03*
%TO.P,D25,2*%
%TO.N,inner_top*%
X246650000Y-91500000D03*
%TD*%
%TO.P,D27,1*%
%TO.N,P18*%
X243350000Y-53500000D03*
%TO.P,D27,2*%
%TO.N,inner_nums*%
X246650000Y-53500000D03*
%TD*%
%TO.P,D2,1*%
%TO.N,P14*%
X148350000Y-97000000D03*
%TO.P,D2,2*%
%TO.N,outer_top*%
X151650000Y-97000000D03*
%TD*%
%TO.P,D24,1*%
%TO.N,P16*%
X243350000Y-110500000D03*
%TO.P,D24,2*%
%TO.N,inner_home*%
X246650000Y-110500000D03*
%TD*%
%TO.P,D19,1*%
%TO.N,P18*%
X205350000Y-48500000D03*
%TO.P,D19,2*%
%TO.N,middle_nums*%
X208650000Y-48500000D03*
%TD*%
%TO.P,D11,1*%
%TO.N,P16*%
X186350000Y-108500000D03*
%TO.P,D11,2*%
%TO.N,ring_home*%
X189650000Y-108500000D03*
%TD*%
%TO.P,D10,1*%
%TO.N,P10*%
X186350000Y-127500000D03*
%TO.P,D10,2*%
%TO.N,ring_bottom*%
X189650000Y-127500000D03*
%TD*%
%TO.P,D7,1*%
%TO.N,P14*%
X167350000Y-97000000D03*
%TO.P,D7,2*%
%TO.N,pinky_top*%
X170650000Y-97000000D03*
%TD*%
%TO.P,D6,1*%
%TO.N,P16*%
X167350000Y-116000000D03*
%TO.P,D6,2*%
%TO.N,pinky_home*%
X170650000Y-116000000D03*
%TD*%
%TO.P,D8,1*%
%TO.N,P15*%
X167350000Y-78000000D03*
%TO.P,D8,2*%
%TO.N,pinky_num*%
X170650000Y-78000000D03*
%TD*%
%TO.P,D13,1*%
%TO.N,P15*%
X186350000Y-70500000D03*
%TO.P,D13,2*%
%TO.N,ring_num*%
X189650000Y-70500000D03*
%TD*%
%TO.P,D1,1*%
%TO.N,P16*%
X148350000Y-116000000D03*
%TO.P,D1,2*%
%TO.N,outer_home*%
X151650000Y-116000000D03*
%TD*%
D12*
%TO.P,PWR1,*%
%TO.N,*%
X246350000Y-33585000D03*
X253650000Y-33585000D03*
X246350000Y-31375000D03*
X253650000Y-31375000D03*
D13*
%TO.P,PWR1,1*%
%TO.N,BAT_P*%
X247750000Y-34235000D03*
%TO.P,PWR1,2*%
%TO.N,RAW*%
X250750000Y-34235000D03*
%TO.P,PWR1,3*%
%TO.N,N/C*%
X252250000Y-34235000D03*
%TD*%
D10*
%TO.P,D18,1*%
%TO.N,P15*%
X205350000Y-67500000D03*
%TO.P,D18,2*%
%TO.N,middle_num*%
X208650000Y-67500000D03*
%TD*%
D14*
%TO.P,D29,1*%
%TO.N,P10*%
X244469184Y-145905710D03*
%TO.P,D29,2*%
%TO.N,layer_cluster*%
X247550000Y-147088324D03*
%TD*%
D15*
%TO.P,D30,1*%
%TO.N,P10*%
X261139935Y-157190584D03*
%TO.P,D30,2*%
%TO.N,space_cluster*%
X263775433Y-159176574D03*
%TD*%
D10*
%TO.P,D4,1*%
%TO.N,P18*%
X148350000Y-59000000D03*
%TO.P,D4,2*%
%TO.N,outer_nums*%
X151650000Y-59000000D03*
%TD*%
%TO.P,D5,1*%
%TO.N,P10*%
X167350000Y-135000000D03*
%TO.P,D5,2*%
%TO.N,pinky_bottom*%
X170650000Y-135000000D03*
%TD*%
%TO.P,D23,1*%
%TO.N,P18*%
X224350000Y-51500000D03*
%TO.P,D23,2*%
%TO.N,index_nums*%
X227650000Y-51500000D03*
%TD*%
%TO.P,D26,1*%
%TO.N,P15*%
X243350000Y-72500000D03*
%TO.P,D26,2*%
%TO.N,inner_num*%
X246650000Y-72500000D03*
%TD*%
%TO.P,D12,1*%
%TO.N,P14*%
X186350000Y-89500000D03*
%TO.P,D12,2*%
%TO.N,ring_top*%
X189650000Y-89500000D03*
%TD*%
%TO.P,D21,1*%
%TO.N,P14*%
X224350000Y-89500000D03*
%TO.P,D21,2*%
%TO.N,index_top*%
X227650000Y-89500000D03*
%TD*%
D16*
%TO.P,MCU1,1*%
%TO.N,MCU1_1*%
X274500000Y-34800000D03*
D17*
X276620000Y-34800000D03*
D16*
%TO.P,MCU1,2*%
%TO.N,MCU1_2*%
X274500000Y-37340000D03*
D17*
X276620000Y-37340000D03*
D16*
%TO.P,MCU1,3*%
%TO.N,MCU1_3*%
X274500000Y-39880000D03*
D17*
X276620000Y-39880000D03*
D16*
%TO.P,MCU1,4*%
%TO.N,MCU1_4*%
X274500000Y-42420000D03*
D17*
X276620000Y-42420000D03*
D16*
%TO.P,MCU1,5*%
%TO.N,MCU1_5*%
X274500000Y-44960000D03*
D17*
X276620000Y-44960000D03*
D16*
%TO.P,MCU1,6*%
%TO.N,MCU1_6*%
X274500000Y-47500000D03*
D17*
X276620000Y-47500000D03*
D16*
%TO.P,MCU1,7*%
%TO.N,MCU1_7*%
X274500000Y-50040000D03*
D17*
X276620000Y-50040000D03*
D16*
%TO.P,MCU1,8*%
%TO.N,MCU1_8*%
X274500000Y-52580000D03*
D17*
X276620000Y-52580000D03*
D16*
%TO.P,MCU1,9*%
%TO.N,MCU1_9*%
X274500000Y-55120000D03*
D17*
X276620000Y-55120000D03*
D16*
%TO.P,MCU1,10*%
%TO.N,MCU1_10*%
X274500000Y-57660000D03*
D17*
X276620000Y-57660000D03*
D16*
%TO.P,MCU1,11*%
%TO.N,MCU1_11*%
X274500000Y-60200000D03*
D17*
X276620000Y-60200000D03*
D16*
%TO.P,MCU1,12*%
%TO.N,MCU1_12*%
X274500000Y-62740000D03*
D17*
X276620000Y-62740000D03*
%TO.P,MCU1,13*%
%TO.N,MCU1_13*%
X261380000Y-62740000D03*
D18*
X263500000Y-62740000D03*
D17*
%TO.P,MCU1,14*%
%TO.N,MCU1_14*%
X261380000Y-60200000D03*
D18*
X263500000Y-60200000D03*
D17*
%TO.P,MCU1,15*%
%TO.N,MCU1_15*%
X261380000Y-57660000D03*
D18*
X263500000Y-57660000D03*
D17*
%TO.P,MCU1,16*%
%TO.N,MCU1_16*%
X261380000Y-55120000D03*
D18*
X263500000Y-55120000D03*
D17*
%TO.P,MCU1,17*%
%TO.N,MCU1_17*%
X261380000Y-52580000D03*
D18*
X263500000Y-52580000D03*
D17*
%TO.P,MCU1,18*%
%TO.N,MCU1_18*%
X261380000Y-50040000D03*
D18*
X263500000Y-50040000D03*
D17*
%TO.P,MCU1,19*%
%TO.N,MCU1_19*%
X261380000Y-47500000D03*
D18*
X263500000Y-47500000D03*
D17*
%TO.P,MCU1,20*%
%TO.N,MCU1_20*%
X261380000Y-44960000D03*
D18*
X263500000Y-44960000D03*
D17*
%TO.P,MCU1,21*%
%TO.N,MCU1_21*%
X261380000Y-42420000D03*
D18*
X263500000Y-42420000D03*
D17*
%TO.P,MCU1,22*%
%TO.N,MCU1_22*%
X261380000Y-39880000D03*
D18*
X263500000Y-39880000D03*
D17*
%TO.P,MCU1,23*%
%TO.N,MCU1_23*%
X261380000Y-37340000D03*
D18*
X263500000Y-37340000D03*
D17*
%TO.P,MCU1,24*%
%TO.N,MCU1_24*%
X261380000Y-34800000D03*
D18*
X263500000Y-34800000D03*
D19*
%TO.P,MCU1,101*%
%TO.N,P1*%
X264225000Y-34800000D03*
D20*
X272400000Y-34800000D03*
D19*
%TO.P,MCU1,102*%
%TO.N,P0*%
X264225000Y-37340000D03*
D20*
X272400000Y-37340000D03*
D19*
%TO.P,MCU1,103*%
%TO.N,GND*%
X264225000Y-39880000D03*
D20*
X272400000Y-39880000D03*
D19*
%TO.P,MCU1,104*%
X264225000Y-42420000D03*
D20*
X272400000Y-42420000D03*
D19*
%TO.P,MCU1,105*%
%TO.N,P2*%
X264225000Y-44960000D03*
D20*
X272400000Y-44960000D03*
D19*
%TO.P,MCU1,106*%
%TO.N,P3*%
X264225000Y-47500000D03*
D20*
X272400000Y-47500000D03*
D19*
%TO.P,MCU1,107*%
%TO.N,P4*%
X264225000Y-50040000D03*
D20*
X272400000Y-50040000D03*
D19*
%TO.P,MCU1,108*%
%TO.N,P5*%
X264225000Y-52580000D03*
D20*
X272400000Y-52580000D03*
D19*
%TO.P,MCU1,109*%
%TO.N,P6*%
X264225000Y-55120000D03*
D20*
X272400000Y-55120000D03*
D19*
%TO.P,MCU1,110*%
%TO.N,P7*%
X264225000Y-57660000D03*
D20*
X272400000Y-57660000D03*
D19*
%TO.P,MCU1,111*%
%TO.N,P8*%
X264225000Y-60200000D03*
D20*
X272400000Y-60200000D03*
D19*
%TO.P,MCU1,112*%
%TO.N,P9*%
X264225000Y-62740000D03*
D20*
X272400000Y-62740000D03*
%TO.P,MCU1,113*%
%TO.N,P10*%
X265600000Y-62740000D03*
D21*
X273775000Y-62740000D03*
D20*
%TO.P,MCU1,114*%
%TO.N,P16*%
X265600000Y-60200000D03*
D21*
X273775000Y-60200000D03*
D20*
%TO.P,MCU1,115*%
%TO.N,P14*%
X265600000Y-57660000D03*
D21*
X273775000Y-57660000D03*
D20*
%TO.P,MCU1,116*%
%TO.N,P15*%
X265600000Y-55120000D03*
D21*
X273775000Y-55120000D03*
D20*
%TO.P,MCU1,117*%
%TO.N,P18*%
X265600000Y-52580000D03*
D21*
X273775000Y-52580000D03*
D20*
%TO.P,MCU1,118*%
%TO.N,P19*%
X265600000Y-50040000D03*
D21*
X273775000Y-50040000D03*
D20*
%TO.P,MCU1,119*%
%TO.N,P20*%
X265600000Y-47500000D03*
D21*
X273775000Y-47500000D03*
D20*
%TO.P,MCU1,120*%
%TO.N,P21*%
X265600000Y-44960000D03*
D21*
X273775000Y-44960000D03*
D20*
%TO.P,MCU1,121*%
%TO.N,VCC*%
X265600000Y-42420000D03*
D21*
X273775000Y-42420000D03*
D20*
%TO.P,MCU1,122*%
%TO.N,RST*%
X265600000Y-39880000D03*
D21*
X273775000Y-39880000D03*
D20*
%TO.P,MCU1,123*%
%TO.N,GND*%
X265600000Y-37340000D03*
D21*
X273775000Y-37340000D03*
D20*
%TO.P,MCU1,124*%
%TO.N,RAW*%
X265600000Y-34800000D03*
D21*
X273775000Y-34800000D03*
%TD*%
D22*
%TO.P,JST1,1*%
%TO.N,BAT_P*%
X273184000Y-109500000D03*
%TO.P,JST1,2*%
%TO.N,GND*%
X273184000Y-107500000D03*
D23*
%TO.P,JST1,11*%
%TO.N,JST1_1*%
X276000000Y-107500000D03*
%TO.P,JST1,12*%
%TO.N,JST1_2*%
X276000000Y-109500000D03*
D24*
%TO.P,JST1,31*%
%TO.N,JST1_1*%
X274200000Y-107500000D03*
%TO.P,JST1,32*%
%TO.N,JST1_2*%
X274200000Y-109500000D03*
%TD*%
D10*
%TO.P,D17,1*%
%TO.N,P14*%
X205350000Y-86500000D03*
%TO.P,D17,2*%
%TO.N,middle_top*%
X208650000Y-86500000D03*
%TD*%
%TO.P,D22,1*%
%TO.N,P15*%
X224350000Y-70500000D03*
%TO.P,D22,2*%
%TO.N,index_num*%
X227650000Y-70500000D03*
%TD*%
%TO.P,D16,1*%
%TO.N,P16*%
X205350000Y-105500000D03*
%TO.P,D16,2*%
%TO.N,middle_home*%
X208650000Y-105500000D03*
%TD*%
%TO.P,D15,1*%
%TO.N,P10*%
X205350000Y-124500000D03*
%TO.P,D15,2*%
%TO.N,middle_bottom*%
X208650000Y-124500000D03*
%TD*%
%TO.P,D14,1*%
%TO.N,P18*%
X186350000Y-51500000D03*
%TO.P,D14,2*%
%TO.N,ring_nums*%
X189650000Y-51500000D03*
%TD*%
D25*
%TO.P,S13,1*%
%TO.N,P7*%
X180915000Y-62960000D03*
D26*
%TO.P,S13,2*%
%TO.N,ring_num*%
X193842000Y-60420000D03*
%TD*%
D25*
%TO.P,S6,1*%
%TO.N,P8*%
X161915000Y-108460000D03*
D26*
%TO.P,S6,2*%
%TO.N,pinky_home*%
X174842000Y-105920000D03*
%TD*%
D25*
%TO.P,S4,1*%
%TO.N,P9*%
X142915000Y-51460000D03*
D26*
%TO.P,S4,2*%
%TO.N,outer_nums*%
X155842000Y-48920000D03*
%TD*%
D25*
%TO.P,S25,1*%
%TO.N,P4*%
X237915000Y-83960000D03*
D26*
%TO.P,S25,2*%
%TO.N,inner_top*%
X250842000Y-81420000D03*
%TD*%
D25*
%TO.P,S27,1*%
%TO.N,P4*%
X237915000Y-45960000D03*
D26*
%TO.P,S27,2*%
%TO.N,inner_nums*%
X250842000Y-43420000D03*
%TD*%
D25*
%TO.P,S11,1*%
%TO.N,P7*%
X180915000Y-100960000D03*
D26*
%TO.P,S11,2*%
%TO.N,ring_home*%
X193842000Y-98420000D03*
%TD*%
D25*
%TO.P,S1,1*%
%TO.N,P9*%
X142915000Y-108460000D03*
D26*
%TO.P,S1,2*%
%TO.N,outer_home*%
X155842000Y-105920000D03*
%TD*%
D25*
%TO.P,S15,1*%
%TO.N,P7*%
X199915000Y-116960000D03*
D26*
%TO.P,S15,2*%
%TO.N,middle_bottom*%
X212842000Y-114420000D03*
%TD*%
D25*
%TO.P,S3,1*%
%TO.N,P9*%
X142915000Y-70460000D03*
D26*
%TO.P,S3,2*%
%TO.N,outer_num*%
X155842000Y-67920000D03*
%TD*%
D25*
%TO.P,S14,1*%
%TO.N,P7*%
X180915000Y-43960000D03*
D26*
%TO.P,S14,2*%
%TO.N,ring_nums*%
X193842000Y-41420000D03*
%TD*%
D27*
%TO.P,S30,1*%
%TO.N,P4*%
X261337038Y-147898008D03*
D28*
%TO.P,S30,2*%
%TO.N,space_cluster*%
X273189609Y-153649137D03*
%TD*%
D25*
%TO.P,S19,1*%
%TO.N,P6*%
X199915000Y-40960000D03*
D26*
%TO.P,S19,2*%
%TO.N,middle_nums*%
X212842000Y-38420000D03*
%TD*%
D25*
%TO.P,S22,1*%
%TO.N,P5*%
X218915000Y-62960000D03*
D26*
%TO.P,S22,2*%
%TO.N,index_num*%
X231842000Y-60420000D03*
%TD*%
D25*
%TO.P,S8,1*%
%TO.N,P8*%
X161915000Y-70460000D03*
D26*
%TO.P,S8,2*%
%TO.N,pinky_num*%
X174842000Y-67920000D03*
%TD*%
D25*
%TO.P,S5,1*%
%TO.N,P9*%
X161915000Y-127460000D03*
D26*
%TO.P,S5,2*%
%TO.N,pinky_bottom*%
X174842000Y-124920000D03*
%TD*%
D29*
%TO.P,S28,1*%
%TO.N,P6*%
X218555077Y-135660412D03*
D30*
%TO.P,S28,2*%
%TO.N,filler_cluster*%
X231273406Y-132224857D03*
%TD*%
D25*
%TO.P,S2,1*%
%TO.N,P9*%
X142915000Y-89460000D03*
D26*
%TO.P,S2,2*%
%TO.N,outer_top*%
X155842000Y-86920000D03*
%TD*%
D25*
%TO.P,S23,1*%
%TO.N,P5*%
X218915000Y-43960000D03*
D26*
%TO.P,S23,2*%
%TO.N,index_nums*%
X231842000Y-41420000D03*
%TD*%
D25*
%TO.P,S16,1*%
%TO.N,P6*%
X199915000Y-97960000D03*
D26*
%TO.P,S16,2*%
%TO.N,middle_home*%
X212842000Y-95420000D03*
%TD*%
D25*
%TO.P,S12,1*%
%TO.N,P7*%
X180915000Y-81960000D03*
D26*
%TO.P,S12,2*%
%TO.N,ring_top*%
X193842000Y-79420000D03*
%TD*%
D25*
%TO.P,S7,1*%
%TO.N,P8*%
X161915000Y-89460000D03*
D26*
%TO.P,S7,2*%
%TO.N,pinky_top*%
X174842000Y-86920000D03*
%TD*%
D25*
%TO.P,S21,1*%
%TO.N,P5*%
X218915000Y-81960000D03*
D26*
%TO.P,S21,2*%
%TO.N,index_top*%
X231842000Y-79420000D03*
%TD*%
D25*
%TO.P,S17,1*%
%TO.N,P6*%
X199915000Y-78960000D03*
D26*
%TO.P,S17,2*%
%TO.N,middle_top*%
X212842000Y-76420000D03*
%TD*%
D31*
%TO.P,S29,1*%
%TO.N,P5*%
X242097268Y-136918784D03*
D32*
%TO.P,S29,2*%
%TO.N,layer_cluster*%
X255075917Y-139180112D03*
%TD*%
D25*
%TO.P,S10,1*%
%TO.N,P8*%
X180915000Y-119960000D03*
D26*
%TO.P,S10,2*%
%TO.N,ring_bottom*%
X193842000Y-117420000D03*
%TD*%
D25*
%TO.P,S20,1*%
%TO.N,P5*%
X218915000Y-100960000D03*
D26*
%TO.P,S20,2*%
%TO.N,index_home*%
X231842000Y-98420000D03*
%TD*%
D25*
%TO.P,S9,1*%
%TO.N,P8*%
X161915000Y-51460000D03*
D26*
%TO.P,S9,2*%
%TO.N,pinky_nums*%
X174842000Y-48920000D03*
%TD*%
D25*
%TO.P,S24,1*%
%TO.N,P4*%
X237915000Y-102960000D03*
D26*
%TO.P,S24,2*%
%TO.N,inner_home*%
X250842000Y-100420000D03*
%TD*%
D25*
%TO.P,S26,1*%
%TO.N,P4*%
X237915000Y-64960000D03*
D26*
%TO.P,S26,2*%
%TO.N,inner_num*%
X250842000Y-62420000D03*
%TD*%
D25*
%TO.P,S18,1*%
%TO.N,P6*%
X199915000Y-59960000D03*
D26*
%TO.P,S18,2*%
%TO.N,middle_num*%
X212842000Y-57420000D03*
%TD*%
D33*
%TO.N,P9*%
X273850000Y-65150000D03*
X150000000Y-48070000D03*
X150000000Y-86070000D03*
X275342819Y-74800000D03*
X150000000Y-67070000D03*
X150000000Y-105070000D03*
X169000000Y-124070000D03*
%TO.N,outer_home*%
X152850000Y-116000000D03*
X150000000Y-104041000D03*
%TO.N,GND*%
X273184000Y-106150000D03*
%TO.N,outer_top*%
X150000000Y-85041000D03*
X152850000Y-97000000D03*
%TO.N,outer_num*%
X152850000Y-78000000D03*
X150000000Y-66041000D03*
%TO.N,outer_nums*%
X150000000Y-47041000D03*
X152850000Y-59000000D03*
%TO.N,pinky_bottom*%
X169000000Y-123041000D03*
X171850000Y-135000000D03*
%TO.N,P8*%
X169000000Y-67070000D03*
X169000000Y-86070000D03*
X274388225Y-74800000D03*
X272900000Y-65150000D03*
X169000000Y-48070000D03*
X188000000Y-116570000D03*
X169000000Y-105070000D03*
%TO.N,pinky_home*%
X171850000Y-116000000D03*
X169000000Y-104041000D03*
%TO.N,pinky_top*%
X169000000Y-85041000D03*
X171850000Y-97000000D03*
%TO.N,pinky_num*%
X171850000Y-78000000D03*
X169000000Y-66041000D03*
%TO.N,pinky_nums*%
X171850000Y-59000000D03*
X169000000Y-47041000D03*
%TO.N,ring_bottom*%
X188000000Y-115541000D03*
X190850000Y-127500000D03*
%TO.N,P7*%
X207000000Y-113570000D03*
X271900000Y-65150000D03*
X188000000Y-59570000D03*
X188000000Y-40570000D03*
X188000000Y-78570000D03*
X188000000Y-97570000D03*
X273398275Y-74800000D03*
%TO.N,ring_home*%
X190850000Y-108500000D03*
X188000000Y-96541000D03*
%TO.N,ring_top*%
X190850000Y-89500000D03*
X188000000Y-77541000D03*
%TO.N,ring_num*%
X188000000Y-58541000D03*
X190850000Y-70500000D03*
%TO.N,ring_nums*%
X190850000Y-51500000D03*
X188000000Y-39541000D03*
%TO.N,middle_bottom*%
X207000000Y-112541000D03*
X209850000Y-124500000D03*
%TO.N,P6*%
X272443681Y-74800000D03*
X207000000Y-94570000D03*
X207000000Y-56570000D03*
X270950000Y-65150000D03*
X207000000Y-37570000D03*
X207000000Y-75570000D03*
X225386344Y-131784445D03*
%TO.N,middle_home*%
X207000000Y-93541000D03*
X209850000Y-105500000D03*
%TO.N,middle_top*%
X209850000Y-86500000D03*
X207000000Y-74541000D03*
%TO.N,middle_num*%
X209850000Y-67500000D03*
X207000000Y-55541000D03*
%TO.N,middle_nums*%
X209850000Y-48500000D03*
X207000000Y-36541000D03*
%TO.N,P5*%
X271489087Y-74800000D03*
X270000000Y-65150000D03*
X226000000Y-97570000D03*
X226000000Y-78570000D03*
X249926553Y-136292983D03*
X226000000Y-59570000D03*
X226000000Y-40570000D03*
%TO.N,index_home*%
X226000000Y-96541000D03*
X228850000Y-108500000D03*
%TO.N,index_top*%
X228850000Y-89500000D03*
X226000000Y-77541000D03*
%TO.N,index_num*%
X226000000Y-58541000D03*
X228850000Y-70500000D03*
%TO.N,index_nums*%
X226000000Y-39541000D03*
X228850000Y-51500000D03*
%TO.N,P4*%
X245000000Y-99570000D03*
X269000000Y-65150000D03*
X269035523Y-149454493D03*
X245000000Y-61570000D03*
X270499137Y-74800000D03*
X245000000Y-42570000D03*
X245000000Y-80570000D03*
%TO.N,inner_home*%
X247850000Y-110500000D03*
X245000000Y-98541000D03*
%TO.N,inner_top*%
X245000000Y-79541000D03*
X247850000Y-91500000D03*
%TO.N,inner_num*%
X247850000Y-72500000D03*
X245000000Y-60541000D03*
%TO.N,inner_nums*%
X247850000Y-53500000D03*
X245000000Y-41541000D03*
%TO.N,filler_cluster*%
X228991840Y-142489014D03*
X225314565Y-130757952D03*
%TO.N,layer_cluster*%
X250295314Y-135332329D03*
X248670296Y-147518366D03*
%TO.N,space_cluster*%
X264733796Y-159898752D03*
X269654790Y-148632697D03*
%TO.N,P16*%
X266645406Y-74800000D03*
X223150000Y-108500000D03*
X204150000Y-105500000D03*
X166150000Y-116000000D03*
X185150000Y-108500000D03*
X265150000Y-65150000D03*
X147150000Y-116000000D03*
X242150000Y-110500000D03*
%TO.N,P14*%
X185150000Y-89500000D03*
X147150000Y-97000000D03*
X204150000Y-86500000D03*
X223150000Y-89500000D03*
X267600000Y-74800000D03*
X166150000Y-97000000D03*
X242150000Y-91500000D03*
X266100000Y-65150000D03*
%TO.N,P15*%
X185150000Y-70500000D03*
X268550000Y-74800000D03*
X223150000Y-70500000D03*
X242150000Y-72500000D03*
X166150000Y-78000000D03*
X147150000Y-78000000D03*
X267050000Y-65150000D03*
X204150000Y-67500000D03*
%TO.N,P18*%
X223150000Y-51500000D03*
X268050000Y-65150000D03*
X204150000Y-48500000D03*
X242150000Y-53500000D03*
X147150000Y-59000000D03*
X269544543Y-74800000D03*
X185150000Y-51500000D03*
X166150000Y-59000000D03*
%TO.N,P10*%
X260181573Y-156468407D03*
X185150000Y-127500000D03*
X243348887Y-145475668D03*
X265655457Y-74800000D03*
X264155457Y-65150000D03*
X204150000Y-124500000D03*
X223305725Y-142886626D03*
X166150000Y-135000000D03*
%TO.N,RAW*%
X251300000Y-35950000D03*
%TO.N,BAT_P*%
X247750000Y-36700000D03*
X271800000Y-109500000D03*
%TD*%
D34*
%TO.N,P9*%
X266395305Y-62970000D02*
X272170000Y-62970000D01*
D35*
X275350000Y-69855458D02*
X275350000Y-74800000D01*
X142915000Y-70460000D02*
X142915000Y-68960000D01*
X145834000Y-104041000D02*
X148971000Y-104041000D01*
D34*
X265299695Y-63465000D02*
X265900305Y-63465000D01*
D35*
X142915000Y-127015000D02*
X143360000Y-127460000D01*
X142915000Y-68960000D02*
X145834000Y-66041000D01*
X142915000Y-108460000D02*
X142915000Y-127015000D01*
X142915000Y-89460000D02*
X142915000Y-87960000D01*
X273850000Y-65150000D02*
X273850000Y-68355458D01*
X145834000Y-85041000D02*
X148971000Y-85041000D01*
X145834000Y-47041000D02*
X148971000Y-47041000D01*
X148971000Y-47041000D02*
X150000000Y-48070000D01*
D34*
X265900305Y-63465000D02*
X266395305Y-62970000D01*
D35*
X273850000Y-68355458D02*
X275350000Y-69855458D01*
D34*
X264225000Y-62740000D02*
X264574695Y-62740000D01*
X264574695Y-62740000D02*
X265299695Y-63465000D01*
D35*
X143360000Y-127460000D02*
X161915000Y-127460000D01*
X148971000Y-104041000D02*
X150000000Y-105070000D01*
X145834000Y-66041000D02*
X148971000Y-66041000D01*
X161915000Y-125960000D02*
X164834000Y-123041000D01*
X142915000Y-51460000D02*
X142915000Y-49960000D01*
X142915000Y-51460000D02*
X142915000Y-70460000D01*
X142915000Y-108460000D02*
X142915000Y-106960000D01*
X142915000Y-106960000D02*
X145834000Y-104041000D01*
X161915000Y-127460000D02*
X161915000Y-125960000D01*
X142915000Y-49960000D02*
X145834000Y-47041000D01*
X148971000Y-85041000D02*
X150000000Y-86070000D01*
X142915000Y-87960000D02*
X145834000Y-85041000D01*
X164834000Y-123041000D02*
X167971000Y-123041000D01*
X148971000Y-66041000D02*
X150000000Y-67070000D01*
X167971000Y-123041000D02*
X169000000Y-124070000D01*
X142915000Y-89460000D02*
X142915000Y-108460000D01*
X142915000Y-70460000D02*
X142915000Y-89460000D01*
D34*
%TO.N,outer_home*%
X152850000Y-116000000D02*
X151650000Y-116000000D01*
D35*
X153963000Y-104041000D02*
X155842000Y-105920000D01*
X155200000Y-116000000D02*
X152850000Y-116000000D01*
X156381000Y-106459000D02*
X156381000Y-114819000D01*
X150000000Y-104041000D02*
X153963000Y-104040500D01*
X155842000Y-105920000D02*
X156381000Y-106459000D01*
X156381000Y-114819000D02*
X155200000Y-116000000D01*
D34*
%TO.N,GND*%
X272700305Y-36615000D02*
X272099695Y-36615000D01*
X264574695Y-39880000D02*
X265299695Y-40605000D01*
X264225000Y-42420000D02*
X264574695Y-42420000D01*
D35*
X273184000Y-107500000D02*
X273184000Y-106150000D01*
X277700000Y-43700000D02*
X272672467Y-43700000D01*
D34*
X265299695Y-43145000D02*
X265900305Y-43145000D01*
D35*
X272400000Y-43427533D02*
X272400000Y-42420000D01*
D34*
X265299695Y-40605000D02*
X265900305Y-40605000D01*
D35*
X273184000Y-106150000D02*
X273184000Y-104166000D01*
D34*
X273775000Y-37340000D02*
X273425305Y-37340000D01*
D35*
X278100000Y-99250000D02*
X278100000Y-44100000D01*
X273184000Y-104166000D02*
X278100000Y-99250000D01*
D34*
X264574695Y-42420000D02*
X265299695Y-43145000D01*
X265900305Y-40605000D02*
X266395305Y-40110000D01*
D35*
X272672467Y-43700000D02*
X272400000Y-43427533D01*
D34*
X266395305Y-42650000D02*
X272170000Y-42650000D01*
X271594695Y-37120000D02*
X265820000Y-37120000D01*
X265900305Y-43145000D02*
X266395305Y-42650000D01*
X264225000Y-39880000D02*
X264574695Y-39880000D01*
X273425305Y-37340000D02*
X272700305Y-36615000D01*
D35*
X278100000Y-44100000D02*
X277700000Y-43700000D01*
D34*
X272099695Y-36615000D02*
X271594695Y-37120000D01*
X266395305Y-40110000D02*
X272170000Y-40110000D01*
D35*
%TO.N,outer_top*%
X155550000Y-97000000D02*
X152850000Y-97000000D01*
X156381000Y-96169000D02*
X155550000Y-97000000D01*
D34*
X152850000Y-97000000D02*
X151650000Y-97000000D01*
D35*
X150000000Y-85041000D02*
X153963000Y-85040500D01*
X155842000Y-86920000D02*
X156381000Y-87459000D01*
X156381000Y-87459000D02*
X156381000Y-96169000D01*
X153963000Y-85041000D02*
X155842000Y-86920000D01*
%TO.N,outer_num*%
X150000000Y-66041000D02*
X153963000Y-66040500D01*
X155250000Y-78000000D02*
X152850000Y-78000000D01*
X156381000Y-76869000D02*
X155250000Y-78000000D01*
X153963000Y-66041000D02*
X155842000Y-67920000D01*
D34*
X152850000Y-78000000D02*
X151650000Y-78000000D01*
D35*
X156381000Y-68459000D02*
X156381000Y-76869000D01*
X155842000Y-67920000D02*
X156381000Y-68459000D01*
%TO.N,outer_nums*%
X156381000Y-58119000D02*
X155500000Y-59000000D01*
X155500000Y-59000000D02*
X152850000Y-59000000D01*
X156381000Y-49459000D02*
X156381000Y-58119000D01*
X150000000Y-47041000D02*
X153963000Y-47040500D01*
X155842000Y-48920000D02*
X156381000Y-49459000D01*
D34*
X152850000Y-59000000D02*
X151650000Y-59000000D01*
D35*
X153963000Y-47041000D02*
X155842000Y-48920000D01*
%TO.N,pinky_bottom*%
X174050000Y-135000000D02*
X171850000Y-135000000D01*
X169000000Y-123041000D02*
X172963000Y-123040500D01*
X174842000Y-124920000D02*
X175381000Y-125459000D01*
D34*
X171850000Y-135000000D02*
X170650000Y-135000000D01*
D35*
X175381000Y-125459000D02*
X175381000Y-133669000D01*
X172963000Y-123041000D02*
X174842000Y-124920000D01*
X175381000Y-133669000D02*
X174050000Y-135000000D01*
%TO.N,P8*%
X164834000Y-104041000D02*
X167971000Y-104041000D01*
X186971000Y-115541000D02*
X188000000Y-116570000D01*
X164834000Y-66041000D02*
X167971000Y-66041000D01*
X162460000Y-119960000D02*
X180915000Y-119960000D01*
D34*
X265900305Y-60925000D02*
X266395305Y-60430000D01*
D35*
X167971000Y-85041000D02*
X169000000Y-86070000D01*
X272900000Y-65150000D02*
X272900000Y-68355458D01*
X161915000Y-51460000D02*
X161915000Y-49960000D01*
D34*
X264225000Y-60200000D02*
X264574695Y-60200000D01*
D35*
X161915000Y-51460000D02*
X161915000Y-70460000D01*
X161915000Y-68960000D02*
X164834000Y-66041000D01*
X167971000Y-47041000D02*
X169000000Y-48070000D01*
X161915000Y-106960000D02*
X164834000Y-104041000D01*
X180915000Y-118460000D02*
X183834000Y-115541000D01*
X161915000Y-87960000D02*
X164834000Y-85041000D01*
X161915000Y-119415000D02*
X162460000Y-119960000D01*
X161915000Y-89460000D02*
X161915000Y-108460000D01*
X161915000Y-89460000D02*
X161915000Y-87960000D01*
X167971000Y-66041000D02*
X169000000Y-67070000D01*
X161915000Y-108460000D02*
X161915000Y-119415000D01*
X164834000Y-85041000D02*
X167971000Y-85041000D01*
X183834000Y-115541000D02*
X186971000Y-115541000D01*
D34*
X265299695Y-60925000D02*
X265900305Y-60925000D01*
D35*
X161915000Y-70460000D02*
X161915000Y-68960000D01*
D34*
X264574695Y-60200000D02*
X265299695Y-60925000D01*
D35*
X167971000Y-104041000D02*
X169000000Y-105070000D01*
X272900000Y-68355458D02*
X274400000Y-69855458D01*
X161915000Y-70460000D02*
X161915000Y-89460000D01*
X274400000Y-69855458D02*
X274400000Y-74800000D01*
X161915000Y-108460000D02*
X161915000Y-106960000D01*
X180915000Y-119960000D02*
X180915000Y-118460000D01*
X164834000Y-47041000D02*
X167971000Y-47041000D01*
D34*
X266395305Y-60430000D02*
X272170000Y-60430000D01*
D35*
X161915000Y-49960000D02*
X164834000Y-47041000D01*
%TO.N,pinky_home*%
X172963000Y-104041000D02*
X174842000Y-105920000D01*
X174000000Y-116000000D02*
X171850000Y-116000000D01*
D34*
X171850000Y-116000000D02*
X170650000Y-116000000D01*
D35*
X169000000Y-104041000D02*
X172963000Y-104040500D01*
X175381000Y-106459000D02*
X175381000Y-114619000D01*
X174842000Y-105920000D02*
X175381000Y-106459000D01*
X175381000Y-114619000D02*
X174000000Y-116000000D01*
%TO.N,pinky_top*%
X175381000Y-95769000D02*
X174150000Y-97000000D01*
X174150000Y-97000000D02*
X171850000Y-97000000D01*
X175381000Y-87459000D02*
X175381000Y-95769000D01*
X169000000Y-85041000D02*
X172963000Y-85040500D01*
D34*
X171850000Y-97000000D02*
X170650000Y-97000000D01*
D35*
X174842000Y-86920000D02*
X175381000Y-87459000D01*
X172963000Y-85041000D02*
X174842000Y-86920000D01*
%TO.N,pinky_num*%
X169000000Y-66041000D02*
X172963000Y-66040500D01*
D34*
X171850000Y-78000000D02*
X170650000Y-78000000D01*
D35*
X175381000Y-77019000D02*
X174400000Y-78000000D01*
X175381000Y-68459000D02*
X175381000Y-77019000D01*
X174400000Y-78000000D02*
X171850000Y-78000000D01*
X174842000Y-67920000D02*
X175381000Y-68459000D01*
X172963000Y-66041000D02*
X174842000Y-67920000D01*
%TO.N,pinky_nums*%
X174350000Y-59000000D02*
X171850000Y-59000000D01*
D34*
X171850000Y-59000000D02*
X170650000Y-59000000D01*
D35*
X175381000Y-49459000D02*
X175381000Y-57969000D01*
X174842000Y-48920000D02*
X175381000Y-49459000D01*
X169000000Y-47041000D02*
X172963000Y-47040500D01*
X172963000Y-47041000D02*
X174842000Y-48920000D01*
X175381000Y-57969000D02*
X174350000Y-59000000D01*
%TO.N,ring_bottom*%
X194381000Y-126169000D02*
X193050000Y-127500000D01*
X193050000Y-127500000D02*
X190850000Y-127500000D01*
X191963000Y-115541000D02*
X193842000Y-117420000D01*
D34*
X190850000Y-127500000D02*
X189650000Y-127500000D01*
D35*
X194381000Y-117959000D02*
X194381000Y-126169000D01*
X188000000Y-115541000D02*
X191963000Y-115540500D01*
X193842000Y-117420000D02*
X194381000Y-117959000D01*
%TO.N,P7*%
X199915000Y-116960000D02*
X199915000Y-115460000D01*
D34*
X266395305Y-57890000D02*
X272170000Y-57890000D01*
X265900305Y-58385000D02*
X266395305Y-57890000D01*
D35*
X180915000Y-100960000D02*
X180915000Y-99460000D01*
X186971000Y-96541000D02*
X188000000Y-97570000D01*
X180915000Y-99460000D02*
X183834000Y-96541000D01*
X186971000Y-77541000D02*
X188000000Y-78570000D01*
X180915000Y-81960000D02*
X180915000Y-80460000D01*
X181350000Y-114100000D02*
X199000000Y-114100000D01*
X180915000Y-62960000D02*
X180915000Y-81960000D01*
X180915000Y-113665000D02*
X181350000Y-114100000D01*
X199915000Y-115460000D02*
X202834000Y-112541000D01*
X180915000Y-81960000D02*
X180915000Y-100960000D01*
X180915000Y-43960000D02*
X180915000Y-62960000D01*
X183834000Y-58541000D02*
X186971000Y-58541000D01*
X180915000Y-61460000D02*
X183834000Y-58541000D01*
X186971000Y-58541000D02*
X188000000Y-59570000D01*
X271900000Y-68355458D02*
X273400000Y-69855458D01*
X271900000Y-65150000D02*
X271900000Y-68355458D01*
X180915000Y-80460000D02*
X183834000Y-77541000D01*
X183834000Y-77541000D02*
X186971000Y-77541000D01*
X180915000Y-43960000D02*
X180915000Y-42460000D01*
X180915000Y-62960000D02*
X180915000Y-61460000D01*
X180915000Y-42460000D02*
X183834000Y-39541000D01*
X199915000Y-115015000D02*
X199915000Y-116960000D01*
X180915000Y-100960000D02*
X180915000Y-113665000D01*
D34*
X265299695Y-58385000D02*
X265900305Y-58385000D01*
D35*
X183834000Y-96541000D02*
X186971000Y-96541000D01*
X273400000Y-69855458D02*
X273400000Y-74800000D01*
X202834000Y-112541000D02*
X205971000Y-112541000D01*
X205971000Y-112541000D02*
X207000000Y-113570000D01*
X183834000Y-39541000D02*
X186971000Y-39541000D01*
D34*
X264574695Y-57660000D02*
X265299695Y-58385000D01*
D35*
X186971000Y-39541000D02*
X188000000Y-40570000D01*
D34*
X264225000Y-57660000D02*
X264574695Y-57660000D01*
D35*
X199000000Y-114100000D02*
X199915000Y-115015000D01*
%TO.N,ring_home*%
X193842000Y-98420000D02*
X194381000Y-98959000D01*
X194381000Y-98959000D02*
X194381000Y-107119000D01*
X194381000Y-107119000D02*
X193000000Y-108500000D01*
X188000000Y-96541000D02*
X191963000Y-96540500D01*
X191963000Y-96541000D02*
X193842000Y-98420000D01*
X193000000Y-108500000D02*
X190850000Y-108500000D01*
D34*
X190850000Y-108500000D02*
X189650000Y-108500000D01*
D35*
%TO.N,ring_top*%
X194381000Y-79959000D02*
X194381000Y-88569000D01*
X193450000Y-89500000D02*
X190850000Y-89500000D01*
X191963000Y-77541000D02*
X193842000Y-79420000D01*
X193842000Y-79420000D02*
X194381000Y-79959000D01*
X188000000Y-77541000D02*
X191963000Y-77540500D01*
X194381000Y-88569000D02*
X193450000Y-89500000D01*
D34*
X190850000Y-89500000D02*
X189650000Y-89500000D01*
%TO.N,ring_num*%
X190850000Y-70500000D02*
X193250000Y-70500000D01*
X194450000Y-61028000D02*
X193842000Y-60420000D01*
X193250000Y-70500000D02*
X194450000Y-69300000D01*
X190850000Y-70500000D02*
X189650000Y-70500000D01*
X194450000Y-69300000D02*
X194450000Y-61028000D01*
D35*
X188000000Y-58541000D02*
X191963000Y-58540500D01*
X191963000Y-58541000D02*
X193842000Y-60420000D01*
%TO.N,ring_nums*%
X193842000Y-41420000D02*
X194381000Y-41959000D01*
X188000000Y-39541000D02*
X191963000Y-39540500D01*
X194381000Y-41959000D02*
X194381000Y-50569000D01*
X194381000Y-50569000D02*
X193450000Y-51500000D01*
D34*
X190850000Y-51500000D02*
X189650000Y-51500000D01*
D35*
X193450000Y-51500000D02*
X190850000Y-51500000D01*
X191963000Y-39541000D02*
X193842000Y-41420000D01*
%TO.N,middle_bottom*%
X213381000Y-114959000D02*
X213381000Y-123069000D01*
D34*
X209850000Y-124500000D02*
X208650000Y-124500000D01*
D35*
X213381000Y-123069000D02*
X211950000Y-124500000D01*
X211950000Y-124500000D02*
X209850000Y-124500000D01*
X210963000Y-112541000D02*
X212842000Y-114420000D01*
X207000000Y-112541000D02*
X210963000Y-112540500D01*
X212842000Y-114420000D02*
X213381000Y-114959000D01*
%TO.N,P6*%
X270950000Y-65150000D02*
X270950000Y-68355458D01*
X224288071Y-130829731D02*
X225386344Y-131784445D01*
X202834000Y-74541000D02*
X205971000Y-74541000D01*
X272450000Y-69855458D02*
X272450000Y-74800000D01*
X270950000Y-68355458D02*
X272450000Y-69855458D01*
X199915000Y-97960000D02*
X199915000Y-96460000D01*
X199915000Y-78960000D02*
X199915000Y-97960000D01*
X199915000Y-78960000D02*
X199915000Y-77460000D01*
X202834000Y-36541000D02*
X205971000Y-36541000D01*
X199915000Y-96460000D02*
X202834000Y-93541000D01*
X205971000Y-36541000D02*
X207000000Y-37570000D01*
D34*
X266395305Y-55350000D02*
X272170000Y-55350000D01*
D35*
X199915000Y-59960000D02*
X199915000Y-78960000D01*
X199915000Y-40960000D02*
X199915000Y-59960000D01*
X199915000Y-39460000D02*
X202834000Y-36541000D01*
X199915000Y-97960000D02*
X199915000Y-109965000D01*
X218555077Y-111405077D02*
X218555077Y-135660412D01*
X199915000Y-40960000D02*
X199915000Y-39460000D01*
X205971000Y-55541000D02*
X207000000Y-56570000D01*
X218555077Y-135660412D02*
X218450443Y-134164066D01*
X200700000Y-110750000D02*
X217900000Y-110750000D01*
X199915000Y-77460000D02*
X202834000Y-74541000D01*
X199915000Y-59960000D02*
X199915000Y-58460000D01*
X218450443Y-134164066D02*
X221158713Y-131048557D01*
X205971000Y-74541000D02*
X207000000Y-75570000D01*
D34*
X265900305Y-55845000D02*
X266395305Y-55350000D01*
D35*
X199915000Y-58460000D02*
X202834000Y-55541000D01*
X205971000Y-93541000D02*
X207000000Y-94570000D01*
X199915000Y-109965000D02*
X200700000Y-110750000D01*
X202834000Y-55541000D02*
X205971000Y-55541000D01*
D34*
X265299695Y-55845000D02*
X265900305Y-55845000D01*
D35*
X217900000Y-110750000D02*
X218555077Y-111405077D01*
D34*
X264225000Y-55120000D02*
X264574695Y-55120000D01*
D35*
X221158713Y-131048557D02*
X224288071Y-130829731D01*
D34*
X264574695Y-55120000D02*
X265299695Y-55845000D01*
D35*
X202834000Y-93541000D02*
X205971000Y-93541000D01*
D34*
%TO.N,middle_home*%
X209850000Y-105500000D02*
X208650000Y-105500000D01*
D35*
X207000000Y-93541000D02*
X210963000Y-93540500D01*
X213381000Y-104219000D02*
X212100000Y-105500000D01*
X213381000Y-95959000D02*
X213381000Y-104219000D01*
X212100000Y-105500000D02*
X209850000Y-105500000D01*
X212842000Y-95420000D02*
X213381000Y-95959000D01*
X210963000Y-93541000D02*
X212842000Y-95420000D01*
%TO.N,middle_top*%
X212200000Y-86500000D02*
X209850000Y-86500000D01*
X210963000Y-74541000D02*
X212842000Y-76420000D01*
X213381000Y-76959000D02*
X213381000Y-85319000D01*
X207000000Y-74541000D02*
X210963000Y-74540500D01*
X213381000Y-85319000D02*
X212200000Y-86500000D01*
X212842000Y-76420000D02*
X213381000Y-76959000D01*
D34*
X209850000Y-86500000D02*
X208650000Y-86500000D01*
%TO.N,middle_num*%
X213406000Y-57984000D02*
X212842000Y-57420000D01*
D35*
X207000000Y-55541000D02*
X210963000Y-55540500D01*
X210963000Y-55541000D02*
X212842000Y-57420000D01*
D34*
X213406000Y-66344000D02*
X213406000Y-57984000D01*
X209850000Y-67500000D02*
X208650000Y-67500000D01*
X209850000Y-67500000D02*
X212250000Y-67500000D01*
X212250000Y-67500000D02*
X213406000Y-66344000D01*
D35*
%TO.N,middle_nums*%
X213381000Y-38959000D02*
X213381000Y-47619000D01*
D34*
X209850000Y-48500000D02*
X208650000Y-48500000D01*
D35*
X212842000Y-38420000D02*
X213381000Y-38959000D01*
X207000000Y-36541000D02*
X210963000Y-36540500D01*
X210963000Y-36541000D02*
X212842000Y-38420000D01*
X213381000Y-47619000D02*
X212500000Y-48500000D01*
X212500000Y-48500000D02*
X209850000Y-48500000D01*
%TO.N,P5*%
X218915000Y-42460000D02*
X221834000Y-39541000D01*
X221834000Y-96541000D02*
X224971000Y-96541000D01*
X218915000Y-100960000D02*
X218956077Y-101001077D01*
D34*
X264225000Y-52580000D02*
X264574695Y-52580000D01*
D35*
X218915000Y-62960000D02*
X218915000Y-81960000D01*
X242097268Y-127247268D02*
X242097268Y-136918784D01*
D34*
X265299695Y-53305000D02*
X265900305Y-53305000D01*
D35*
X218956077Y-101001077D02*
X218956077Y-125456077D01*
X270000000Y-65150000D02*
X270000000Y-68355458D01*
X218915000Y-81960000D02*
X218915000Y-100960000D01*
X218915000Y-80460000D02*
X221834000Y-77541000D01*
X218915000Y-62960000D02*
X218915000Y-61460000D01*
X270000000Y-68355458D02*
X271500000Y-69855458D01*
X242634820Y-135518413D02*
X246406018Y-133839368D01*
X249334660Y-134963568D02*
X249926553Y-136292983D01*
X218915000Y-81960000D02*
X218915000Y-80460000D01*
X271500000Y-69855458D02*
X271500000Y-74800000D01*
X219800000Y-126300000D02*
X241150000Y-126300000D01*
X218915000Y-99460000D02*
X221834000Y-96541000D01*
X218915000Y-100960000D02*
X218915000Y-99460000D01*
X246406018Y-133839368D02*
X249334660Y-134963568D01*
X218915000Y-43960000D02*
X218915000Y-42460000D01*
X218915000Y-43960000D02*
X218915000Y-62960000D01*
D34*
X265900305Y-53305000D02*
X266395305Y-52810000D01*
X266395305Y-52810000D02*
X272170000Y-52810000D01*
D35*
X218956077Y-125456077D02*
X219800000Y-126300000D01*
X221834000Y-77541000D02*
X224971000Y-77541000D01*
X218915000Y-61460000D02*
X221834000Y-58541000D01*
X242097269Y-136918784D02*
X242634820Y-135518413D01*
X221834000Y-39541000D02*
X224971000Y-39541000D01*
X224971000Y-77541000D02*
X226000000Y-78570000D01*
X224971000Y-96541000D02*
X226000000Y-97570000D01*
X241150000Y-126300000D02*
X242097268Y-127247268D01*
X221834000Y-58541000D02*
X224971000Y-58541000D01*
X224971000Y-58541000D02*
X226000000Y-59570000D01*
D34*
X264574695Y-52580000D02*
X265299695Y-53305000D01*
D35*
X224971000Y-39541000D02*
X226000000Y-40570000D01*
%TO.N,index_home*%
X232381000Y-107369000D02*
X231250000Y-108500000D01*
D34*
X228850000Y-108500000D02*
X227650000Y-108500000D01*
D35*
X226000000Y-96541000D02*
X229963000Y-96540500D01*
X229963000Y-96541000D02*
X231842000Y-98420000D01*
X231842000Y-98420000D02*
X232381000Y-98959000D01*
X232381000Y-98959000D02*
X232381000Y-107369000D01*
X231250000Y-108500000D02*
X228850000Y-108500000D01*
D34*
%TO.N,index_top*%
X228850000Y-89500000D02*
X227650000Y-89500000D01*
D35*
X232381000Y-79959000D02*
X232381000Y-88319000D01*
X229963000Y-77541000D02*
X231842000Y-79420000D01*
X231842000Y-79420000D02*
X232381000Y-79959000D01*
X226000000Y-77541000D02*
X229963000Y-77540500D01*
X231200000Y-89500000D02*
X228850000Y-89500000D01*
X232381000Y-88319000D02*
X231200000Y-89500000D01*
%TO.N,index_num*%
X226000000Y-58541000D02*
X229963000Y-58540500D01*
X232381000Y-60959000D02*
X232381000Y-69319000D01*
X229963000Y-58541000D02*
X231842000Y-60420000D01*
D34*
X228850000Y-70500000D02*
X227650000Y-70500000D01*
D35*
X231842000Y-60420000D02*
X232381000Y-60959000D01*
X232381000Y-69319000D02*
X231200000Y-70500000D01*
X231200000Y-70500000D02*
X228850000Y-70500000D01*
%TO.N,index_nums*%
X231350000Y-51500000D02*
X228850000Y-51500000D01*
X229963000Y-39541000D02*
X231842000Y-41420000D01*
X232381000Y-50469000D02*
X231350000Y-51500000D01*
D34*
X228850000Y-51500000D02*
X227650000Y-51500000D01*
D35*
X232381000Y-41959000D02*
X232381000Y-50469000D01*
X226000000Y-39541000D02*
X229963000Y-39540500D01*
X231842000Y-41420000D02*
X232381000Y-41959000D01*
%TO.N,P4*%
X237915000Y-64960000D02*
X237915000Y-63460000D01*
X237915000Y-125015000D02*
X238799000Y-125899000D01*
X240834000Y-41541000D02*
X243971000Y-41541000D01*
X237915000Y-83960000D02*
X237915000Y-102960000D01*
D34*
X264574695Y-50040000D02*
X265299695Y-50765000D01*
D35*
X237915000Y-64960000D02*
X237915000Y-83960000D01*
X237915000Y-45960000D02*
X237915000Y-64960000D01*
D34*
X266395305Y-50270000D02*
X272170000Y-50270000D01*
X265299695Y-50765000D02*
X265900305Y-50765000D01*
D35*
X270500000Y-69855458D02*
X270500000Y-74800000D01*
X243971000Y-41541000D02*
X245000000Y-42570000D01*
X237915000Y-102960000D02*
X237915000Y-101460000D01*
X237915000Y-102960000D02*
X237915000Y-125015000D01*
X240834000Y-98541000D02*
X243971000Y-98541000D01*
X237915000Y-83960000D02*
X237915000Y-82460000D01*
X268832994Y-148013430D02*
X269035523Y-149454493D01*
X269000000Y-68355458D02*
X270500000Y-69855458D01*
X269000000Y-65150000D02*
X269000000Y-68355458D01*
D34*
X265900305Y-50765000D02*
X266395305Y-50270000D01*
D35*
X237915000Y-45960000D02*
X237915000Y-44460000D01*
X262239760Y-146700055D02*
X266327675Y-146125536D01*
X243971000Y-98541000D02*
X245000000Y-99570000D01*
X238799000Y-125899000D02*
X260249000Y-125899000D01*
X261337037Y-147898008D02*
X262239760Y-146700055D01*
X243971000Y-60541000D02*
X245000000Y-61570000D01*
X261337038Y-126987038D02*
X261337038Y-147898008D01*
X237915000Y-63460000D02*
X240834000Y-60541000D01*
X237915000Y-82460000D02*
X240834000Y-79541000D01*
X243971000Y-79541000D02*
X245000000Y-80570000D01*
X240834000Y-79541000D02*
X243971000Y-79541000D01*
X266327675Y-146125536D02*
X268832994Y-148013430D01*
X260249000Y-125899000D02*
X261337038Y-126987038D01*
X237915000Y-101460000D02*
X240834000Y-98541000D01*
D34*
X264225000Y-50040000D02*
X264574695Y-50040000D01*
D35*
X237915000Y-44460000D02*
X240834000Y-41541000D01*
X240834000Y-60541000D02*
X243971000Y-60541000D01*
%TO.N,inner_home*%
X248963000Y-98541000D02*
X250842000Y-100420000D01*
X251381000Y-109019000D02*
X249900000Y-110500000D01*
X245000000Y-98541000D02*
X248963000Y-98540500D01*
X250842000Y-100420000D02*
X251381000Y-100959000D01*
X251381000Y-100959000D02*
X251381000Y-109019000D01*
D34*
X247850000Y-110500000D02*
X246650000Y-110500000D01*
D35*
X249900000Y-110500000D02*
X247850000Y-110500000D01*
%TO.N,inner_top*%
X250200000Y-91500000D02*
X247850000Y-91500000D01*
D34*
X247850000Y-91500000D02*
X246650000Y-91500000D01*
D35*
X245000000Y-79541000D02*
X248963000Y-79540500D01*
X250842000Y-81420000D02*
X251381000Y-81959000D01*
X248963000Y-79541000D02*
X250842000Y-81420000D01*
X251381000Y-81959000D02*
X251381000Y-90319000D01*
X251381000Y-90319000D02*
X250200000Y-91500000D01*
%TO.N,inner_num*%
X250050000Y-72500000D02*
X247850000Y-72500000D01*
X248963000Y-60541000D02*
X250842000Y-62420000D01*
X251381000Y-62959000D02*
X251381000Y-71169000D01*
X251381000Y-71169000D02*
X250050000Y-72500000D01*
X250842000Y-62420000D02*
X251381000Y-62959000D01*
D34*
X247850000Y-72500000D02*
X246650000Y-72500000D01*
D35*
X245000000Y-60541000D02*
X248963000Y-60540500D01*
%TO.N,inner_nums*%
X250250000Y-53500000D02*
X247850000Y-53500000D01*
X245000000Y-41541000D02*
X248963000Y-41540500D01*
D34*
X247850000Y-53500000D02*
X246650000Y-53500000D01*
D35*
X250842000Y-43420000D02*
X251381000Y-43959000D01*
X251381000Y-43959000D02*
X251381000Y-52369000D01*
X248963000Y-41541000D02*
X250842000Y-43420000D01*
X251381000Y-52369000D02*
X250250000Y-53500000D01*
%TO.N,filler_cluster*%
X231273406Y-132224857D02*
X232168625Y-133120076D01*
X231010986Y-142489014D02*
X228991840Y-142489014D01*
D34*
X228991840Y-142489014D02*
X227794763Y-142572722D01*
D35*
X229267911Y-130481507D02*
X231273406Y-132224857D01*
X225314565Y-130757952D02*
X229267876Y-130481008D01*
X232168625Y-141331375D02*
X231010986Y-142489014D01*
X232168625Y-133120076D02*
X232168625Y-141331375D01*
%TO.N,layer_cluster*%
X253995093Y-136752541D02*
X255075917Y-139180112D01*
X248688662Y-147500000D02*
X253900000Y-147500000D01*
X255075917Y-139180112D02*
X255075917Y-146324083D01*
X248670296Y-147518366D02*
X248688662Y-147500000D01*
D34*
X248670296Y-147518366D02*
X247549999Y-147088324D01*
D35*
X250295314Y-135332329D02*
X253995272Y-136752074D01*
X255075917Y-146324083D02*
X253900000Y-147500000D01*
%TO.N,space_cluster*%
X273189609Y-158710391D02*
X273189609Y-153649137D01*
X272819783Y-151017690D02*
X273189609Y-153649137D01*
X272000000Y-159900000D02*
X273189609Y-158710391D01*
D34*
X264733796Y-159898752D02*
X263775433Y-159176574D01*
D35*
X264735044Y-159900000D02*
X272000000Y-159900000D01*
X269654790Y-148632697D02*
X272820084Y-151017291D01*
X264733796Y-159898752D02*
X264735044Y-159900000D01*
D34*
%TO.N,P16*%
X166150000Y-116000000D02*
X167350000Y-116000000D01*
X273425305Y-60200000D02*
X272700305Y-59475000D01*
X242150000Y-110500000D02*
X243350000Y-110500000D01*
X185150000Y-108500000D02*
X186350000Y-108500000D01*
D35*
X265150000Y-68355458D02*
X266645406Y-69850864D01*
X266645406Y-69850864D02*
X266645406Y-74800000D01*
D34*
X147150000Y-116000000D02*
X148350000Y-116000000D01*
X273775000Y-60200000D02*
X273425305Y-60200000D01*
X204150000Y-105500000D02*
X205350000Y-105500000D01*
X223150000Y-108500000D02*
X224350000Y-108500000D01*
D35*
X265150000Y-65150000D02*
X265150000Y-68355458D01*
D34*
X271594695Y-59980000D02*
X265820000Y-59980000D01*
X272700305Y-59475000D02*
X272099695Y-59475000D01*
X272099695Y-59475000D02*
X271594695Y-59980000D01*
D35*
%TO.N,P14*%
X266100000Y-68355458D02*
X267600000Y-69855458D01*
D34*
X272099695Y-56935000D02*
X271594695Y-57440000D01*
X223150000Y-89500000D02*
X224350000Y-89500000D01*
X185150000Y-89500000D02*
X186350000Y-89500000D01*
D35*
X266100000Y-65150000D02*
X266100000Y-68355458D01*
D34*
X147150000Y-97000000D02*
X148350000Y-97000000D01*
X166150000Y-97000000D02*
X167350000Y-97000000D01*
X204150000Y-86500000D02*
X205350000Y-86500000D01*
X271594695Y-57440000D02*
X265820000Y-57440000D01*
X273775000Y-57660000D02*
X273425305Y-57660000D01*
X273425305Y-57660000D02*
X272700305Y-56935000D01*
D35*
X267600000Y-69855458D02*
X267600000Y-74800000D01*
D34*
X242150000Y-91500000D02*
X243350000Y-91500000D01*
X272700305Y-56935000D02*
X272099695Y-56935000D01*
%TO.N,P15*%
X272099695Y-54395000D02*
X271594695Y-54900000D01*
X185150000Y-70500000D02*
X186350000Y-70500000D01*
X273775000Y-55120000D02*
X273425305Y-55120000D01*
D35*
X267050000Y-65150000D02*
X267050000Y-68355458D01*
D34*
X273425305Y-55120000D02*
X272700305Y-54395000D01*
D35*
X268550000Y-69855458D02*
X268550000Y-74800000D01*
D34*
X204150000Y-67500000D02*
X205350000Y-67500000D01*
X166150000Y-78000000D02*
X167350000Y-78000000D01*
X147150000Y-78000000D02*
X148350000Y-78000000D01*
D35*
X267050000Y-68355458D02*
X268550000Y-69855458D01*
D34*
X272700305Y-54395000D02*
X272099695Y-54395000D01*
X223150000Y-70500000D02*
X224350000Y-70500000D01*
X271594695Y-54900000D02*
X265820000Y-54900000D01*
X242150000Y-72500000D02*
X243350000Y-72500000D01*
%TO.N,P18*%
X272099695Y-51855000D02*
X271594695Y-52360000D01*
X272700305Y-51855000D02*
X272099695Y-51855000D01*
X273425305Y-52580000D02*
X272700305Y-51855000D01*
X271594695Y-52360000D02*
X265820000Y-52360000D01*
D35*
X269550000Y-69855458D02*
X269550000Y-74800000D01*
D34*
X185150000Y-51500000D02*
X186350000Y-51500000D01*
D35*
X269544543Y-74800000D02*
X269550000Y-74794543D01*
X268050000Y-65150000D02*
X268050000Y-68355458D01*
D34*
X273775000Y-52580000D02*
X273425305Y-52580000D01*
X166150000Y-59000000D02*
X167350000Y-59000000D01*
X223150000Y-51500000D02*
X224350000Y-51500000D01*
X147150000Y-59000000D02*
X148350000Y-59000000D01*
D35*
X268050000Y-68355458D02*
X269550000Y-69855458D01*
D34*
X242150000Y-53500000D02*
X243350000Y-53500000D01*
X204150000Y-48500000D02*
X205350000Y-48500000D01*
D35*
%TO.N,P10*%
X265655457Y-69855457D02*
X264155457Y-68355457D01*
D34*
X272700305Y-62015000D02*
X272099695Y-62015000D01*
X260181573Y-156468407D02*
X261139936Y-157190585D01*
X204150000Y-124500000D02*
X205350000Y-124500000D01*
X185150000Y-127500000D02*
X186350000Y-127500000D01*
X273425305Y-62740000D02*
X272700305Y-62015000D01*
X273775000Y-62740000D02*
X273425305Y-62740000D01*
D35*
X265655457Y-74800000D02*
X265655457Y-69855457D01*
D34*
X166150000Y-135000000D02*
X167350000Y-135000000D01*
X243348887Y-145475668D02*
X244469184Y-145905710D01*
X271594695Y-62520000D02*
X265820000Y-62520000D01*
X223305725Y-142886626D02*
X224502802Y-142802919D01*
D35*
X264155457Y-68355457D02*
X264155457Y-65150000D01*
D34*
X272099695Y-62015000D02*
X271594695Y-62520000D01*
D35*
%TO.N,RAW*%
X251300000Y-35950000D02*
X251301000Y-35951000D01*
D34*
X273775000Y-34800000D02*
X273425305Y-34800000D01*
X272099695Y-34075000D02*
X271594695Y-34580000D01*
X272700305Y-34075000D02*
X272099695Y-34075000D01*
X271594695Y-34580000D02*
X265820000Y-34580000D01*
X273425305Y-34800000D02*
X272700305Y-34075000D01*
D35*
X250750000Y-35400000D02*
X251300000Y-35950000D01*
X250750000Y-34235000D02*
X250750000Y-35400000D01*
D34*
%TO.N,RST*%
X273775000Y-39880000D02*
X273425305Y-39880000D01*
X272099695Y-39155000D02*
X271594695Y-39660000D01*
X272700305Y-39155000D02*
X272099695Y-39155000D01*
X273425305Y-39880000D02*
X272700305Y-39155000D01*
X271594695Y-39660000D02*
X265820000Y-39660000D01*
%TO.N,VCC*%
X272700305Y-41695000D02*
X272099695Y-41695000D01*
X272099695Y-41695000D02*
X271594695Y-42200000D01*
X271594695Y-42200000D02*
X265820000Y-42200000D01*
X273775000Y-42420000D02*
X273425305Y-42420000D01*
X273425305Y-42420000D02*
X272700305Y-41695000D01*
%TO.N,P21*%
X273425305Y-44960000D02*
X272700305Y-44235000D01*
X272099695Y-44235000D02*
X271594695Y-44740000D01*
X272700305Y-44235000D02*
X272099695Y-44235000D01*
X273775000Y-44960000D02*
X273425305Y-44960000D01*
X271594695Y-44740000D02*
X265820000Y-44740000D01*
%TO.N,P20*%
X272700305Y-46775000D02*
X272099695Y-46775000D01*
X273425305Y-47500000D02*
X272700305Y-46775000D01*
X271594695Y-47280000D02*
X265820000Y-47280000D01*
X273775000Y-47500000D02*
X273425305Y-47500000D01*
X272099695Y-46775000D02*
X271594695Y-47280000D01*
%TO.N,P19*%
X273775000Y-50040000D02*
X273425305Y-50040000D01*
X272099695Y-49315000D02*
X271594695Y-49820000D01*
X271594695Y-49820000D02*
X265820000Y-49820000D01*
X272700305Y-49315000D02*
X272099695Y-49315000D01*
X273425305Y-50040000D02*
X272700305Y-49315000D01*
%TO.N,P1*%
X265900305Y-35525000D02*
X266395305Y-35030000D01*
X265299695Y-35525000D02*
X265900305Y-35525000D01*
X266395305Y-35030000D02*
X272170000Y-35030000D01*
X264574695Y-34800000D02*
X265299695Y-35525000D01*
X264225000Y-34800000D02*
X264574695Y-34800000D01*
%TO.N,P0*%
X266395305Y-37570000D02*
X272170000Y-37570000D01*
X265900305Y-38065000D02*
X266395305Y-37570000D01*
X265299695Y-38065000D02*
X265900305Y-38065000D01*
X264574695Y-37340000D02*
X265299695Y-38065000D01*
X264225000Y-37340000D02*
X264574695Y-37340000D01*
%TO.N,P2*%
X266395305Y-45190000D02*
X272170000Y-45190000D01*
X264225000Y-44960000D02*
X264574695Y-44960000D01*
X265900305Y-45685000D02*
X266395305Y-45190000D01*
X265299695Y-45685000D02*
X265900305Y-45685000D01*
X264574695Y-44960000D02*
X265299695Y-45685000D01*
%TO.N,P3*%
X265299695Y-48225000D02*
X265900305Y-48225000D01*
X264574695Y-47500000D02*
X265299695Y-48225000D01*
X265900305Y-48225000D02*
X266395305Y-47730000D01*
X264225000Y-47500000D02*
X264574695Y-47500000D01*
X266395305Y-47730000D02*
X272170000Y-47730000D01*
%TO.N,MCU1_24*%
X261380000Y-34800000D02*
X263500000Y-34800000D01*
%TO.N,MCU1_1*%
X276620000Y-34800000D02*
X274500000Y-34800000D01*
%TO.N,MCU1_23*%
X261380000Y-37340000D02*
X263500000Y-37340000D01*
%TO.N,MCU1_2*%
X276620000Y-37340000D02*
X274500000Y-37340000D01*
%TO.N,MCU1_22*%
X261380000Y-39880000D02*
X263500000Y-39880000D01*
%TO.N,MCU1_3*%
X276620000Y-39880000D02*
X274500000Y-39880000D01*
%TO.N,MCU1_21*%
X261380000Y-42420000D02*
X263500000Y-42420000D01*
%TO.N,MCU1_4*%
X276620000Y-42420000D02*
X274500000Y-42420000D01*
%TO.N,MCU1_20*%
X261380000Y-44960000D02*
X263500000Y-44960000D01*
%TO.N,MCU1_5*%
X276620000Y-44960000D02*
X274500000Y-44960000D01*
%TO.N,MCU1_19*%
X261380000Y-47500000D02*
X263500000Y-47500000D01*
%TO.N,MCU1_6*%
X276620000Y-47500000D02*
X274500000Y-47500000D01*
%TO.N,MCU1_18*%
X261380000Y-50040000D02*
X263500000Y-50040000D01*
%TO.N,MCU1_7*%
X276620000Y-50040000D02*
X274500000Y-50040000D01*
%TO.N,MCU1_17*%
X261380000Y-52580000D02*
X263500000Y-52580000D01*
%TO.N,MCU1_8*%
X276620000Y-52580000D02*
X274500000Y-52580000D01*
%TO.N,MCU1_16*%
X261380000Y-55120000D02*
X263500000Y-55120000D01*
%TO.N,MCU1_9*%
X276620000Y-55120000D02*
X274500000Y-55120000D01*
%TO.N,MCU1_15*%
X261380000Y-57660000D02*
X263500000Y-57660000D01*
%TO.N,MCU1_10*%
X276620000Y-57660000D02*
X274500000Y-57660000D01*
%TO.N,MCU1_14*%
X261380000Y-60200000D02*
X263500000Y-60200000D01*
%TO.N,MCU1_11*%
X276620000Y-60200000D02*
X274500000Y-60200000D01*
%TO.N,MCU1_13*%
X261380000Y-62740000D02*
X263500000Y-62740000D01*
%TO.N,MCU1_12*%
X276620000Y-62740000D02*
X274500000Y-62740000D01*
D35*
%TO.N,BAT_P*%
X248400000Y-37350000D02*
X258350000Y-37350000D01*
X259850000Y-109500000D02*
X270850000Y-109500000D01*
X270850000Y-109500000D02*
X271800000Y-109500000D01*
X259000000Y-38000000D02*
X259000000Y-108650000D01*
X247750000Y-34235000D02*
X247750000Y-36700000D01*
X259000000Y-108650000D02*
X259850000Y-109500000D01*
X258350000Y-37350000D02*
X259000000Y-38000000D01*
X271800000Y-109500000D02*
X273184000Y-109500000D01*
X247750000Y-36700000D02*
X248400000Y-37350000D01*
D34*
%TO.N,JST1_1*%
X274200000Y-107500000D02*
X276000000Y-107500000D01*
%TO.N,JST1_2*%
X274200000Y-109500000D02*
X276000000Y-109500000D01*
%TD*%
M02*
