M48
; DRILL file {KiCad 9.0.1} date 2026-06-11T15:53:54+0200
; FORMAT={-:-/ absolute / metric / decimal}
; #@! TF.CreationDate,2026-06-11T15:53:54+02:00
; #@! TF.GenerationSoftware,Kicad,Pcbnew,9.0.1
; #@! TF.FileFunction,NonPlated,1,2,NPTH
FMAT,2
METRIC
; #@! TA.AperFunction,NonPlated,NPTH,ComponentDrill
T1C0.900
; #@! TA.AperFunction,NonPlated,NPTH,ComponentDrill
T2C1.900
; #@! TA.AperFunction,NonPlated,NPTH,ComponentDrill
T3C3.000
; #@! TA.AperFunction,NonPlated,NPTH,ComponentDrill
T4C4.100
%
G90
G05
T1
X248.5Y-32.475
X251.5Y-32.475
T2
X144.92Y-54.0
X144.92Y-73.0
X144.92Y-92.0
X144.92Y-111.0
X155.08Y-54.0
X155.08Y-73.0
X155.08Y-92.0
X155.08Y-111.0
X163.92Y-54.0
X163.92Y-73.0
X163.92Y-92.0
X163.92Y-111.0
X163.92Y-130.0
X174.08Y-54.0
X174.08Y-73.0
X174.08Y-92.0
X174.08Y-111.0
X174.08Y-130.0
X182.92Y-46.5
X182.92Y-65.5
X182.92Y-84.5
X182.92Y-103.5
X182.92Y-122.5
X193.08Y-46.5
X193.08Y-65.5
X193.08Y-84.5
X193.08Y-103.5
X193.08Y-122.5
X201.92Y-43.5
X201.92Y-62.5
X201.92Y-81.5
X201.92Y-100.5
X201.92Y-119.5
X212.08Y-43.5
X212.08Y-62.5
X212.08Y-81.5
X212.08Y-100.5
X212.08Y-119.5
X220.732Y-138.054
X220.92Y-46.5
X220.92Y-65.5
X220.92Y-84.5
X220.92Y-103.5
X230.868Y-137.346
X231.08Y-46.5
X231.08Y-65.5
X231.08Y-84.5
X231.08Y-103.5
X239.92Y-48.5
X239.92Y-67.5
X239.92Y-86.5
X239.92Y-105.5
X243.059Y-140.009
X250.08Y-48.5
X250.08Y-67.5
X250.08Y-86.5
X250.08Y-105.5
X252.544Y-143.65
X261.41Y-151.133
X269.524Y-157.248
T3
X146.19Y-51.46
X146.19Y-70.46
X146.19Y-89.46
X146.19Y-108.46
X147.46Y-48.92
X147.46Y-67.92
X147.46Y-86.92
X147.46Y-105.92
X152.54Y-48.92
X152.54Y-67.92
X152.54Y-86.92
X152.54Y-105.92
X153.81Y-51.46
X153.81Y-70.46
X153.81Y-89.46
X153.81Y-108.46
X165.19Y-51.46
X165.19Y-70.46
X165.19Y-89.46
X165.19Y-108.46
X165.19Y-127.46
X166.46Y-48.92
X166.46Y-67.92
X166.46Y-86.92
X166.46Y-105.92
X166.46Y-124.92
X171.54Y-48.92
X171.54Y-67.92
X171.54Y-86.92
X171.54Y-105.92
X171.54Y-124.92
X172.81Y-51.46
X172.81Y-70.46
X172.81Y-89.46
X172.81Y-108.46
X172.81Y-127.46
X184.19Y-43.96
X184.19Y-62.96
X184.19Y-81.96
X184.19Y-100.96
X184.19Y-119.96
X185.46Y-41.42
X185.46Y-60.42
X185.46Y-79.42
X185.46Y-98.42
X185.46Y-117.42
X190.54Y-41.42
X190.54Y-60.42
X190.54Y-79.42
X190.54Y-98.42
X190.54Y-117.42
X191.81Y-43.96
X191.81Y-62.96
X191.81Y-81.96
X191.81Y-100.96
X191.81Y-119.96
X203.19Y-40.96
X203.19Y-59.96
X203.19Y-78.96
X203.19Y-97.96
X203.19Y-116.96
X204.46Y-38.42
X204.46Y-57.42
X204.46Y-76.42
X204.46Y-95.42
X204.46Y-114.42
X209.54Y-38.42
X209.54Y-57.42
X209.54Y-76.42
X209.54Y-95.42
X209.54Y-114.42
X210.81Y-40.96
X210.81Y-59.96
X210.81Y-78.96
X210.81Y-97.96
X210.81Y-116.96
X221.822Y-135.432
X222.19Y-43.96
X222.19Y-62.96
X222.19Y-81.96
X222.19Y-100.96
X222.912Y-132.81
X223.46Y-41.42
X223.46Y-60.42
X223.46Y-79.42
X223.46Y-98.42
X227.979Y-132.455
X228.54Y-41.42
X228.54Y-60.42
X228.54Y-79.42
X228.54Y-98.42
X229.424Y-134.9
X229.81Y-43.96
X229.81Y-62.96
X229.81Y-81.96
X229.81Y-100.96
X241.19Y-45.96
X241.19Y-64.96
X241.19Y-83.96
X241.19Y-102.96
X242.46Y-43.42
X242.46Y-62.42
X242.46Y-81.42
X242.46Y-100.42
X245.155Y-138.092
X247.251Y-136.176
X247.54Y-43.42
X247.54Y-62.42
X247.54Y-81.42
X247.54Y-100.42
X248.81Y-45.96
X248.81Y-64.96
X248.81Y-83.96
X248.81Y-102.96
X251.993Y-137.997
X252.269Y-140.823
X263.953Y-149.869
X266.495Y-148.605
X270.038Y-154.455
X270.553Y-151.662
T4
X150.0Y-54.0
X150.0Y-73.0
X150.0Y-92.0
X150.0Y-111.0
X169.0Y-54.0
X169.0Y-73.0
X169.0Y-92.0
X169.0Y-111.0
X169.0Y-130.0
X188.0Y-46.5
X188.0Y-65.5
X188.0Y-84.5
X188.0Y-103.5
X188.0Y-122.5
X207.0Y-43.5
X207.0Y-62.5
X207.0Y-81.5
X207.0Y-100.5
X207.0Y-119.5
X225.8Y-137.7
X226.0Y-46.5
X226.0Y-65.5
X226.0Y-84.5
X226.0Y-103.5
X245.0Y-48.5
X245.0Y-67.5
X245.0Y-86.5
X245.0Y-105.5
X247.801Y-141.829
X265.467Y-154.19
M30
